SplineFontDB: 3.2
FontName: Mezlo-RegularForDev
FullName: Mezlo Regular for Dev
FamilyName: Mezlo for Dev
Weight: Book
Copyright: Copyright (c) 2009 Apple Inc. Copyright (c)  2006 by Tavmjong Bah. Copyright (c) 2003 by Bitstream, Inc. All Rights Reserved.
Version: 1.210
ItalicAngle: 0
UnderlinePosition: -1
UnderlineWidth: 1
Ascent: 819
Descent: 205
InvalidEm: 0
sfntRevision: 0x00010000
LayerCount: 2
Layer: 0 1 "Back" 1
Layer: 1 1 "Fore" 0
XUID: [1021 108 -1859126814 3829246]
StyleMap: 0x0040
FSType: 0
OS2Version: 2
OS2_WeightWidthSlopeOnly: 0
OS2_UseTypoMetrics: 0
CreationTime: 1512770094
ModificationTime: 1609003476
PfmFamily: 81
TTFWeight: 400
TTFWidth: 5
LineGap: 0
VLineGap: 0
Panose: 0 0 0 0 0 0 0 0 0 0
OS2TypoAscent: 1000
OS2TypoAOffset: 0
OS2TypoDescent: -292
OS2TypoDOffset: 0
OS2TypoLinegap: 100
OS2WinAscent: 1000
OS2WinAOffset: 0
OS2WinDescent: 292
OS2WinDOffset: 0
HheadAscent: 1000
HheadAOffset: 0
HheadDescent: -292
HheadDOffset: 0
OS2SubXSize: 40
OS2SubYSize: 40
OS2SubXOff: 40
OS2SubYOff: 40
OS2SupXSize: 40
OS2SupYSize: 40
OS2SupXOff: 40
OS2SupYOff: 40
OS2StrikeYSize: 40
OS2StrikeYPos: 200
OS2CapHeight: 1000
OS2XHeight: 560
OS2Vendor: 'Bird'
OS2CodePages: 00000001.00000000
OS2UnicodeRanges: 00000001.00000000.00000000.00000000
DEI: 91125
ShortTable: maxp 16
  1
  0
  2695
  1088
  43
  0
  0
  1
  0
  0
  0
  0
  0
  0
  0
  0
EndShort

StartChar: .notdef
Encoding: 65536 -1 0
Width: 543
Flags: W
LayerCount: 2
Fore
SplineSet
51 102 m 1,0,1
 128 102 128 102 358 102 c 1,2,3
 358 238 358 238 358 644 c 1,4,5
 282 644 282 644 51 644 c 1,6,7
 51 599 51 599 51 508 c 0,8,9
 51 373 51 373 51 102 c 1,0,1
0 695 m 1,10,11
 102 695 102 695 410 695 c 1,12,13
 410 534 410 534 410 51 c 1,14,15
 307 51 307 51 0 51 c 1,16,17
 0 266 0 266 0 695 c 1,10,11
EndSplineSet
EndChar

StartChar: exclam
Encoding: 33 33 4
Width: 616
Flags: W
LayerCount: 2
Fore
SplineSet
273 747 m 1,0,1
 273 665 273 665 273 419 c 0,2,3
 276 381 276 381 284 265 c 1,4,5
 304 265 304 265 364 265 c 1,6,7
 367 304 367 304 375 419 c 1,8,9
 375 501 375 501 375 747 c 1,10,11
 349 747 349 747 273 747 c 1,0,1
258 127 m 1,12,13
 258 95 258 95 258 0 c 1,14,15
 291 0 291 0 389 0 c 1,16,17
 389 32 389 32 389 127 c 1,18,19
 357 127 357 127 258 127 c 1,12,13
EndSplineSet
EndChar

StartChar: quotedbl
Encoding: 34 34 5
Width: 616
Flags: W
LayerCount: 2
Fore
SplineSet
472 773 m 1,0,1
 444 773 444 773 360 773 c 1,2,3
 360 697 360 697 360 468 c 1,4,5
 388 468 388 468 472 468 c 1,6,7
 472 544 472 544 472 773 c 1,0,1
206 773 m 1,8,9
 178 773 178 773 94 773 c 1,10,11
 94 754 94 754 94 697 c 256,12,13
 94 640 94 640 94 468 c 1,14,15
 122 468 122 468 206 468 c 1,16,17
 206 544 206 544 206 773 c 1,8,9
EndSplineSet
EndChar

StartChar: numbersign
Encoding: 35 35 6
Width: 616
Flags: W
LayerCount: 2
Fore
SplineSet
342 732 m 1,0,1
 322 732 322 732 262 732 c 1,2,3
 251 688 251 688 217 556 c 1,4,5
 179 556 179 556 65 556 c 1,6,7
 65 536 65 536 65 479 c 1,8,9
 99 479 99 479 199 479 c 1,10,11
 186 430 186 430 149 283 c 1,12,13
 112 283 112 283 1 283 c 1,14,15
 1 277 1 277 1 260 c 0,16,17
 1 247 1 247 1 206 c 1,18,19
 33 206 33 206 130 206 c 1,20,21
 117 155 117 155 78 0 c 1,22,23
 98 0 98 0 157 0 c 1,24,25
 171 52 171 52 210 206 c 1,26,27
 241 206 241 206 333 206 c 1,28,29
 320 155 320 155 280 0 c 1,30,31
 300 0 300 0 360 0 c 1,32,33
 373 52 373 52 412 206 c 1,34,35
 449 206 449 206 557 206 c 1,36,37
 557 225 557 225 557 283 c 1,38,39
 526 283 526 283 432 283 c 1,40,41
 444 332 444 332 481 479 c 1,42,43
 516 479 516 479 621 479 c 1,44,45
 621 498 621 498 621 556 c 1,46,47
 591 556 591 556 500 556 c 1,48,49
 511 600 511 600 545 732 c 1,50,51
 525 732 525 732 465 732 c 1,52,53
 454 688 454 688 420 556 c 1,54,55
 389 556 389 556 297 556 c 1,56,57
 308 600 308 600 342 732 c 1,0,1
401 479 m 1,58,59
 389 430 389 430 352 283 c 1,60,61
 322 283 322 283 229 283 c 1,62,63
 242 332 242 332 279 479 c 1,64,65
 309 479 309 479 401 479 c 1,58,59
EndSplineSet
EndChar

StartChar: dollar
Encoding: 36 36 7
Width: 616
Flags: W
LayerCount: 2
Fore
SplineSet
346 290 m 1,0,1
 376 285 376 285 399 276 c 0,2,3
 421 267 421 267 435 255 c 0,4,5
 449 242 449 242 456 224 c 256,6,7
 463 206 463 206 463 183 c 0,8,9
 463 157 463 157 455 138 c 0,10,11
 447 118 447 118 432 104 c 0,12,13
 416 89 416 89 395 81 c 0,14,15
 373 74 373 74 346 73 c 1,16,17
 346 145 346 145 346 290 c 1,0,1
296 385 m 1,18,19
 268 389 268 389 247 397 c 0,20,21
 226 406 226 406 212 419 c 0,22,23
 199 431 199 431 192 448 c 256,24,25
 185 465 185 465 185 487 c 0,26,27
 185 510 185 510 193 528 c 0,28,29
 200 547 200 547 215 561 c 0,30,31
 229 575 229 575 249 583 c 0,32,33
 270 590 270 590 296 592 c 1,34,35
 296 523 296 523 296 385 c 1,18,19
346 -151 m 1,36,37
 346 -113 346 -113 347 1 c 1,38,39
 393 3 393 3 431 17 c 256,40,41
 469 31 469 31 499 57 c 0,42,43
 528 83 528 83 542 115 c 0,44,45
 557 147 557 147 557 185 c 0,46,47
 557 224 557 224 543 255 c 0,48,49
 529 287 529 287 502 311 c 256,50,51
 475 335 475 335 436 351 c 0,52,53
 396 367 396 367 345 375 c 1,54,55
 345 447 345 447 345 591 c 1,56,57
 365 589 365 589 385 586 c 0,58,59
 405 582 405 582 425 576 c 256,60,61
 445 570 445 570 466 562 c 256,62,63
 487 554 487 554 508 544 c 1,64,65
 508 572 508 572 508 630 c 1,66,67
 487 636 487 636 466 642 c 0,68,69
 446 647 446 647 426 651 c 0,70,71
 405 654 405 654 385 657 c 0,72,73
 365 659 365 659 346 660 c 1,74,75
 345 700 345 700 345 778 c 1,76,77
 332 778 332 778 295 778 c 1,78,79
 295 749 295 749 295 660 c 1,80,81
 247 657 247 657 210 643 c 0,82,83
 173 630 173 630 147 607 c 0,84,85
 120 583 120 583 107 552 c 0,86,87
 94 520 94 520 94 481 c 0,88,89
 94 444 94 444 107 414 c 0,90,91
 119 384 119 384 144 361 c 0,92,93
 170 338 170 338 207 323 c 0,94,95
 245 308 245 308 295 300 c 1,96,97
 295 224 295 224 295 71 c 1,98,99
 270 71 270 71 245 76 c 0,100,101
 220 80 220 80 195 88 c 0,102,103
 169 97 169 97 144 109 c 0,104,105
 119 120 119 120 94 136 c 1,106,107
 94 106 94 106 94 46 c 1,108,109
 118 36 118 36 143 28 c 256,110,111
 168 20 168 20 193 14 c 256,112,113
 218 8 218 8 244 5 c 0,114,115
 269 1 269 1 295 0 c 1,116,117
 295 -50 295 -50 295 -151 c 1,118,119
 307 -151 307 -151 346 -151 c 1,36,37
EndSplineSet
EndChar

StartChar: percent
Encoding: 37 37 8
Width: 616
Flags: W
LayerCount: 2
Fore
SplineSet
348 160 m 0,0,1
 348 179 348 179 354 195 c 0,2,3
 361 212 361 212 374 225 c 0,4,5
 387 239 387 239 404 245 c 0,6,7
 420 252 420 252 440 252 c 0,8,9
 458 252 458 252 475 245 c 0,10,11
 491 239 491 239 504 225 c 0,12,13
 518 212 518 212 525 195 c 0,14,15
 532 179 532 179 532 160 c 0,16,17
 532 140 532 140 525 124 c 256,18,19
 518 108 518 108 504 94 c 0,20,21
 491 81 491 81 475 74 c 0,22,23
 459 68 459 68 440 68 c 0,24,25
 420 68 420 68 404 74 c 0,26,27
 387 81 387 81 374 94 c 256,28,29
 361 107 361 107 354 124 c 0,30,31
 348 140 348 140 348 160 c 0,0,1
280 160 m 0,32,33
 280 125 280 125 292 97 c 0,34,35
 303 68 303 68 326 45 c 0,36,37
 349 23 349 23 377 11 c 0,38,39
 405 0 405 0 440 0 c 0,40,41
 473 0 473 0 502 12 c 0,42,43
 530 23 530 23 553 47 c 0,44,45
 577 70 577 70 588 98 c 0,46,47
 600 126 600 126 600 160 c 0,48,49
 600 175 600 175 597 190 c 256,50,51
 594 205 594 205 588 220 c 0,52,53
 581 234 581 234 572 247 c 256,54,55
 563 260 563 260 552 272 c 0,56,57
 540 284 540 284 527 293 c 256,58,59
 514 302 514 302 500 308 c 256,60,61
 486 314 486 314 470 317 c 0,62,63
 455 320 455 320 440 320 c 0,64,65
 406 320 406 320 378 308 c 0,66,67
 349 296 349 296 327 273 c 0,68,69
 303 250 303 250 292 221 c 0,70,71
 280 193 280 193 280 160 c 0,32,33
41 220 m 1,72,73
 182 276 182 276 602 443 c 1,74,75
 596 457 596 457 577 500 c 1,76,77
 438 444 438 444 20 276 c 1,78,79
 25 262 25 262 41 220 c 1,72,73
84 556 m 0,80,81
 84 576 84 576 90 592 c 0,82,83
 97 608 97 608 111 621 c 0,84,85
 124 635 124 635 140 641 c 0,86,87
 157 648 157 648 176 648 c 256,88,89
 195 648 195 648 212 641 c 0,90,91
 228 635 228 635 241 621 c 0,92,93
 255 608 255 608 262 591 c 0,94,95
 268 575 268 575 268 556 c 0,96,97
 268 536 268 536 262 520 c 0,98,99
 255 504 255 504 241 491 c 0,100,101
 228 477 228 477 212 471 c 0,102,103
 195 465 195 465 176 465 c 0,104,105
 156 465 156 465 140 471 c 0,106,107
 123 478 123 478 110 491 c 256,108,109
 97 504 97 504 90 521 c 0,110,111
 84 537 84 537 84 556 c 0,80,81
16 557 m 256,112,113
 16 523 16 523 28 495 c 0,114,115
 39 466 39 466 63 444 c 0,116,117
 85 420 85 420 114 409 c 0,118,119
 142 397 142 397 176 397 c 0,120,121
 209 397 209 397 238 409 c 0,122,123
 266 420 266 420 289 444 c 0,124,125
 313 467 313 467 324 495 c 0,126,127
 336 523 336 523 336 557 c 0,128,129
 336 573 336 573 333 589 c 0,130,131
 330 604 330 604 324 618 c 0,132,133
 318 633 318 633 309 646 c 256,134,135
 300 659 300 659 289 670 c 0,136,137
 278 682 278 682 265 690 c 0,138,139
 252 699 252 699 237 705 c 256,140,141
 222 711 222 711 207 714 c 256,142,143
 192 717 192 717 176 717 c 0,144,145
 142 717 142 717 114 705 c 0,146,147
 85 694 85 694 63 670 c 0,148,149
 39 647 39 647 28 619 c 0,150,151
 16 591 16 591 16 557 c 256,112,113
EndSplineSet
EndChar

StartChar: ampersand
Encoding: 38 38 9
Width: 616
Flags: W
LayerCount: 2
Fore
SplineSet
273 453 m 0,0,1
 254 479 254 479 241 500 c 256,2,3
 228 521 228 521 220 537 c 0,4,5
 213 553 213 553 210 569 c 0,6,7
 206 584 206 584 206 599 c 0,8,9
 206 618 206 618 213 633 c 0,10,11
 220 649 220 649 234 660 c 256,12,13
 248 671 248 671 267 677 c 256,14,15
 286 683 286 683 311 683 c 0,16,17
 328 683 328 683 344 681 c 0,18,19
 360 678 360 678 376 673 c 0,20,21
 392 669 392 669 407 662 c 256,22,23
 422 655 422 655 437 645 c 1,24,25
 437 675 437 675 437 736 c 1,26,27
 419 742 419 742 402 747 c 0,28,29
 386 751 386 751 369 754 c 0,30,31
 353 757 353 757 336 759 c 0,32,33
 320 760 320 760 304 760 c 0,34,35
 261 760 261 760 226 749 c 0,36,37
 192 738 192 738 168 716 c 0,38,39
 143 695 143 695 130 665 c 0,40,41
 118 636 118 636 118 598 c 0,42,43
 118 580 118 580 121 563 c 0,44,45
 124 545 124 545 130 528 c 256,46,47
 136 511 136 511 145 493 c 256,48,49
 154 475 154 475 167 457 c 1,50,51
 132 432 132 432 106 405 c 256,52,53
 80 378 80 378 63 349 c 256,54,55
 46 320 46 320 37 288 c 256,56,57
 28 256 28 256 28 222 c 0,58,59
 28 171 28 171 46 129 c 0,60,61
 64 86 64 86 99 52 c 0,62,63
 134 19 134 19 179 2 c 0,64,65
 223 -15 223 -15 277 -15 c 0,66,67
 304 -15 304 -15 329 -10 c 0,68,69
 354 -6 354 -6 377 3 c 0,70,71
 400 11 400 11 422 24 c 256,72,73
 444 37 444 37 465 55 c 1,74,75
 478 36 478 36 504 0 c 1,76,77
 531 0 531 0 611 0 c 1,78,79
 589 29 589 29 525 115 c 1,80,81
 544 136 544 136 558 162 c 0,82,83
 572 189 572 189 581 219 c 256,84,85
 590 249 590 249 595 285 c 0,86,87
 600 320 600 320 600 360 c 0,88,89
 600 367 600 367 600 380 c 1,90,91
 580 380 580 380 518 380 c 1,92,93
 518 379 518 379 519 376 c 0,94,95
 519 359 519 359 520 346 c 0,96,97
 520 333 520 333 520 325 c 0,98,99
 520 299 520 299 518 277 c 0,100,101
 515 255 515 255 511 236 c 0,102,103
 506 217 506 217 498 202 c 0,104,105
 491 186 491 186 481 174 c 1,106,107
 412 267 412 267 273 453 c 0,0,1
208 401 m 1,108,109
 262 329 262 329 422 112 c 1,110,111
 418 108 418 108 414 105 c 256,112,113
 410 102 410 102 405 99 c 0,114,115
 401 96 401 96 395 93 c 0,116,117
 390 90 390 90 383 86 c 0,118,119
 372 80 372 80 360 76 c 0,120,121
 349 71 349 71 338 68 c 0,122,123
 326 65 326 65 315 64 c 0,124,125
 305 63 305 63 294 63 c 0,126,127
 255 63 255 63 223 75 c 256,128,129
 191 87 191 87 167 112 c 0,130,131
 141 137 141 137 129 168 c 0,132,133
 116 200 116 200 116 237 c 0,134,135
 116 260 116 260 122 282 c 256,136,137
 128 304 128 304 139 324 c 256,138,139
 150 344 150 344 167 364 c 0,140,141
 185 383 185 383 208 401 c 1,108,109
EndSplineSet
EndChar

StartChar: quotesingle
Encoding: 39 39 10
Width: 616
Flags: W
LayerCount: 2
Fore
SplineSet
371 779 m 1,0,1
 343 779 343 779 259 779 c 1,2,3
 259 701 259 701 259 468 c 1,4,5
 287 468 287 468 371 468 c 1,6,7
 371 545 371 545 371 779 c 1,0,1
EndSplineSet
EndChar

StartChar: parenleft
Encoding: 40 40 11
Width: 616
Flags: W
LayerCount: 2
Fore
SplineSet
428 827 m 1,0,1
 408 827 408 827 348 827 c 1,2,3
 310 768 310 768 282 710 c 0,4,5
 253 652 253 652 235 596 c 0,6,7
 216 539 216 539 207 483 c 256,8,9
 198 427 198 427 198 372 c 0,10,11
 198 315 198 315 207 259 c 256,12,13
 216 203 216 203 235 147 c 0,14,15
 253 90 253 90 281 32 c 256,16,17
 309 -26 309 -26 347 -85 c 1,18,19
 373 -85 373 -85 427 -85 c 1,20,21
 393 -28 393 -28 368 29 c 0,22,23
 344 87 344 87 327 144 c 0,24,25
 310 200 310 200 302 257 c 0,26,27
 295 314 295 314 295 372 c 0,28,29
 295 429 295 429 302 486 c 0,30,31
 310 543 310 543 327 600 c 0,32,33
 344 656 344 656 368 713 c 0,34,35
 393 770 393 770 428 827 c 1,0,1
EndSplineSet
EndChar

StartChar: parenright
Encoding: 41 41 12
Width: 616
Flags: W
LayerCount: 2
Fore
SplineSet
174 827 m 1,0,1
 207 770 207 770 232 713 c 256,2,3
 257 656 257 656 273 599 c 0,4,5
 290 542 290 542 298 485 c 0,6,7
 306 429 306 429 306 372 c 256,8,9
 306 315 306 315 298 258 c 256,10,11
 290 201 290 201 273 144 c 0,12,13
 257 87 257 87 232 30 c 256,14,15
 207 -27 207 -27 174 -85 c 1,16,17
 201 -85 201 -85 254 -85 c 1,18,19
 292 -26 292 -26 320 32 c 0,20,21
 348 89 348 89 367 146 c 0,22,23
 385 202 385 202 394 259 c 0,24,25
 404 315 404 315 404 372 c 0,26,27
 404 427 404 427 394 483 c 0,28,29
 385 539 385 539 367 596 c 0,30,31
 348 652 348 652 320 710 c 256,32,33
 292 768 292 768 254 827 c 1,34,35
 227 827 227 827 174 827 c 1,0,1
EndSplineSet
EndChar

StartChar: asterisk
Encoding: 42 42 13
Width: 616
Flags: W
LayerCount: 2
Fore
SplineSet
589 578 m 1,0,1
 581 593 581 593 555 640 c 1,2,3
 502 608 502 608 345 514 c 1,4,5
 345 572 345 572 345 747 c 1,6,7
 328 747 328 747 274 747 c 1,8,9
 274 689 274 689 274 514 c 1,10,11
 222 545 222 545 65 640 c 1,12,13
 56 624 56 624 30 578 c 1,14,15
 86 548 86 548 252 458 c 1,16,17
 197 428 197 428 30 337 c 1,18,19
 39 322 39 322 65 276 c 1,20,21
 117 308 117 308 274 402 c 1,22,23
 274 344 274 344 274 169 c 1,24,25
 292 169 292 169 345 169 c 1,26,27
 345 227 345 227 345 402 c 1,28,29
 398 371 398 371 555 276 c 1,30,31
 563 292 563 292 589 337 c 1,32,33
 534 368 534 368 368 458 c 1,34,35
 423 488 423 488 589 578 c 1,0,1
EndSplineSet
EndChar

StartChar: plus
Encoding: 43 43 14
Width: 616
Flags: W
LayerCount: 2
Fore
SplineSet
360 589 m 1,0,1
 339 589 339 589 276 589 c 1,2,3
 276 534 276 534 276 368 c 1,4,5
 221 368 221 368 54 368 c 1,6,7
 54 346 54 346 54 283 c 1,8,9
 110 283 110 283 276 283 c 1,10,11
 276 228 276 228 276 61 c 1,12,13
 297 61 297 61 360 61 c 1,14,15
 360 117 360 117 360 283 c 1,16,17
 416 283 416 283 583 283 c 1,18,19
 583 304 583 304 583 368 c 1,20,21
 527 368 527 368 360 368 c 1,22,23
 360 423 360 423 360 589 c 1,0,1
EndSplineSet
EndChar

StartChar: comma
Encoding: 44 44 15
Width: 616
Flags: W
LayerCount: 2
Fore
SplineSet
221 180 m 1,0,1
 221 147 221 147 221 48 c 1,2,3
 207 -6 207 -6 166 -168 c 1,4,5
 191 -168 191 -168 266 -168 c 1,6,7
 294 -114 294 -114 377 48 c 1,8,9
 377 81 377 81 377 180 c 1,10,11
 338 180 338 180 221 180 c 1,0,1
EndSplineSet
EndChar

StartChar: hyphen
Encoding: 45 45 16
Width: 616
Flags: W
LayerCount: 2
Fore
SplineSet
51 362 m 1,0,1
 51 341 51 341 51 277 c 1,2,3
 184 277 184 277 581 277 c 1,4,5
 581 299 581 299 581 362 c 1,6,7
 448 362 448 362 51 362 c 1,0,1
EndSplineSet
EndChar

StartChar: period
Encoding: 46 46 17
Width: 616
Flags: W
LayerCount: 2
Fore
SplineSet
195 202 m 1,0,1
 195 151 195 151 195 0 c 1,2,3
 239 0 239 0 371 0 c 1,4,5
 371 50 371 50 371 202 c 1,6,7
 327 202 327 202 195 202 c 1,0,1
EndSplineSet
EndChar

StartChar: slash
Encoding: 47 47 18
Width: 616
Flags: W
LayerCount: 2
Fore
SplineSet
444 747 m 1,0,1
 346 536 346 536 51 -95 c 1,2,3
 75 -95 75 -95 147 -95 c 1,4,5
 245 115 245 115 540 747 c 1,6,7
 516 747 516 747 444 747 c 1,0,1
EndSplineSet
EndChar

StartChar: zero
Encoding: 48 48 19
Width: 616
Flags: W
LayerCount: 2
Fore
SplineSet
241 375 m 0,0,1
 241 360 241 360 246 348 c 256,2,3
 251 336 251 336 260 327 c 0,4,5
 269 317 269 317 281 313 c 0,6,7
 293 308 293 308 307 308 c 256,8,9
 321 308 321 308 333 313 c 256,10,11
 345 318 345 318 355 328 c 0,12,13
 365 337 365 337 370 349 c 256,14,15
 375 361 375 361 375 375 c 0,16,17
 375 388 375 388 370 400 c 256,18,19
 365 412 365 412 355 423 c 0,20,21
 345 432 345 432 333 437 c 0,22,23
 321 443 321 443 307 443 c 256,24,25
 293 443 293 443 282 437 c 0,26,27
 270 432 270 432 260 423 c 0,28,29
 251 412 251 412 246 400 c 256,30,31
 241 388 241 388 241 375 c 0,0,1
308 680 m 256,32,33
 343 680 343 680 370 661 c 0,34,35
 396 642 396 642 413 604 c 0,36,37
 431 566 431 566 440 508 c 0,38,39
 448 450 448 450 448 372 c 0,40,41
 448 295 448 295 440 237 c 0,42,43
 431 179 431 179 413 141 c 0,44,45
 396 103 396 103 370 84 c 0,46,47
 343 65 343 65 308 65 c 256,48,49
 273 65 273 65 246 84 c 0,50,51
 220 103 220 103 203 141 c 0,52,53
 185 179 185 179 177 237 c 0,54,55
 168 295 168 295 168 372 c 0,56,57
 168 450 168 450 177 508 c 0,58,59
 185 566 185 566 203 604 c 0,60,61
 220 642 220 642 246 661 c 0,62,63
 273 680 273 680 308 680 c 256,32,33
308 760 m 0,64,65
 248 760 248 760 203 735 c 0,66,67
 158 711 158 711 128 662 c 0,68,69
 97 613 97 613 82 541 c 256,70,71
 67 469 67 469 67 373 c 0,72,73
 67 278 67 278 82 206 c 0,74,75
 97 133 97 133 128 85 c 0,76,77
 158 35 158 35 203 11 c 0,78,79
 248 -14 248 -14 308 -14 c 256,80,81
 368 -14 368 -14 413 11 c 0,82,83
 458 35 458 35 488 85 c 0,84,85
 519 133 519 133 535 206 c 0,86,87
 550 278 550 278 550 373 c 0,88,89
 550 469 550 469 535 541 c 0,90,91
 519 614 519 614 488 663 c 0,92,93
 458 712 458 712 413 736 c 0,94,95
 368 761 368 761 308 760 c 0,64,65
EndSplineSet
EndChar

StartChar: one
Encoding: 49 49 20
Width: 616
Flags: W
LayerCount: 2
Fore
SplineSet
135 84 m 1,0,1
 135 63 135 63 135 0 c 1,2,3
 238 0 238 0 547 0 c 1,4,5
 547 21 547 21 547 84 c 1,6,7
 508 84 508 84 392 84 c 1,8,9
 392 249 392 249 392 744 c 1,10,11
 367 744 367 744 291 744 c 1,12,13
 244 722 244 722 104 655 c 1,14,15
 104 631 104 631 104 558 c 1,16,17
 151 581 151 581 292 648 c 1,18,19
 292 507 292 507 292 84 c 1,20,21
 253 84 253 84 135 84 c 1,0,1
EndSplineSet
EndChar

StartChar: two
Encoding: 50 50 21
Width: 616
Flags: W
LayerCount: 2
Fore
SplineSet
187 85 m 1,0,1
 241 142 241 142 281 185 c 0,2,3
 322 228 322 228 348 257 c 0,4,5
 375 286 375 286 395 308 c 0,6,7
 416 330 416 330 430 347 c 0,8,9
 455 376 455 376 473 402 c 0,10,11
 491 429 491 429 502 453 c 256,12,13
 513 477 513 477 519 501 c 0,14,15
 524 525 524 525 524 549 c 0,16,17
 524 596 524 596 508 634 c 0,18,19
 491 672 491 672 457 701 c 0,20,21
 424 731 424 731 380 745 c 0,22,23
 336 760 336 760 281 760 c 0,24,25
 257 760 257 760 232 757 c 0,26,27
 208 754 208 754 183 748 c 0,28,29
 158 741 158 741 133 732 c 0,30,31
 107 723 107 723 82 711 c 1,32,33
 82 677 82 677 82 608 c 1,34,35
 110 625 110 625 136 638 c 0,36,37
 163 650 163 650 188 659 c 0,38,39
 213 667 213 667 237 671 c 256,40,41
 261 675 261 675 284 675 c 0,42,43
 315 675 315 675 341 666 c 0,44,45
 366 657 366 657 384 640 c 0,46,47
 402 622 402 622 412 597 c 0,48,49
 421 573 421 573 421 541 c 0,50,51
 421 522 421 522 417 502 c 0,52,53
 412 483 412 483 404 464 c 0,54,55
 395 445 395 445 378 421 c 0,56,57
 361 396 361 396 336 365 c 0,58,59
 323 350 323 350 298 323 c 0,60,61
 274 296 274 296 240 259 c 0,62,63
 204 221 204 221 163 178 c 0,64,65
 122 134 122 134 76 85 c 1,66,67
 76 57 76 57 76 0 c 1,68,69
 189 0 189 0 529 0 c 1,70,71
 529 21 529 21 529 85 c 1,72,73
 444 85 444 85 187 85 c 1,0,1
EndSplineSet
EndChar

StartChar: three
Encoding: 51 51 22
Width: 616
Flags: W
LayerCount: 2
Fore
SplineSet
388 400 m 1,0,1
 421 408 421 408 445 422 c 0,2,3
 470 437 470 437 488 457 c 0,4,5
 505 478 505 478 513 504 c 0,6,7
 522 529 522 529 522 560 c 0,8,9
 522 605 522 605 506 641 c 0,10,11
 489 678 489 678 456 705 c 0,12,13
 424 732 424 732 380 746 c 0,14,15
 337 760 337 760 283 760 c 0,16,17
 264 760 264 760 243 758 c 256,18,19
 222 756 222 756 199 752 c 0,20,21
 175 748 175 748 148 742 c 256,22,23
 121 736 121 736 91 728 c 1,24,25
 91 697 91 697 91 635 c 1,26,27
 117 645 117 645 142 652 c 0,28,29
 167 660 167 660 191 665 c 0,30,31
 214 670 214 670 237 672 c 0,32,33
 260 675 260 675 283 675 c 0,34,35
 316 675 316 675 342 667 c 0,36,37
 367 659 367 659 385 644 c 256,38,39
 403 629 403 629 413 607 c 0,40,41
 422 584 422 584 422 556 c 0,42,43
 422 529 422 529 412 507 c 0,44,45
 402 486 402 486 383 471 c 0,46,47
 363 456 363 456 336 448 c 256,48,49
 309 440 309 440 275 440 c 0,50,51
 249 440 249 440 197 440 c 1,52,53
 197 420 197 420 197 357 c 1,54,55
 217 357 217 357 275 357 c 0,56,57
 312 357 312 357 342 348 c 0,58,59
 372 338 372 338 395 319 c 0,60,61
 417 300 417 300 428 274 c 0,62,63
 440 248 440 248 440 216 c 0,64,65
 440 181 440 181 428 154 c 0,66,67
 417 127 417 127 395 108 c 0,68,69
 372 89 372 89 341 80 c 0,70,71
 309 71 309 71 268 71 c 0,72,73
 243 71 243 71 218 74 c 0,74,75
 194 77 194 77 169 84 c 0,76,77
 144 90 144 90 119 100 c 0,78,79
 94 109 94 109 68 123 c 1,80,81
 68 90 68 90 68 23 c 1,82,83
 94 14 94 14 120 7 c 0,84,85
 146 -1 146 -1 173 -5 c 0,86,87
 200 -10 200 -10 226 -12 c 0,88,89
 253 -15 253 -15 279 -15 c 0,90,91
 340 -15 340 -15 388 0 c 256,92,93
 436 15 436 15 470 44 c 0,94,95
 505 73 505 73 522 114 c 0,96,97
 540 154 540 154 540 206 c 0,98,99
 540 243 540 243 530 274 c 256,100,101
 520 305 520 305 500 330 c 0,102,103
 481 355 481 355 453 372 c 0,104,105
 425 390 425 390 388 400 c 1,0,1
EndSplineSet
EndChar

StartChar: four
Encoding: 52 52 23
Width: 616
Flags: W
LayerCount: 2
Fore
SplineSet
368 655 m 1,0,1
 368 556 368 556 368 260 c 1,2,3
 309 260 309 260 132 260 c 1,4,5
 191 359 191 359 368 655 c 1,0,1
351 747 m 1,6,7
 276 628 276 628 51 273 c 1,8,9
 51 250 51 250 51 178 c 1,10,11
 130 178 130 178 368 178 c 1,12,13
 368 133 368 133 368 0 c 1,14,15
 393 0 393 0 468 0 c 1,16,17
 468 44 468 44 468 178 c 1,18,19
 493 178 493 178 568 178 c 1,20,21
 568 198 568 198 568 260 c 1,22,23
 543 260 543 260 468 260 c 1,24,25
 468 382 468 382 468 747 c 1,26,27
 439 747 439 747 351 747 c 1,6,7
EndSplineSet
EndChar

StartChar: five
Encoding: 53 53 24
Width: 616
Flags: W
LayerCount: 2
Fore
SplineSet
104 747 m 1,0,1
 104 653 104 653 104 372 c 1,2,3
 121 381 121 381 139 387 c 0,4,5
 158 393 158 393 177 398 c 0,6,7
 196 402 196 402 216 405 c 0,8,9
 236 407 236 407 256 407 c 0,10,11
 298 407 298 407 330 396 c 0,12,13
 363 385 363 385 386 363 c 256,14,15
 409 341 409 341 421 309 c 0,16,17
 433 278 433 278 433 239 c 0,18,19
 433 198 433 198 421 167 c 0,20,21
 410 135 410 135 388 114 c 0,22,23
 365 91 365 91 333 80 c 0,24,25
 301 70 301 70 259 70 c 0,26,27
 235 70 235 70 211 73 c 256,28,29
 187 76 187 76 164 82 c 256,30,31
 141 88 141 88 118 97 c 0,32,33
 94 106 94 106 72 119 c 1,34,35
 72 85 72 85 72 16 c 1,36,37
 91 8 91 8 113 2 c 256,38,39
 135 -4 135 -4 160 -8 c 0,40,41
 184 -12 184 -12 211 -14 c 256,42,43
 238 -16 238 -16 268 -16 c 0,44,45
 330 -16 330 -16 379 1 c 0,46,47
 427 18 427 18 463 52 c 256,48,49
 499 86 499 86 517 133 c 0,50,51
 535 179 535 179 535 239 c 0,52,53
 535 297 535 297 517 343 c 0,54,55
 500 390 500 390 467 424 c 0,56,57
 432 458 432 458 386 475 c 256,58,59
 340 492 340 492 283 492 c 0,60,61
 271 492 271 492 260 491 c 256,62,63
 249 490 249 490 239 488 c 0,64,65
 228 487 228 487 217 484 c 256,66,67
 206 481 206 481 196 477 c 1,68,69
 196 538 196 538 196 660 c 1,70,71
 267 660 267 660 481 660 c 1,72,73
 481 682 481 682 481 746 c 1,74,75
 387 746 387 746 104 747 c 1,0,1
EndSplineSet
EndChar

StartChar: six
Encoding: 54 54 25
Width: 616
Flags: W
LayerCount: 2
Fore
SplineSet
496 730 m 1,0,1
 478 737 478 737 460 743 c 0,2,3
 442 748 442 748 424 752 c 0,4,5
 405 756 405 756 387 758 c 0,6,7
 368 760 368 760 350 760 c 0,8,9
 281 760 281 760 228 735 c 256,10,11
 175 710 175 710 139 660 c 0,12,13
 103 611 103 611 85 539 c 256,14,15
 67 467 67 467 67 372 c 0,16,17
 67 272 67 272 82 199 c 0,18,19
 97 125 97 125 127 79 c 0,20,21
 157 32 157 32 205 9 c 0,22,23
 252 -15 252 -15 317 -15 c 0,24,25
 373 -15 373 -15 415 2 c 0,26,27
 458 19 458 19 489 52 c 0,28,29
 519 85 519 85 535 132 c 0,30,31
 550 179 550 179 550 240 c 0,32,33
 550 300 550 300 535 347 c 256,34,35
 520 394 520 394 491 427 c 0,36,37
 461 460 461 460 419 477 c 0,38,39
 378 493 378 493 324 493 c 0,40,41
 296 493 296 493 271 487 c 0,42,43
 247 480 247 480 226 467 c 0,44,45
 205 453 205 453 188 434 c 0,46,47
 172 415 172 415 160 390 c 1,48,49
 160 460 160 460 172 513 c 0,50,51
 184 567 184 567 209 603 c 256,52,53
 234 639 234 639 270 657 c 0,54,55
 307 675 307 675 355 675 c 0,56,57
 374 675 374 675 392 672 c 0,58,59
 410 670 410 670 428 665 c 256,60,61
 446 660 446 660 463 653 c 256,62,63
 480 646 480 646 496 637 c 1,64,65
 496 668 496 668 496 730 c 1,0,1
316 415 m 256,66,67
 349 415 349 415 374 403 c 0,68,69
 399 392 399 392 416 371 c 0,70,71
 433 348 433 348 442 316 c 0,72,73
 451 283 451 283 451 240 c 0,74,75
 451 196 451 196 442 163 c 0,76,77
 433 131 433 131 416 108 c 0,78,79
 399 86 399 86 374 75 c 256,80,81
 349 64 349 64 316 64 c 256,82,83
 283 64 283 64 258 76 c 0,84,85
 232 88 232 88 214 111 c 0,86,87
 195 134 195 134 186 166 c 256,88,89
 177 198 177 198 177 240 c 0,90,91
 177 280 177 280 186 313 c 0,92,93
 195 345 195 345 214 368 c 0,94,95
 232 391 232 391 258 403 c 0,96,97
 283 415 283 415 316 415 c 256,66,67
EndSplineSet
EndChar

StartChar: seven
Encoding: 55 55 26
Width: 616
Flags: W
LayerCount: 2
Fore
SplineSet
69 747 m 1,0,1
 69 725 69 725 69 661 c 1,2,3
 159 661 159 661 427 661 c 1,4,5
 362 496 362 496 167 0 c 1,6,7
 193 0 193 0 272 0 c 1,8,9
 339 176 339 176 540 704 c 0,10,11
 540 714 540 714 540 747 c 1,12,13
 422 747 422 747 69 747 c 1,0,1
EndSplineSet
EndChar

StartChar: eight
Encoding: 56 56 27
Width: 616
Flags: W
LayerCount: 2
Fore
SplineSet
308 355 m 0,0,1
 341 355 341 355 367 345 c 256,2,3
 393 335 393 335 412 316 c 256,4,5
 431 297 431 297 440 271 c 0,6,7
 449 244 449 244 449 210 c 0,8,9
 449 175 449 175 440 148 c 256,10,11
 431 121 431 121 412 102 c 0,12,13
 394 83 394 83 368 74 c 0,14,15
 342 64 342 64 308 64 c 0,16,17
 275 64 275 64 249 74 c 0,18,19
 223 83 223 83 204 103 c 0,20,21
 185 122 185 122 176 149 c 0,22,23
 167 175 167 175 167 210 c 0,24,25
 167 244 167 244 176 271 c 256,26,27
 185 298 185 298 204 316 c 0,28,29
 222 335 222 335 248 345 c 256,30,31
 274 355 274 355 308 355 c 0,0,1
220 396 m 1,32,33
 182 388 182 388 154 371 c 0,34,35
 125 355 125 355 105 329 c 0,36,37
 85 304 85 304 75 272 c 0,38,39
 65 239 65 239 65 200 c 0,40,41
 65 149 65 149 81 110 c 0,42,43
 97 70 97 70 129 42 c 0,44,45
 162 13 162 13 206 -1 c 0,46,47
 251 -15 251 -15 308 -15 c 256,48,49
 365 -15 365 -15 410 0 c 0,50,51
 454 14 454 14 487 43 c 0,52,53
 519 71 519 71 535 110 c 0,54,55
 551 150 551 150 551 200 c 0,56,57
 551 240 551 240 541 273 c 0,58,59
 531 305 531 305 511 330 c 256,60,61
 491 355 491 355 463 371 c 0,62,63
 434 388 434 388 396 396 c 1,64,65
 429 405 429 405 454 420 c 256,66,67
 479 435 479 435 497 458 c 0,68,69
 515 480 515 480 524 508 c 0,70,71
 533 535 533 535 533 567 c 0,72,73
 533 611 533 611 518 646 c 256,74,75
 503 681 503 681 473 708 c 0,76,77
 443 734 443 734 401 747 c 0,78,79
 360 760 360 760 308 760 c 256,80,81
 256 760 256 760 215 747 c 256,82,83
 174 734 174 734 144 708 c 0,84,85
 113 681 113 681 98 646 c 256,86,87
 83 611 83 611 83 567 c 0,88,89
 83 535 83 535 92 508 c 0,90,91
 101 480 101 480 119 458 c 0,92,93
 137 435 137 435 162 420 c 0,94,95
 188 405 188 405 220 396 c 1,32,33
184 557 m 256,96,97
 184 587 184 587 191 610 c 0,98,99
 199 633 199 633 216 649 c 0,100,101
 231 666 231 666 254 674 c 0,102,103
 278 682 278 682 308 682 c 0,104,105
 339 682 339 682 362 674 c 256,106,107
 385 666 385 666 401 650 c 256,108,109
 417 634 417 634 425 611 c 0,110,111
 433 587 433 587 433 557 c 256,112,113
 433 527 433 527 425 504 c 256,114,115
 417 481 417 481 401 465 c 0,116,117
 385 450 385 450 362 442 c 0,118,119
 338 434 338 434 308 434 c 256,120,121
 278 434 278 434 254 442 c 0,122,123
 231 450 231 450 216 465 c 0,124,125
 199 481 199 481 191 504 c 0,126,127
 184 527 184 527 184 557 c 256,96,97
EndSplineSet
EndChar

StartChar: nine
Encoding: 57 57 28
Width: 616
Flags: W
LayerCount: 2
Fore
SplineSet
298 331 m 0,0,1
 264 331 264 331 239 342 c 0,2,3
 213 353 213 353 196 375 c 0,4,5
 180 397 180 397 171 430 c 0,6,7
 163 462 163 462 163 506 c 0,8,9
 163 549 163 549 171 582 c 0,10,11
 180 614 180 614 197 636 c 0,12,13
 214 659 214 659 239 670 c 256,14,15
 264 681 264 681 298 681 c 0,16,17
 330 681 330 681 355 669 c 0,18,19
 381 658 381 658 399 635 c 0,20,21
 417 611 417 611 427 579 c 0,22,23
 436 547 436 547 436 506 c 256,24,25
 436 465 436 465 427 433 c 0,26,27
 417 401 417 401 399 377 c 0,28,29
 381 354 381 354 355 343 c 0,30,31
 330 331 330 331 298 331 c 0,0,1
118 16 m 1,32,33
 135 8 135 8 153 2 c 0,34,35
 171 -3 171 -3 189 -7 c 0,36,37
 208 -11 208 -11 226 -13 c 0,38,39
 245 -15 245 -15 263 -15 c 0,40,41
 332 -15 332 -15 385 10 c 256,42,43
 438 35 438 35 474 84 c 0,44,45
 510 134 510 134 529 206 c 0,46,47
 547 278 547 278 547 372 c 0,48,49
 547 473 547 473 532 546 c 0,50,51
 517 620 517 620 487 667 c 0,52,53
 456 713 456 713 409 737 c 0,54,55
 361 761 361 761 296 761 c 0,56,57
 241 761 241 761 197 744 c 0,58,59
 154 727 154 727 124 694 c 256,60,61
 94 661 94 661 79 615 c 0,62,63
 64 568 64 568 64 508 c 0,64,65
 64 447 64 447 78 400 c 0,66,67
 93 353 93 353 123 320 c 0,68,69
 152 286 152 286 194 270 c 0,70,71
 236 253 236 253 290 253 c 0,72,73
 317 253 317 253 342 259 c 0,74,75
 366 266 366 266 388 280 c 0,76,77
 409 293 409 293 425 312 c 256,78,79
 441 331 441 331 453 357 c 1,80,81
 453 286 453 286 441 233 c 256,82,83
 429 180 429 180 404 144 c 256,84,85
 379 108 379 108 343 90 c 256,86,87
 307 72 307 72 259 72 c 0,88,89
 239 72 239 72 221 74 c 256,90,91
 203 76 203 76 185 81 c 256,92,93
 167 86 167 86 150 93 c 0,94,95
 134 100 134 100 118 109 c 1,96,97
 118 78 118 78 118 16 c 1,32,33
EndSplineSet
EndChar

StartChar: colon
Encoding: 58 58 29
Width: 616
Flags: W
LayerCount: 2
Fore
SplineSet
215 560 m 1,0,1
 215 514 215 514 215 379 c 1,2,3
 254 379 254 379 371 379 c 1,4,5
 371 424 371 424 371 560 c 1,6,7
 332 560 332 560 215 560 c 1,0,1
215 182 m 1,8,9
 215 137 215 137 215 0 c 1,10,11
 254 0 254 0 371 0 c 1,12,13
 371 46 371 46 371 182 c 1,14,15
 332 182 332 182 215 182 c 1,8,9
EndSplineSet
EndChar

StartChar: semicolon
Encoding: 59 59 30
Width: 616
Flags: W
LayerCount: 2
Fore
SplineSet
221 180 m 1,0,1
 221 147 221 147 221 48 c 1,2,3
 209 0 209 0 172 -143 c 1,4,5
 198 -143 198 -143 279 -143 c 1,6,7
 303 -95 303 -95 377 48 c 1,8,9
 377 81 377 81 377 180 c 1,10,11
 338 180 338 180 221 180 c 1,0,1
215 560 m 1,12,13
 215 514 215 514 215 379 c 1,14,15
 254 379 254 379 371 379 c 1,16,17
 371 424 371 424 371 560 c 1,18,19
 332 560 332 560 215 560 c 1,12,13
EndSplineSet
EndChar

StartChar: less
Encoding: 60 60 31
Width: 616
Flags: W
LayerCount: 2
Fore
SplineSet
572 480 m 1,0,1
 572 503 572 503 572 572 c 1,2,3
 440 519 440 519 44 363 c 1,4,5
 44 342 44 342 44 280 c 1,6,7
 176 227 176 227 572 71 c 1,8,9
 572 93 572 93 572 162 c 1,10,11
 466 202 466 202 148 320 c 1,12,13
 254 360 254 360 572 480 c 1,0,1
EndSplineSet
EndChar

StartChar: equal
Encoding: 61 61 32
Width: 616
Flags: W
LayerCount: 2
Fore
SplineSet
44 250 m 1,0,1
 44 229 44 229 44 165 c 1,2,3
 176 165 176 165 572 165 c 1,4,5
 572 187 572 187 572 250 c 1,6,7
 440 250 440 250 44 250 c 1,0,1
44 485 m 1,8,9
 44 464 44 464 44 401 c 1,10,11
 176 401 176 401 572 401 c 1,12,13
 572 422 572 422 572 485 c 1,14,15
 440 485 440 485 44 485 c 1,8,9
EndSplineSet
EndChar

StartChar: greater
Encoding: 62 62 33
Width: 616
Flags: W
LayerCount: 2
Fore
SplineSet
44 480 m 1,0,1
 150 440 150 440 469 320 c 1,2,3
 363 281 363 281 44 162 c 1,4,5
 44 139 44 139 44 71 c 1,6,7
 176 123 176 123 572 280 c 1,8,9
 572 300 572 300 572 363 c 1,10,11
 440 415 440 415 44 572 c 1,12,13
 44 549 44 549 44 480 c 1,0,1
EndSplineSet
EndChar

StartChar: question
Encoding: 63 63 34
Width: 616
Flags: W
LayerCount: 2
Fore
SplineSet
342 200 m 1,0,1
 342 216 342 216 342 262 c 0,2,3
 342 268 342 268 342 285 c 0,4,5
 342 300 342 300 344 313 c 0,6,7
 347 327 347 327 352 337 c 0,8,9
 356 348 356 348 367 361 c 256,10,11
 378 374 378 374 396 391 c 0,12,13
 410 405 410 405 440 434 c 0,14,15
 463 457 463 457 479 476 c 0,16,17
 495 496 495 496 503 512 c 0,18,19
 511 529 511 529 516 547 c 0,20,21
 520 564 520 564 520 584 c 0,22,23
 520 624 520 624 506 656 c 256,24,25
 492 688 492 688 464 712 c 0,26,27
 437 736 437 736 400 748 c 256,28,29
 363 760 363 760 316 760 c 0,30,31
 290 760 290 760 265 756 c 0,32,33
 240 753 240 753 216 746 c 256,34,35
 192 739 192 739 169 728 c 0,36,37
 145 718 145 718 122 704 c 1,38,39
 122 672 122 672 122 609 c 1,40,41
 146 626 146 626 170 639 c 0,42,43
 193 652 193 652 216 660 c 0,44,45
 238 669 238 669 259 674 c 0,46,47
 279 678 279 678 299 678 c 0,48,49
 326 678 326 678 348 671 c 0,50,51
 369 664 369 664 386 651 c 0,52,53
 402 637 402 637 411 619 c 0,54,55
 419 601 419 601 419 579 c 0,56,57
 419 566 419 566 416 554 c 0,58,59
 413 543 413 543 407 532 c 256,60,61
 401 521 401 521 390 508 c 0,62,63
 380 495 380 495 364 480 c 0,64,65
 349 466 349 466 320 436 c 0,66,67
 299 415 299 415 284 397 c 0,68,69
 270 378 270 378 262 360 c 0,70,71
 255 343 255 343 251 323 c 0,72,73
 247 302 247 302 247 277 c 256,74,75
 247 252 247 252 247 200 c 1,76,77
 271 200 271 200 342 200 c 1,0,1
244 127 m 1,78,79
 244 95 244 95 244 0 c 1,80,81
 269 0 269 0 345 0 c 1,82,83
 345 32 345 32 345 127 c 1,84,85
 320 127 320 127 244 127 c 1,78,79
EndSplineSet
EndChar

StartChar: at
Encoding: 64 64 35
Width: 616
Flags: W
LayerCount: 2
Fore
SplineSet
519 272 m 0,0,1
 519 240 519 240 511 214 c 256,2,3
 503 188 503 188 487 168 c 0,4,5
 471 149 471 149 449 139 c 0,6,7
 428 130 428 130 401 130 c 256,8,9
 374 130 374 130 353 139 c 0,10,11
 332 149 332 149 316 168 c 0,12,13
 299 188 299 188 291 214 c 0,14,15
 284 240 284 240 284 272 c 0,16,17
 284 305 284 305 291 330 c 0,18,19
 299 356 299 356 316 376 c 0,20,21
 332 395 332 395 353 405 c 256,22,23
 374 415 374 415 401 415 c 256,24,25
 428 415 428 415 449 405 c 0,26,27
 471 395 471 395 487 376 c 0,28,29
 503 356 503 356 511 330 c 0,30,31
 519 305 519 305 519 272 c 0,0,1
589 68 m 1,32,33
 589 164 589 164 589 452 c 0,34,35
 589 508 589 508 573 553 c 0,36,37
 558 598 558 598 527 631 c 0,38,39
 495 664 495 664 453 681 c 0,40,41
 412 697 412 697 360 697 c 0,42,43
 280 697 280 697 217 669 c 0,44,45
 154 640 154 640 108 582 c 0,46,47
 60 524 60 524 37 447 c 0,48,49
 13 369 13 369 13 272 c 0,50,51
 13 173 13 173 39 94 c 0,52,53
 66 15 66 15 118 -43 c 0,54,55
 171 -101 171 -101 240 -131 c 0,56,57
 309 -160 309 -160 396 -161 c 0,58,59
 411 -163 411 -163 431 -164 c 0,60,61
 450 -165 450 -165 476 -165 c 256,62,63
 502 -165 502 -165 522 -165 c 0,64,65
 543 -164 543 -164 560 -163 c 1,66,67
 560 -139 560 -139 560 -91 c 1,68,69
 541 -92 541 -92 519 -92 c 256,70,71
 497 -92 497 -92 472 -92 c 0,72,73
 448 -92 448 -92 429 -92 c 0,74,75
 410 -91 410 -91 396 -88 c 0,76,77
 324 -88 324 -88 268 -64 c 0,78,79
 212 -39 212 -39 171 9 c 0,80,81
 129 58 129 58 109 124 c 0,82,83
 88 189 88 189 88 272 c 0,84,85
 88 353 88 353 106 418 c 256,86,87
 124 483 124 483 160 531 c 0,88,89
 197 579 197 579 246 603 c 256,90,91
 295 627 295 627 356 627 c 0,92,93
 392 627 392 627 422 615 c 0,94,95
 451 603 451 603 473 579 c 256,96,97
 495 555 495 555 506 524 c 0,98,99
 517 492 517 492 517 453 c 0,100,101
 517 443 517 443 517 422 c 1,102,103
 508 437 508 437 495 449 c 256,104,105
 482 461 482 461 465 470 c 0,106,107
 449 479 449 479 430 483 c 0,108,109
 412 488 412 488 392 488 c 0,110,111
 351 488 351 488 318 472 c 0,112,113
 285 457 285 457 259 427 c 0,114,115
 232 397 232 397 219 358 c 256,116,117
 206 319 206 319 206 272 c 256,118,119
 206 225 206 225 219 187 c 0,120,121
 232 148 232 148 259 118 c 0,122,123
 285 88 285 88 318 73 c 0,124,125
 351 57 351 57 392 57 c 0,126,127
 412 57 412 57 431 62 c 0,128,129
 449 66 449 66 465 75 c 0,130,131
 482 83 482 83 495 95 c 256,132,133
 508 107 508 107 517 123 c 1,134,135
 517 105 517 105 517 68 c 1,136,137
 535 68 535 68 589 68 c 1,32,33
EndSplineSet
EndChar

StartChar: A
Encoding: 65 65 36
Width: 616
Flags: W
LayerCount: 2
Fore
SplineSet
308 657 m 1,0,1
 335 562 335 562 415 276 c 1,2,3
 361 276 361 276 201 276 c 1,4,5
 228 371 228 371 308 657 c 1,0,1
247 747 m 1,6,7
 190 560 190 560 19 0 c 1,8,9
 45 0 45 0 123 0 c 1,10,11
 137 49 137 49 177 195 c 1,12,13
 242 195 242 195 439 195 c 1,14,15
 452 146 452 146 493 0 c 1,16,17
 520 0 520 0 598 0 c 1,18,19
 541 187 541 187 369 747 c 1,20,21
 339 747 339 747 247 747 c 1,6,7
EndSplineSet
EndChar

StartChar: B
Encoding: 66 66 37
Width: 616
Flags: W
LayerCount: 2
Fore
SplineSet
184 376 m 1,0,1
 214 376 214 376 304 376 c 0,2,3
 346 376 346 376 377 368 c 0,4,5
 408 359 408 359 428 342 c 0,6,7
 447 325 447 325 457 293 c 256,8,9
 467 261 467 261 467 215 c 0,10,11
 467 180 467 180 458 154 c 0,12,13
 448 129 448 129 429 113 c 0,14,15
 411 98 411 98 379 91 c 0,16,17
 348 83 348 83 304 83 c 0,18,19
 264 83 264 83 184 83 c 1,20,21
 184 156 184 156 184 376 c 1,0,1
184 664 m 1,22,23
 214 664 214 664 302 664 c 0,24,25
 339 664 339 664 365 657 c 0,26,27
 392 651 392 651 408 639 c 0,28,29
 424 626 424 626 432 605 c 0,30,31
 440 585 440 585 440 557 c 0,32,33
 440 536 440 536 432 518 c 256,34,35
 424 500 424 500 408 487 c 0,36,37
 391 472 391 472 365 465 c 0,38,39
 338 459 338 459 302 459 c 0,40,41
 263 459 263 459 184 459 c 1,42,43
 184 510 184 510 184 664 c 1,22,23
83 747 m 1,44,45
 83 723 83 723 83 653 c 0,46,47
 83 490 83 490 83 0 c 1,48,49
 138 0 138 0 304 0 c 0,50,51
 370 0 370 0 419 13 c 0,52,53
 469 26 469 26 502 52 c 0,54,55
 535 77 535 77 552 116 c 0,56,57
 568 154 568 154 568 205 c 0,58,59
 568 255 568 255 558 293 c 256,60,61
 548 331 548 331 527 356 c 0,62,63
 506 382 506 382 477 398 c 256,64,65
 448 414 448 414 412 420 c 1,66,67
 444 424 444 424 469 437 c 0,68,69
 493 449 493 449 509 469 c 0,70,71
 526 489 526 489 534 511 c 0,72,73
 543 533 543 533 543 557 c 0,74,75
 543 602 543 602 527 637 c 256,76,77
 511 672 511 672 480 697 c 256,78,79
 449 722 449 722 405 734 c 0,80,81
 361 747 361 747 304 747 c 0,82,83
 230 747 230 747 83 747 c 1,44,45
EndSplineSet
EndChar

StartChar: C
Encoding: 67 67 38
Width: 616
Flags: W
LayerCount: 2
Fore
SplineSet
536 27 m 1,0,1
 536 52 536 52 536 130 c 1,2,3
 518 115 518 115 498 103 c 256,4,5
 478 91 478 91 457 84 c 0,6,7
 436 75 436 75 415 71 c 0,8,9
 393 68 393 68 372 68 c 0,10,11
 322 68 322 68 285 86 c 0,12,13
 248 105 248 105 224 144 c 0,14,15
 199 181 199 181 187 239 c 0,16,17
 175 296 175 296 175 372 c 0,18,19
 175 449 175 449 187 506 c 0,20,21
 199 564 199 564 224 602 c 0,22,23
 248 640 248 640 285 659 c 256,24,25
 322 678 322 678 372 678 c 0,26,27
 393 678 393 678 414 674 c 0,28,29
 436 670 436 670 457 662 c 256,30,31
 478 654 478 654 498 642 c 0,32,33
 518 631 518 631 536 616 c 1,34,35
 536 650 536 650 536 719 c 1,36,37
 517 729 517 729 497 737 c 0,38,39
 478 744 478 744 457 749 c 0,40,41
 437 755 437 755 416 757 c 0,42,43
 394 760 394 760 372 760 c 0,44,45
 300 760 300 760 244 734 c 0,46,47
 189 708 189 708 149 657 c 256,48,49
 109 606 109 606 89 535 c 256,50,51
 69 464 69 464 69 372 c 256,52,53
 69 280 69 280 89 209 c 256,54,55
 109 138 109 138 148 87 c 0,56,57
 188 36 188 36 244 11 c 0,58,59
 300 -15 300 -15 372 -15 c 0,60,61
 394 -15 394 -15 416 -12 c 0,62,63
 437 -10 437 -10 457 -4 c 0,64,65
 478 1 478 1 497 8 c 0,66,67
 517 16 517 16 536 27 c 1,0,1
EndSplineSet
EndChar

StartChar: D
Encoding: 68 68 39
Width: 616
Flags: W
LayerCount: 2
Fore
SplineSet
218 83 m 0,0,1
 206 83 206 83 170 83 c 1,2,3
 170 228 170 228 170 664 c 1,4,5
 182 664 182 664 218 664 c 0,6,7
 282 664 282 664 326 648 c 0,8,9
 371 632 371 632 396 600 c 0,10,11
 421 569 421 569 434 512 c 256,12,13
 447 455 447 455 447 372 c 0,14,15
 447 290 447 290 434 234 c 0,16,17
 421 177 421 177 396 145 c 0,18,19
 370 114 370 114 326 99 c 0,20,21
 282 83 282 83 218 83 c 0,0,1
220 747 m 0,22,23
 182 747 182 747 68 747 c 1,24,25
 68 700 68 700 68 560 c 256,26,27
 68 420 68 420 68 0 c 1,28,29
 106 0 106 0 220 0 c 0,30,31
 306 0 306 0 368 23 c 0,32,33
 431 45 431 45 472 91 c 0,34,35
 513 136 513 136 533 206 c 0,36,37
 553 277 553 277 553 372 c 0,38,39
 553 468 553 468 533 539 c 256,40,41
 513 610 513 610 472 656 c 0,42,43
 431 701 431 701 369 724 c 256,44,45
 307 747 307 747 220 747 c 0,22,23
EndSplineSet
EndChar

StartChar: E
Encoding: 69 69 40
Width: 616
Flags: W
LayerCount: 2
Fore
SplineSet
99 747 m 1,0,1
 99 723 99 723 99 653 c 0,2,3
 99 490 99 490 99 0 c 1,4,5
 212 0 212 0 551 0 c 1,6,7
 551 21 551 21 551 85 c 1,8,9
 463 85 463 85 200 85 c 1,10,11
 200 158 200 158 200 376 c 1,12,13
 281 376 281 376 527 376 c 1,14,15
 527 397 527 397 527 460 c 1,16,17
 445 460 445 460 200 460 c 1,18,19
 200 511 200 511 200 661 c 1,20,21
 285 661 285 661 541 661 c 1,22,23
 541 683 541 683 541 747 c 1,24,25
 431 747 431 747 99 747 c 1,0,1
EndSplineSet
EndChar

StartChar: F
Encoding: 70 70 41
Width: 616
Flags: W
LayerCount: 2
Fore
SplineSet
116 747 m 1,0,1
 116 723 116 723 116 653 c 0,2,3
 116 490 116 490 116 0 c 1,4,5
 142 0 142 0 218 0 c 1,6,7
 218 94 218 94 218 376 c 1,8,9
 295 376 295 376 524 376 c 1,10,11
 524 398 524 398 524 461 c 1,12,13
 448 461 448 461 218 461 c 1,14,15
 218 511 218 511 218 661 c 1,16,17
 302 661 302 661 556 661 c 1,18,19
 556 683 556 683 556 747 c 1,20,21
 446 747 446 747 116 747 c 1,0,1
EndSplineSet
EndChar

StartChar: G
Encoding: 71 71 42
Width: 616
Flags: W
LayerCount: 2
Fore
SplineSet
552 61 m 1,0,1
 552 142 552 142 552 383 c 1,2,3
 501 383 501 383 347 383 c 1,4,5
 347 362 347 362 347 300 c 1,6,7
 374 300 374 300 456 300 c 1,8,9
 456 250 456 250 456 100 c 1,10,11
 445 91 445 91 434 85 c 0,12,13
 422 79 422 79 409 75 c 0,14,15
 397 71 397 71 382 69 c 0,16,17
 367 68 367 68 351 68 c 0,18,19
 301 68 301 68 265 86 c 0,20,21
 228 105 228 105 204 142 c 0,22,23
 180 180 180 180 168 237 c 256,24,25
 156 294 156 294 156 372 c 0,26,27
 156 449 156 449 169 506 c 0,28,29
 181 563 181 563 205 601 c 0,30,31
 230 640 230 640 267 659 c 256,32,33
 304 678 304 678 353 678 c 0,34,35
 377 678 377 678 400 673 c 0,36,37
 422 669 422 669 444 660 c 0,38,39
 465 651 465 651 485 636 c 0,40,41
 506 622 506 622 527 603 c 1,42,43
 527 638 527 638 527 707 c 1,44,45
 506 720 506 720 486 730 c 0,46,47
 465 740 465 740 444 747 c 0,48,49
 422 753 422 753 399 757 c 0,50,51
 377 760 377 760 353 760 c 0,52,53
 282 760 282 760 227 734 c 0,54,55
 171 708 171 708 131 657 c 256,56,57
 91 606 91 606 71 535 c 256,58,59
 51 464 51 464 51 372 c 0,60,61
 51 281 51 281 71 209 c 0,62,63
 90 138 90 138 130 87 c 0,64,65
 169 36 169 36 225 11 c 0,66,67
 280 -15 280 -15 351 -15 c 0,68,69
 380 -15 380 -15 408 -10 c 0,70,71
 435 -5 435 -5 460 4 c 0,72,73
 486 14 486 14 509 28 c 0,74,75
 532 43 532 43 552 61 c 1,0,1
EndSplineSet
EndChar

StartChar: H
Encoding: 72 72 43
Width: 616
Flags: W
LayerCount: 2
Fore
SplineSet
68 747 m 1,0,1
 68 700 68 700 68 560 c 256,2,3
 68 420 68 420 68 0 c 1,4,5
 94 0 94 0 170 0 c 1,6,7
 170 94 170 94 170 376 c 1,8,9
 239 376 239 376 447 376 c 1,10,11
 447 282 447 282 447 0 c 1,12,13
 472 0 472 0 548 0 c 1,14,15
 548 187 548 187 548 747 c 1,16,17
 523 747 523 747 447 747 c 1,18,19
 447 675 447 675 447 460 c 1,20,21
 377 460 377 460 170 460 c 1,22,23
 170 532 170 532 170 747 c 1,24,25
 145 747 145 747 68 747 c 1,0,1
EndSplineSet
EndChar

StartChar: I
Encoding: 73 73 44
Width: 616
Flags: W
LayerCount: 2
Fore
SplineSet
100 747 m 1,0,1
 100 725 100 725 100 661 c 1,2,3
 140 661 140 661 257 661 c 1,4,5
 257 517 257 517 257 85 c 1,6,7
 218 85 218 85 100 85 c 1,8,9
 100 64 100 64 100 0 c 1,10,11
 204 0 204 0 515 0 c 1,12,13
 515 21 515 21 515 85 c 1,14,15
 476 85 476 85 359 85 c 1,16,17
 359 229 359 229 359 661 c 1,18,19
 398 661 398 661 515 661 c 1,20,21
 515 683 515 683 515 747 c 1,22,23
 411 747 411 747 100 747 c 1,0,1
EndSplineSet
EndChar

StartChar: J
Encoding: 74 74 45
Width: 616
Flags: W
LayerCount: 2
Fore
SplineSet
55 31 m 1,0,1
 80 19 80 19 105 10 c 0,2,3
 129 2 129 2 153 -4 c 0,4,5
 177 -9 177 -9 201 -12 c 256,6,7
 225 -15 225 -15 249 -15 c 0,8,9
 311 -15 311 -15 355 0 c 256,10,11
 399 15 399 15 425 44 c 256,12,13
 451 73 451 73 465 123 c 0,14,15
 478 173 478 173 478 244 c 0,16,17
 478 411 478 411 478 747 c 1,18,19
 405 747 405 747 187 747 c 1,20,21
 187 725 187 725 187 661 c 1,22,23
 234 661 234 661 377 661 c 1,24,25
 377 557 377 557 377 244 c 0,26,27
 377 193 377 193 370 158 c 256,28,29
 363 123 363 123 348 104 c 0,30,31
 334 86 334 86 309 77 c 0,32,33
 285 68 285 68 249 68 c 0,34,35
 223 68 223 68 198 72 c 0,36,37
 172 77 172 77 148 88 c 0,38,39
 124 98 124 98 101 113 c 0,40,41
 77 128 77 128 55 148 c 1,42,43
 55 109 55 109 55 31 c 1,0,1
EndSplineSet
EndChar

StartChar: K
Encoding: 75 75 46
Width: 616
Flags: W
LayerCount: 2
Fore
SplineSet
68 747 m 1,0,1
 68 700 68 700 68 560 c 256,2,3
 68 420 68 420 68 0 c 1,4,5
 94 0 94 0 170 0 c 1,6,7
 170 73 170 73 170 292 c 1,8,9
 189 313 189 313 247 374 c 1,10,11
 308 281 308 281 491 0 c 1,12,13
 521 0 521 0 612 0 c 1,14,15
 538 110 538 110 313 441 c 1,16,17
 386 518 386 518 604 747 c 1,18,19
 574 747 574 747 485 747 c 1,20,21
 407 664 407 664 170 415 c 1,22,23
 170 498 170 498 170 747 c 1,24,25
 145 747 145 747 68 747 c 1,0,1
EndSplineSet
EndChar

StartChar: L
Encoding: 76 76 47
Width: 616
Flags: W
LayerCount: 2
Fore
SplineSet
108 747 m 1,0,1
 108 723 108 723 108 653 c 0,2,3
 108 490 108 490 108 0 c 1,4,5
 223 0 223 0 569 0 c 1,6,7
 569 21 569 21 569 85 c 1,8,9
 479 85 479 85 209 85 c 1,10,11
 209 250 209 250 209 747 c 1,12,13
 184 747 184 747 108 747 c 1,0,1
EndSplineSet
EndChar

StartChar: M
Encoding: 77 77 48
Width: 616
Flags: W
LayerCount: 2
Fore
SplineSet
18 744 m 1,0,1
 18 704 18 704 18 583 c 0,2,3
 18 437 18 437 18 0 c 1,4,5
 41 0 41 0 111 0 c 1,6,7
 111 164 111 164 111 657 c 1,8,9
 144 559 144 559 244 265 c 1,10,11
 264 265 264 265 321 265 c 1,12,13
 354 363 354 363 454 657 c 1,14,15
 454 493 454 493 454 0 c 1,16,17
 477 0 477 0 548 0 c 1,18,19
 548 186 548 186 548 744 c 1,20,21
 514 744 514 744 412 744 c 1,22,23
 379 649 379 649 282 365 c 1,24,25
 250 460 250 460 153 744 c 1,26,27
 119 744 119 744 18 744 c 1,0,1
EndSplineSet
EndChar

StartChar: N
Encoding: 78 78 49
Width: 616
Flags: W
LayerCount: 2
Fore
SplineSet
9 744 m 1,0,1
 9 697 9 697 9 557 c 0,2,3
 9 418 9 418 9 0 c 1,4,5
 36 0 36 0 117 0 c 1,6,7
 117 153 117 153 117 612 c 1,8,9
 190 459 190 459 409 0 c 1,10,11
 443 0 443 0 547 0 c 1,12,13
 547 186 547 186 547 744 c 1,14,15
 520 744 520 744 440 744 c 1,16,17
 440 591 440 591 440 132 c 1,18,19
 367 285 367 285 148 744 c 1,20,21
 113 744 113 744 9 744 c 1,0,1
EndSplineSet
EndChar

StartChar: O
Encoding: 79 79 50
Width: 616
Flags: W
LayerCount: 2
Fore
SplineSet
452 372 m 0,0,1
 452 290 452 290 444 231 c 0,2,3
 435 173 435 173 419 137 c 0,4,5
 402 102 402 102 374 85 c 256,6,7
 346 68 346 68 308 68 c 256,8,9
 270 68 270 68 242 85 c 0,10,11
 214 103 214 103 197 138 c 0,12,13
 181 173 181 173 172 232 c 0,14,15
 164 290 164 290 164 372 c 0,16,17
 164 455 164 455 172 513 c 0,18,19
 181 572 181 572 197 608 c 0,20,21
 214 643 214 643 242 660 c 0,22,23
 270 678 270 678 308 678 c 256,24,25
 346 678 346 678 374 660 c 0,26,27
 402 643 402 643 419 608 c 0,28,29
 435 572 435 572 444 513 c 0,30,31
 452 455 452 455 452 372 c 0,0,1
558 372 m 0,32,33
 558 470 558 470 542 543 c 0,34,35
 527 616 527 616 496 664 c 256,36,37
 465 712 465 712 418 736 c 256,38,39
 371 760 371 760 308 760 c 256,40,41
 245 760 245 760 198 736 c 256,42,43
 151 712 151 712 120 664 c 256,44,45
 89 616 89 616 74 543 c 256,46,47
 59 470 59 470 59 372 c 256,48,49
 59 274 59 274 74 201 c 0,50,51
 89 129 89 129 120 81 c 256,52,53
 151 33 151 33 198 9 c 256,54,55
 245 -15 245 -15 308 -15 c 256,56,57
 371 -15 371 -15 418 9 c 256,58,59
 465 33 465 33 496 81 c 256,60,61
 527 129 527 129 542 202 c 0,62,63
 558 275 558 275 558 372 c 0,32,33
EndSplineSet
EndChar

StartChar: P
Encoding: 80 80 51
Width: 616
Flags: W
LayerCount: 2
Fore
SplineSet
200 664 m 1,0,1
 229 664 229 664 316 664 c 0,2,3
 352 664 352 664 379 654 c 0,4,5
 406 645 406 645 426 627 c 0,6,7
 445 608 445 608 455 582 c 0,8,9
 465 557 465 557 465 524 c 0,10,11
 465 490 465 490 455 464 c 256,12,13
 445 438 445 438 425 420 c 0,14,15
 406 401 406 401 379 392 c 0,16,17
 351 383 351 383 316 383 c 0,18,19
 277 383 277 383 200 383 c 1,20,21
 200 453 200 453 200 664 c 1,0,1
99 747 m 1,22,23
 99 723 99 723 99 653 c 0,24,25
 99 490 99 490 99 0 c 1,26,27
 124 0 124 0 200 0 c 1,28,29
 200 75 200 75 200 300 c 1,30,31
 229 300 229 300 316 300 c 0,32,33
 379 300 379 300 426 314 c 0,34,35
 474 328 474 328 506 356 c 0,36,37
 538 385 538 385 554 426 c 0,38,39
 571 468 571 468 571 524 c 0,40,41
 571 578 571 578 554 620 c 0,42,43
 538 661 538 661 506 689 c 0,44,45
 474 718 474 718 426 732 c 0,46,47
 379 747 379 747 316 747 c 0,48,49
 244 747 244 747 99 747 c 1,22,23
EndSplineSet
EndChar

StartChar: Q
Encoding: 81 81 52
Width: 616
Flags: W
LayerCount: 2
Fore
SplineSet
328 -13 m 0,0,1
 357 -44 357 -44 444 -135 c 1,2,3
 463 -123 463 -123 520 -85 c 1,4,5
 495 -61 495 -61 420 10 c 1,6,7
 454 28 454 28 480 59 c 0,8,9
 506 91 506 91 524 136 c 0,10,11
 541 181 541 181 549 240 c 0,12,13
 558 299 558 299 558 372 c 0,14,15
 558 470 558 470 542 543 c 0,16,17
 527 616 527 616 496 664 c 256,18,19
 465 712 465 712 418 736 c 256,20,21
 371 760 371 760 308 760 c 256,22,23
 245 760 245 760 198 736 c 256,24,25
 151 712 151 712 120 664 c 256,26,27
 89 616 89 616 74 543 c 256,28,29
 59 470 59 470 59 372 c 0,30,31
 59 275 59 275 74 202 c 256,32,33
 89 129 89 129 120 81 c 256,34,35
 151 33 151 33 198 9 c 0,36,37
 244 -15 244 -15 307 -15 c 0,38,39
 309 -15 309 -15 311 -14 c 0,40,41
 314 -14 314 -14 317 -14 c 256,42,43
 320 -14 320 -14 323 -14 c 0,44,45
 326 -13 326 -13 328 -13 c 0,0,1
452 372 m 0,46,47
 452 290 452 290 444 231 c 0,48,49
 435 173 435 173 419 137 c 0,50,51
 402 102 402 102 374 85 c 256,52,53
 346 68 346 68 308 68 c 256,54,55
 270 68 270 68 242 85 c 0,56,57
 214 103 214 103 197 138 c 0,58,59
 181 173 181 173 172 232 c 0,60,61
 164 290 164 290 164 372 c 0,62,63
 164 455 164 455 172 513 c 0,64,65
 181 572 181 572 197 608 c 0,66,67
 214 643 214 643 242 660 c 0,68,69
 270 678 270 678 308 678 c 256,70,71
 346 678 346 678 374 660 c 0,72,73
 402 643 402 643 419 608 c 0,74,75
 435 572 435 572 444 513 c 0,76,77
 452 455 452 455 452 372 c 0,46,47
EndSplineSet
EndChar

StartChar: R
Encoding: 82 82 53
Width: 616
Flags: W
LayerCount: 2
Fore
SplineSet
380 352 m 1,0,1
 416 358 416 358 445 372 c 0,2,3
 473 386 473 386 493 409 c 0,4,5
 513 433 513 433 523 463 c 256,6,7
 533 493 533 493 533 531 c 0,8,9
 533 583 533 583 517 623 c 256,10,11
 501 663 501 663 468 691 c 256,12,13
 435 719 435 719 388 733 c 256,14,15
 341 747 341 747 280 747 c 0,16,17
 210 747 210 747 72 747 c 1,18,19
 72 700 72 700 72 560 c 256,20,21
 72 420 72 420 72 0 c 1,22,23
 97 0 97 0 173 0 c 1,24,25
 173 79 173 79 173 316 c 1,26,27
 197 316 197 316 269 316 c 0,28,29
 294 316 294 316 314 310 c 256,30,31
 334 304 334 304 349 292 c 0,32,33
 365 280 365 280 382 254 c 0,34,35
 399 229 399 229 419 188 c 0,36,37
 449 126 449 126 508 0 c 1,38,39
 535 0 535 0 616 0 c 1,40,41
 591 51 591 51 515 204 c 0,42,43
 494 245 494 245 477 273 c 256,44,45
 460 301 460 301 447 315 c 0,46,47
 433 328 433 328 416 338 c 0,48,49
 400 347 400 347 380 352 c 1,0,1
173 664 m 1,50,51
 200 664 200 664 280 664 c 0,52,53
 316 664 316 664 343 655 c 256,54,55
 370 646 370 646 389 629 c 256,56,57
 408 612 408 612 417 587 c 0,58,59
 427 563 427 563 427 531 c 0,60,61
 427 497 427 497 418 472 c 256,62,63
 409 447 409 447 392 431 c 0,64,65
 374 414 374 414 347 407 c 0,66,67
 320 399 320 399 284 399 c 0,68,69
 247 399 247 399 173 399 c 1,70,71
 173 465 173 465 173 664 c 1,50,51
EndSplineSet
EndChar

StartChar: S
Encoding: 83 83 54
Width: 616
Flags: W
LayerCount: 2
Fore
SplineSet
506 721 m 1,0,1
 480 731 480 731 455 738 c 256,2,3
 430 745 430 745 406 750 c 256,4,5
 382 755 382 755 359 757 c 0,6,7
 337 760 337 760 316 760 c 0,8,9
 260 760 260 760 215 745 c 256,10,11
 170 730 170 730 136 700 c 0,12,13
 103 670 103 670 86 629 c 0,14,15
 69 589 69 589 69 540 c 0,16,17
 69 499 69 499 81 468 c 0,18,19
 93 436 93 436 116 412 c 0,20,21
 140 388 140 388 178 370 c 0,22,23
 215 353 215 353 268 341 c 0,24,25
 285 337 285 337 321 328 c 0,26,27
 357 320 357 320 383 309 c 0,28,29
 408 298 408 298 423 283 c 256,30,31
 438 268 438 268 445 247 c 0,32,33
 452 225 452 225 452 197 c 0,34,35
 452 167 452 167 442 143 c 0,36,37
 431 119 431 119 410 101 c 0,38,39
 389 84 389 84 359 76 c 256,40,41
 329 68 329 68 291 68 c 0,42,43
 265 68 265 68 239 72 c 256,44,45
 213 76 213 76 188 84 c 0,46,47
 162 93 162 93 135 106 c 0,48,49
 107 120 107 120 79 138 c 1,50,51
 79 102 79 102 79 31 c 1,52,53
 106 19 106 19 132 11 c 0,54,55
 159 2 159 2 185 -4 c 0,56,57
 212 -9 212 -9 238 -12 c 0,58,59
 265 -15 265 -15 291 -15 c 0,60,61
 354 -15 354 -15 402 -1 c 256,62,63
 450 13 450 13 483 41 c 256,64,65
 516 69 516 69 532 110 c 0,66,67
 549 151 549 151 549 204 c 0,68,69
 549 249 549 249 537 285 c 256,70,71
 525 321 525 321 501 347 c 256,72,73
 477 373 477 373 439 392 c 0,74,75
 400 412 400 412 348 424 c 0,76,77
 330 428 330 428 295 436 c 0,78,79
 257 445 257 445 232 456 c 0,80,81
 207 466 207 466 193 480 c 0,82,83
 180 492 180 492 173 511 c 256,84,85
 166 530 166 530 166 555 c 0,86,87
 166 583 166 583 176 606 c 0,88,89
 187 628 187 628 208 644 c 0,90,91
 228 661 228 661 256 670 c 0,92,93
 284 678 284 678 320 678 c 0,94,95
 344 678 344 678 367 674 c 256,96,97
 390 670 390 670 413 663 c 0,98,99
 437 655 437 655 460 644 c 256,100,101
 483 633 483 633 506 619 c 1,102,103
 506 653 506 653 506 721 c 1,0,1
EndSplineSet
EndChar

StartChar: T
Encoding: 84 84 55
Width: 616
Flags: W
LayerCount: 2
Fore
SplineSet
24 747 m 1,0,1
 24 741 24 741 24 725 c 256,2,3
 24 709 24 709 24 661 c 1,4,5
 82 661 82 661 258 661 c 1,6,7
 258 496 258 496 258 0 c 1,8,9
 283 0 283 0 360 0 c 1,10,11
 360 165 360 165 360 661 c 1,12,13
 418 661 418 661 593 661 c 1,14,15
 593 683 593 683 593 747 c 1,16,17
 451 747 451 747 24 747 c 1,0,1
EndSplineSet
EndChar

StartChar: U
Encoding: 85 85 56
Width: 616
Flags: W
LayerCount: 2
Fore
SplineSet
73 287 m 0,0,1
 73 230 73 230 77 189 c 0,2,3
 81 149 81 149 88 124 c 256,4,5
 95 99 95 99 107 79 c 0,6,7
 120 59 120 59 137 44 c 256,8,9
 154 29 154 29 173 18 c 256,10,11
 192 7 192 7 213 0 c 256,12,13
 234 -7 234 -7 258 -11 c 256,14,15
 282 -15 282 -15 308 -15 c 256,16,17
 334 -15 334 -15 358 -11 c 256,18,19
 382 -7 382 -7 404 0 c 0,20,21
 425 7 425 7 443 18 c 256,22,23
 461 29 461 29 478 44 c 0,24,25
 495 60 495 60 508 80 c 0,26,27
 520 100 520 100 527 124 c 256,28,29
 534 148 534 148 538 188 c 0,30,31
 542 229 542 229 542 287 c 0,32,33
 542 440 542 440 542 747 c 1,34,35
 516 747 516 747 440 747 c 1,36,37
 440 620 440 620 440 240 c 0,38,39
 440 213 440 213 440 193 c 0,40,41
 439 174 439 174 438 163 c 0,42,43
 436 151 436 151 433 142 c 0,44,45
 431 133 431 133 427 127 c 0,46,47
 419 112 419 112 407 101 c 256,48,49
 395 90 395 90 380 83 c 0,50,51
 365 75 365 75 347 71 c 0,52,53
 329 68 329 68 307 68 c 256,54,55
 285 68 285 68 267 71 c 0,56,57
 249 75 249 75 234 83 c 0,58,59
 219 90 219 90 207 101 c 256,60,61
 195 112 195 112 187 127 c 0,62,63
 184 133 184 133 181 142 c 256,64,65
 178 151 178 151 177 163 c 0,66,67
 175 174 175 174 175 194 c 0,68,69
 174 213 174 213 174 240 c 0,70,71
 174 409 174 409 174 747 c 1,72,73
 149 747 149 747 72 747 c 1,74,75
 72 734 72 734 72 696 c 0,76,77
 72 594 72 594 73 287 c 0,0,1
EndSplineSet
EndChar

StartChar: V
Encoding: 86 86 57
Width: 616
Flags: W
LayerCount: 2
Fore
SplineSet
308 85 m 1,0,1
 264 250 264 250 133 747 c 1,2,3
 107 747 107 747 28 747 c 1,4,5
 83 560 83 560 247 0 c 1,6,7
 278 0 278 0 369 0 c 1,8,9
 424 187 424 187 588 747 c 1,10,11
 562 747 562 747 484 747 c 1,12,13
 440 581 440 581 308 85 c 1,0,1
EndSplineSet
EndChar

StartChar: W
Encoding: 87 87 58
Width: 616
Flags: W
LayerCount: 2
Fore
SplineSet
0 747 m 1,0,1
 28 560 28 560 112 0 c 1,2,3
 135 0 135 0 207 0 c 1,4,5
 232 111 232 111 308 444 c 1,6,7
 333 333 333 333 409 0 c 1,8,9
 433 0 433 0 505 0 c 1,10,11
 533 187 533 187 616 747 c 1,12,13
 592 747 592 747 518 747 c 1,14,15
 500 595 500 595 447 140 c 1,16,17
 425 240 425 240 360 541 c 1,18,19
 334 541 334 541 255 541 c 1,20,21
 234 441 234 441 170 140 c 1,22,23
 152 292 152 292 99 747 c 1,24,25
 74 747 74 747 0 747 c 1,0,1
EndSplineSet
EndChar

StartChar: X
Encoding: 88 88 59
Width: 616
Flags: W
LayerCount: 2
Fore
SplineSet
43 747 m 1,0,1
 97 659 97 659 259 396 c 1,2,3
 197 297 197 297 9 0 c 1,4,5
 36 0 36 0 118 0 c 1,6,7
 167 80 167 80 316 321 c 1,8,9
 361 241 361 241 499 0 c 1,10,11
 526 0 526 0 607 0 c 1,12,13
 547 99 547 99 368 396 c 1,14,15
 423 483 423 483 591 747 c 1,16,17
 564 747 564 747 483 747 c 1,18,19
 441 676 441 676 316 465 c 1,20,21
 275 535 275 535 152 747 c 1,22,23
 124 747 124 747 43 747 c 1,0,1
EndSplineSet
EndChar

StartChar: Y
Encoding: 89 89 60
Width: 616
Flags: W
LayerCount: 2
Fore
SplineSet
19 747 m 1,0,1
 78 644 78 644 257 335 c 1,2,3
 257 251 257 251 257 0 c 1,4,5
 282 0 282 0 359 0 c 1,6,7
 359 84 359 84 359 335 c 1,8,9
 418 438 418 438 598 747 c 1,10,11
 571 747 571 747 489 747 c 1,12,13
 444 664 444 664 308 417 c 1,14,15
 263 499 263 499 126 747 c 1,16,17
 99 747 99 747 19 747 c 1,0,1
EndSplineSet
EndChar

StartChar: Z
Encoding: 90 90 61
Width: 616
Flags: W
LayerCount: 2
Fore
SplineSet
89 747 m 1,0,1
 89 725 89 725 89 661 c 1,2,3
 181 661 181 661 457 661 c 1,4,5
 363 515 363 515 78 77 c 1,6,7
 78 58 78 58 78 0 c 1,8,9
 205 0 205 0 584 0 c 1,10,11
 584 21 584 21 584 85 c 1,12,13
 484 85 484 85 184 85 c 1,14,15
 281 231 281 231 573 669 c 1,16,17
 573 689 573 689 573 747 c 1,18,19
 452 747 452 747 89 747 c 1,0,1
EndSplineSet
EndChar

StartChar: bracketleft
Encoding: 91 91 62
Width: 616
Flags: W
LayerCount: 2
Fore
SplineSet
281 828 m 1,0,1
 281 600 281 600 281 -85 c 1,2,3
 334 -85 334 -85 493 -85 c 1,4,5
 493 -67 493 -67 493 -13 c 1,6,7
 463 -13 463 -13 373 -13 c 1,8,9
 373 179 373 179 373 756 c 1,10,11
 403 756 403 756 493 756 c 1,12,13
 493 774 493 774 493 828 c 1,14,15
 440 828 440 828 281 828 c 1,0,1
EndSplineSet
EndChar

StartChar: backslash
Encoding: 92 92 63
Width: 616
Flags: W
LayerCount: 2
Fore
SplineSet
147 747 m 1,0,1
 123 747 123 747 51 747 c 1,2,3
 149 536 149 536 444 -95 c 1,4,5
 468 -95 468 -95 540 -95 c 1,6,7
 441 115 441 115 147 747 c 1,0,1
EndSplineSet
EndChar

StartChar: bracketright
Encoding: 93 93 64
Width: 616
Flags: W
LayerCount: 2
Fore
SplineSet
360 828 m 1,0,1
 307 828 307 828 148 828 c 1,2,3
 148 810 148 810 148 756 c 1,4,5
 178 756 178 756 268 756 c 1,6,7
 268 564 268 564 268 -13 c 1,8,9
 238 -13 238 -13 148 -13 c 1,10,11
 148 -31 148 -31 148 -85 c 1,12,13
 201 -85 201 -85 360 -85 c 1,14,15
 360 143 360 143 360 828 c 1,0,1
EndSplineSet
EndChar

StartChar: asciicircum
Encoding: 94 94 65
Width: 616
Flags: W
LayerCount: 2
Fore
SplineSet
352 744 m 1,0,1
 330 744 330 744 264 744 c 1,2,3
 202 670 202 670 18 446 c 1,4,5
 45 446 45 446 125 447 c 1,6,7
 171 496 171 496 308 643 c 1,8,9
 354 594 354 594 492 447 c 1,10,11
 518 446 518 446 598 446 c 1,12,13
 537 521 537 521 352 744 c 1,0,1
EndSplineSet
EndChar

StartChar: underscore
Encoding: 95 95 66
Width: 616
Flags: W
LayerCount: 2
Fore
SplineSet
612 -95 m 1,0,1
 459 -95 459 -95 0 -95 c 1,2,3
 0 -101 0 -101 0 -121 c 0,4,5
 0 -135 0 -135 0 -180 c 1,6,7
 153 -180 153 -180 612 -180 c 1,8,9
 612 -159 612 -159 612 -95 c 1,0,1
EndSplineSet
EndChar

StartChar: grave
Encoding: 96 96 67
Width: 616
Flags: W
LayerCount: 2
Fore
SplineSet
239 819 m 1,0,1
 214 819 214 819 140 819 c 1,2,3
 180 772 180 772 302 631 c 1,4,5
 321 631 321 631 379 631 c 1,6,7
 344 678 344 678 239 819 c 1,0,1
EndSplineSet
EndChar

StartChar: a
Encoding: 97 97 68
Width: 616
Flags: W
LayerCount: 2
Fore
SplineSet
351 281 m 0,0,1
 373 281 373 281 437 281 c 1,2,3
 437 276 437 276 437 261 c 0,4,5
 437 215 437 215 426 178 c 256,6,7
 415 141 415 141 393 115 c 256,8,9
 371 89 371 89 341 76 c 256,10,11
 311 63 311 63 273 63 c 0,12,13
 246 63 246 63 225 69 c 0,14,15
 204 76 204 76 189 91 c 0,16,17
 174 104 174 104 166 124 c 0,18,19
 159 144 159 144 159 169 c 0,20,21
 159 197 159 197 169 218 c 256,22,23
 179 239 179 239 199 253 c 256,24,25
 219 267 219 267 250 274 c 0,26,27
 280 281 280 281 320 281 c 0,28,29
 331 281 331 281 351 281 c 0,0,1
529 320 m 0,30,31
 529 356 529 356 527 384 c 0,32,33
 525 411 525 411 521 429 c 0,34,35
 517 448 517 448 511 463 c 0,36,37
 504 479 504 479 495 492 c 0,38,39
 479 512 479 512 459 527 c 0,40,41
 439 543 439 543 415 553 c 0,42,43
 390 563 390 563 360 568 c 0,44,45
 331 573 331 573 296 573 c 0,46,47
 274 573 274 573 251 571 c 0,48,49
 228 568 228 568 205 564 c 0,50,51
 182 559 182 559 157 551 c 0,52,53
 133 544 133 544 108 535 c 1,54,55
 108 504 108 504 108 443 c 1,56,57
 130 455 130 455 153 465 c 0,58,59
 177 475 177 475 201 482 c 256,60,61
 225 489 225 489 249 492 c 0,62,63
 272 496 272 496 296 496 c 0,64,65
 333 496 333 496 359 488 c 0,66,67
 386 480 386 480 403 465 c 0,68,69
 419 450 419 450 428 426 c 0,70,71
 437 401 437 401 437 368 c 0,72,73
 437 363 437 363 437 353 c 1,74,75
 406 353 406 353 313 353 c 0,76,77
 253 353 253 353 207 341 c 256,78,79
 161 329 161 329 129 305 c 0,80,81
 98 281 98 281 82 245 c 0,82,83
 67 209 67 209 67 163 c 0,84,85
 67 122 67 122 79 90 c 0,86,87
 92 57 92 57 117 33 c 0,88,89
 143 9 143 9 177 -3 c 256,90,91
 211 -15 211 -15 254 -15 c 0,92,93
 286 -15 286 -15 313 -9 c 256,94,95
 340 -3 340 -3 363 9 c 0,96,97
 385 21 385 21 403 39 c 0,98,99
 422 58 422 58 437 83 c 1,100,101
 437 55 437 55 437 0 c 1,102,103
 460 0 460 0 529 0 c 1,104,105
 529 80 529 80 529 320 c 0,30,31
EndSplineSet
EndChar

StartChar: b
Encoding: 98 98 69
Width: 616
Flags: W
LayerCount: 2
Fore
SplineSet
459 280 m 0,0,1
 459 226 459 226 450 185 c 0,2,3
 442 145 442 145 425 118 c 256,4,5
 408 91 408 91 383 77 c 0,6,7
 357 64 357 64 324 64 c 256,8,9
 291 64 291 64 266 77 c 0,10,11
 240 91 240 91 223 119 c 0,12,13
 206 146 206 146 197 186 c 256,14,15
 188 226 188 226 188 280 c 0,16,17
 188 333 188 333 197 373 c 256,18,19
 206 413 206 413 223 440 c 0,20,21
 240 468 240 468 266 482 c 0,22,23
 291 496 291 496 324 496 c 256,24,25
 357 496 357 496 383 482 c 0,26,27
 408 468 408 468 425 441 c 256,28,29
 442 414 442 414 450 373 c 0,30,31
 459 333 459 333 459 280 c 0,0,1
188 488 m 1,32,33
 188 561 188 561 188 778 c 1,34,35
 165 778 165 778 96 778 c 1,36,37
 96 754 96 754 96 681 c 0,38,39
 96 510 96 510 96 0 c 1,40,41
 119 0 119 0 188 0 c 1,42,43
 188 18 188 18 188 71 c 1,44,45
 200 50 200 50 215 34 c 256,46,47
 230 18 230 18 249 7 c 0,48,49
 269 -4 269 -4 291 -9 c 0,50,51
 313 -15 313 -15 338 -15 c 0,52,53
 389 -15 389 -15 428 5 c 0,54,55
 468 25 468 25 497 64 c 0,56,57
 527 103 527 103 541 158 c 0,58,59
 556 212 556 212 556 281 c 256,60,61
 556 350 556 350 541 403 c 0,62,63
 527 457 527 457 498 496 c 256,64,65
 469 535 469 535 429 554 c 256,66,67
 389 573 389 573 339 573 c 0,68,69
 313 573 313 573 291 568 c 0,70,71
 269 562 269 562 249 552 c 0,72,73
 230 540 230 540 214 524 c 0,74,75
 199 509 199 509 188 488 c 1,32,33
EndSplineSet
EndChar

StartChar: c
Encoding: 99 99 70
Width: 616
Flags: W
LayerCount: 2
Fore
SplineSet
531 28 m 1,0,1
 531 52 531 52 531 124 c 1,2,3
 514 108 514 108 496 97 c 0,4,5
 479 86 479 86 460 78 c 0,6,7
 441 71 441 71 419 67 c 0,8,9
 398 64 398 64 374 64 c 0,10,11
 331 64 331 64 298 77 c 0,12,13
 264 91 264 91 241 120 c 0,14,15
 218 148 218 148 206 188 c 0,16,17
 195 228 195 228 195 280 c 0,18,19
 195 331 195 331 206 371 c 0,20,21
 218 411 218 411 241 440 c 0,22,23
 264 467 264 467 297 481 c 0,24,25
 331 496 331 496 374 496 c 0,26,27
 397 496 397 496 418 492 c 256,28,29
 439 488 439 488 457 481 c 256,30,31
 475 474 475 474 494 462 c 0,32,33
 512 450 512 450 531 434 c 1,34,35
 531 466 531 466 531 531 c 1,36,37
 511 541 511 541 492 550 c 0,38,39
 472 558 472 558 453 563 c 256,40,41
 434 568 434 568 414 571 c 0,42,43
 394 573 394 573 374 573 c 0,44,45
 309 573 309 573 258 554 c 256,46,47
 207 535 207 535 171 496 c 0,48,49
 134 457 134 457 116 403 c 0,50,51
 97 349 97 349 97 280 c 256,52,53
 97 211 97 211 116 157 c 0,54,55
 134 103 134 103 171 64 c 0,56,57
 207 25 207 25 258 5 c 256,58,59
 309 -15 309 -15 374 -15 c 0,60,61
 394 -15 394 -15 414 -12 c 0,62,63
 435 -9 435 -9 454 -4 c 0,64,65
 474 1 474 1 493 9 c 0,66,67
 512 18 512 18 531 28 c 1,0,1
EndSplineSet
EndChar

StartChar: d
Encoding: 100 100 71
Width: 616
Flags: W
LayerCount: 2
Fore
SplineSet
429 488 m 1,0,1
 418 509 418 509 403 525 c 256,2,3
 388 541 388 541 368 552 c 0,4,5
 349 562 349 562 327 568 c 0,6,7
 305 573 305 573 280 573 c 0,8,9
 229 573 229 573 189 554 c 256,10,11
 149 535 149 535 120 496 c 256,12,13
 91 457 91 457 76 403 c 0,14,15
 61 350 61 350 61 281 c 256,16,17
 61 212 61 212 76 158 c 0,18,19
 90 103 90 103 120 64 c 0,20,21
 149 25 149 25 189 5 c 256,22,23
 229 -15 229 -15 280 -15 c 0,24,25
 304 -15 304 -15 326 -9 c 0,26,27
 348 -4 348 -4 368 7 c 0,28,29
 387 18 387 18 402 34 c 256,30,31
 417 50 417 50 429 71 c 1,32,33
 429 47 429 47 429 0 c 1,34,35
 452 0 452 0 521 0 c 1,36,37
 521 194 521 194 521 778 c 1,38,39
 498 778 498 778 429 778 c 1,40,41
 429 706 429 706 429 488 c 1,0,1
159 280 m 0,42,43
 159 333 159 333 167 373 c 0,44,45
 175 414 175 414 192 441 c 256,46,47
 209 468 209 468 235 482 c 256,48,49
 261 496 261 496 294 496 c 256,50,51
 327 496 327 496 352 482 c 0,52,53
 378 468 378 468 395 440 c 0,54,55
 412 413 412 413 421 373 c 256,56,57
 430 333 430 333 430 280 c 0,58,59
 430 226 430 226 421 186 c 256,60,61
 412 146 412 146 395 119 c 0,62,63
 378 91 378 91 352 77 c 0,64,65
 327 64 327 64 294 64 c 256,66,67
 261 64 261 64 235 77 c 0,68,69
 210 91 210 91 193 118 c 256,70,71
 176 145 176 145 168 185 c 0,72,73
 160 226 160 226 159 280 c 0,42,43
EndSplineSet
EndChar

StartChar: e
Encoding: 101 101 72
Width: 616
Flags: W
LayerCount: 2
Fore
SplineSet
560 326 m 0,0,1
 558 377 558 377 541 421 c 0,2,3
 525 465 525 465 494 501 c 256,4,5
 463 537 463 537 421 555 c 256,6,7
 379 573 379 573 325 573 c 0,8,9
 265 573 265 573 217 553 c 256,10,11
 169 533 169 533 133 493 c 256,12,13
 97 453 97 453 79 400 c 0,14,15
 61 346 61 346 61 280 c 0,16,17
 61 211 61 211 80 157 c 0,18,19
 98 103 98 103 135 64 c 256,20,21
 172 25 172 25 223 5 c 256,22,23
 274 -15 274 -15 339 -15 c 0,24,25
 361 -15 361 -15 385 -12 c 256,26,27
 409 -9 409 -9 433 -4 c 256,28,29
 457 1 457 1 483 9 c 0,30,31
 508 18 508 18 535 28 c 1,32,33
 535 59 535 59 535 120 c 1,34,35
 507 106 507 106 482 95 c 0,36,37
 456 84 456 84 432 77 c 256,38,39
 408 70 408 70 385 67 c 256,40,41
 362 64 362 64 340 64 c 0,42,43
 296 64 296 64 263 76 c 0,44,45
 229 88 229 88 205 113 c 256,46,47
 181 138 181 138 170 179 c 0,48,49
 159 221 159 221 161 278 c 0,50,51
 161 279 161 279 161 281 c 1,52,53
 261 281 261 281 560 281 c 1,54,55
 560 292 560 292 560 326 c 0,0,1
468 353 m 1,56,57
 392 353 392 353 165 352 c 1,58,59
 167 380 167 380 179 405 c 0,60,61
 190 429 190 429 212 452 c 0,62,63
 233 473 233 473 261 484 c 0,64,65
 288 496 288 496 321 496 c 0,66,67
 355 496 355 496 381 485 c 256,68,69
 407 474 407 474 425 453 c 256,70,71
 443 432 443 432 454 407 c 256,72,73
 465 382 465 382 468 353 c 1,56,57
EndSplineSet
EndChar

StartChar: f
Encoding: 102 102 73
Width: 616
Flags: W
LayerCount: 2
Fore
SplineSet
532 778 m 1,0,1
 504 778 504 778 421 778 c 0,2,3
 376 778 376 778 343 767 c 256,4,5
 310 756 310 756 289 735 c 0,6,7
 268 713 268 713 258 679 c 0,8,9
 247 645 247 645 247 599 c 0,10,11
 247 586 247 586 247 560 c 1,12,13
 210 560 210 560 97 560 c 1,14,15
 97 542 97 542 97 488 c 1,16,17
 135 488 135 488 247 488 c 1,18,19
 247 366 247 366 247 0 c 1,20,21
 270 0 270 0 339 0 c 1,22,23
 339 122 339 122 339 488 c 1,24,25
 387 488 387 488 532 488 c 1,26,27
 532 506 532 506 532 560 c 1,28,29
 483 560 483 560 339 560 c 1,30,31
 339 572 339 572 339 609 c 0,32,33
 339 635 339 635 344 653 c 0,34,35
 348 671 348 671 358 681 c 256,36,37
 368 691 368 691 385 696 c 256,38,39
 402 701 402 701 427 701 c 0,40,41
 462 701 462 701 532 701 c 1,42,43
 532 721 532 721 532 778 c 1,0,1
EndSplineSet
EndChar

StartChar: g
Encoding: 103 103 74
Width: 616
Flags: W
LayerCount: 2
Fore
SplineSet
429 284 m 0,0,1
 429 233 429 233 420 193 c 0,2,3
 412 154 412 154 395 127 c 256,4,5
 378 100 378 100 354 86 c 0,6,7
 329 72 329 72 298 72 c 0,8,9
 264 72 264 72 238 86 c 256,10,11
 212 100 212 100 194 127 c 256,12,13
 176 154 176 154 167 193 c 0,14,15
 159 233 159 233 159 284 c 0,16,17
 159 336 159 336 167 375 c 0,18,19
 176 414 176 414 194 441 c 256,20,21
 212 468 212 468 237 482 c 0,22,23
 263 496 263 496 297 496 c 0,24,25
 329 496 329 496 354 482 c 0,26,27
 378 468 378 468 395 441 c 256,28,29
 412 414 412 414 420 375 c 0,30,31
 429 336 429 336 429 284 c 0,0,1
521 36 m 0,32,33
 521 167 521 167 521 558 c 1,34,35
 498 558 498 558 429 558 c 1,36,37
 429 540 429 540 429 485 c 1,38,39
 417 508 417 508 402 525 c 0,40,41
 387 541 387 541 368 552 c 256,42,43
 349 563 349 563 326 568 c 256,44,45
 303 573 303 573 276 573 c 0,46,47
 227 573 227 573 188 554 c 0,48,49
 149 534 149 534 120 495 c 256,50,51
 91 456 91 456 76 403 c 256,52,53
 61 350 61 350 61 284 c 256,54,55
 61 218 61 218 76 166 c 256,56,57
 91 114 91 114 120 75 c 0,58,59
 149 35 149 35 188 16 c 0,60,61
 227 -4 227 -4 276 -4 c 0,62,63
 303 -4 303 -4 327 2 c 0,64,65
 350 7 350 7 369 19 c 0,66,67
 388 30 388 30 403 48 c 0,68,69
 418 65 418 65 429 89 c 1,70,71
 429 68 429 68 429 27 c 0,72,73
 429 26 429 26 429 23 c 0,74,75
 429 -22 429 -22 420 -54 c 0,76,77
 412 -86 412 -86 395 -106 c 256,78,79
 378 -126 378 -126 351 -136 c 0,80,81
 324 -147 324 -147 287 -147 c 0,82,83
 270 -147 270 -147 251 -144 c 0,84,85
 233 -141 233 -141 213 -136 c 0,86,87
 193 -130 193 -130 171 -122 c 0,88,89
 148 -113 148 -113 124 -101 c 1,90,91
 124 -132 124 -132 124 -192 c 1,92,93
 145 -199 145 -199 165 -204 c 0,94,95
 186 -210 186 -210 207 -213 c 0,96,97
 228 -217 228 -217 248 -218 c 0,98,99
 267 -220 267 -220 287 -220 c 0,100,101
 344 -220 344 -220 388 -204 c 0,102,103
 431 -188 431 -188 461 -155 c 0,104,105
 491 -123 491 -123 506 -75 c 256,106,107
 521 -27 521 -27 521 36 c 0,32,33
EndSplineSet
EndChar

StartChar: h
Encoding: 104 104 75
Width: 616
Flags: W
LayerCount: 2
Fore
SplineSet
525 347 m 0,0,1
 525 404 525 404 515 446 c 0,2,3
 504 489 504 489 483 517 c 256,4,5
 462 545 462 545 430 559 c 256,6,7
 398 573 398 573 356 573 c 0,8,9
 327 573 327 573 302 567 c 256,10,11
 277 561 277 561 256 548 c 0,12,13
 235 536 235 536 218 518 c 256,14,15
 201 500 201 500 189 476 c 1,16,17
 189 577 189 577 189 778 c 1,18,19
 166 778 166 778 97 778 c 1,20,21
 97 754 97 754 97 681 c 0,22,23
 97 510 97 510 97 0 c 1,24,25
 120 0 120 0 189 0 c 1,26,27
 189 79 189 79 189 316 c 0,28,29
 189 359 189 359 198 392 c 256,30,31
 207 425 207 425 224 448 c 0,32,33
 241 470 241 470 266 482 c 0,34,35
 291 493 291 493 324 493 c 0,36,37
 352 493 352 493 372 485 c 0,38,39
 393 476 393 476 407 458 c 0,40,41
 420 440 420 440 426 412 c 0,42,43
 433 384 433 384 433 347 c 0,44,45
 433 231 433 231 433 0 c 1,46,47
 456 0 456 0 525 0 c 1,48,49
 525 87 525 87 525 347 c 0,0,1
EndSplineSet
EndChar

StartChar: i
Encoding: 105 105 76
Width: 616
Flags: W
LayerCount: 2
Fore
SplineSet
158 558 m 1,0,1
 158 540 158 540 158 487 c 1,2,3
 194 487 194 487 301 487 c 1,4,5
 301 383 301 383 301 72 c 1,6,7
 256 72 256 72 119 72 c 1,8,9
 119 54 119 54 119 0 c 1,10,11
 233 0 233 0 576 0 c 1,12,13
 576 18 576 18 576 72 c 1,14,15
 530 72 530 72 393 72 c 1,16,17
 393 193 393 193 393 558 c 1,18,19
 335 558 335 558 158 558 c 1,0,1
301 776 m 1,20,21
 301 747 301 747 301 660 c 1,22,23
 324 660 324 660 393 660 c 1,24,25
 393 689 393 689 393 776 c 1,26,27
 370 776 370 776 301 776 c 1,20,21
EndSplineSet
EndChar

StartChar: j
Encoding: 106 106 77
Width: 616
Flags: W
LayerCount: 2
Fore
SplineSet
300 -10 m 0,0,1
 300 -41 300 -41 294 -65 c 0,2,3
 289 -88 289 -88 277 -104 c 0,4,5
 266 -120 266 -120 249 -127 c 0,6,7
 232 -135 232 -135 210 -135 c 0,8,9
 171 -135 171 -135 93 -135 c 1,10,11
 93 -155 93 -155 93 -213 c 1,12,13
 125 -213 125 -213 220 -213 c 0,14,15
 261 -213 261 -213 293 -200 c 0,16,17
 324 -187 324 -187 347 -160 c 0,18,19
 369 -134 369 -134 381 -96 c 0,20,21
 392 -59 392 -59 392 -10 c 0,22,23
 392 180 392 180 392 560 c 1,24,25
 329 560 329 560 141 560 c 1,26,27
 141 542 141 542 141 488 c 1,28,29
 181 488 181 488 300 488 c 1,30,31
 300 364 300 364 300 -10 c 0,0,1
300 778 m 1,32,33
 300 749 300 749 300 661 c 1,34,35
 323 661 323 661 392 661 c 1,36,37
 392 691 392 691 392 778 c 1,38,39
 369 778 369 778 300 778 c 1,32,33
EndSplineSet
EndChar

StartChar: k
Encoding: 107 107 78
Width: 616
Flags: W
LayerCount: 2
Fore
SplineSet
118 778 m 1,0,1
 118 754 118 754 118 681 c 0,2,3
 118 510 118 510 118 0 c 1,4,5
 142 0 142 0 213 0 c 1,6,7
 213 56 213 56 213 224 c 1,8,9
 230 241 230 241 281 289 c 1,10,11
 333 217 333 217 488 0 c 1,12,13
 517 0 517 0 601 0 c 1,14,15
 537 87 537 87 346 349 c 1,16,17
 401 402 401 402 567 560 c 1,18,19
 539 560 539 560 455 560 c 1,20,21
 394 502 394 502 213 328 c 1,22,23
 213 440 213 440 213 778 c 1,24,25
 189 778 189 778 118 778 c 1,0,1
EndSplineSet
EndChar

StartChar: l
Encoding: 108 108 79
Width: 616
Flags: W
LayerCount: 2
Fore
SplineSet
360 203 m 0,0,1
 360 347 360 347 360 781 c 1,2,3
 300 781 300 781 120 781 c 1,4,5
 120 763 120 763 120 709 c 1,6,7
 157 709 157 709 268 709 c 1,8,9
 268 582 268 582 268 203 c 0,10,11
 268 154 268 154 279 116 c 0,12,13
 290 79 290 79 312 52 c 0,14,15
 335 26 335 26 367 13 c 256,16,17
 399 0 399 0 440 0 c 0,18,19
 479 0 479 0 557 0 c 1,20,21
 557 19 557 19 557 77 c 1,22,23
 530 77 530 77 449 77 c 0,24,25
 427 77 427 77 410 85 c 256,26,27
 393 93 393 93 382 109 c 256,28,29
 371 125 371 125 365 148 c 0,30,31
 360 171 360 171 360 203 c 0,0,1
EndSplineSet
EndChar

StartChar: m
Encoding: 109 109 80
Width: 616
Flags: W
LayerCount: 2
Fore
SplineSet
338 503 m 1,0,1
 331 521 331 521 321 534 c 256,2,3
 311 547 311 547 299 556 c 0,4,5
 286 565 286 565 270 569 c 256,6,7
 254 573 254 573 236 573 c 0,8,9
 220 573 220 573 206 569 c 0,10,11
 191 565 191 565 179 557 c 0,12,13
 167 550 167 550 156 538 c 0,14,15
 146 527 146 527 138 512 c 1,16,17
 138 528 138 528 138 560 c 1,18,19
 117 560 117 560 55 560 c 1,20,21
 55 525 55 525 55 419 c 0,22,23
 55 315 55 315 55 0 c 1,24,25
 75 0 75 0 138 0 c 1,26,27
 138 80 138 80 138 320 c 0,28,29
 138 377 138 377 141 414 c 0,30,31
 145 450 145 450 152 465 c 0,32,33
 159 481 159 481 172 489 c 0,34,35
 185 496 185 496 203 496 c 256,36,37
 221 496 221 496 234 489 c 256,38,39
 247 482 247 482 254 468 c 256,40,41
 261 454 261 454 265 417 c 0,42,43
 268 380 268 380 268 320 c 0,44,45
 268 214 268 214 268 0 c 1,46,47
 289 0 289 0 352 0 c 1,48,49
 352 80 352 80 352 320 c 0,50,51
 352 377 352 377 356 414 c 0,52,53
 359 450 359 450 367 465 c 0,54,55
 374 481 374 481 388 489 c 0,56,57
 402 496 402 496 422 496 c 0,58,59
 439 496 439 496 451 489 c 256,60,61
 463 482 463 482 470 468 c 0,62,63
 477 453 477 453 480 417 c 0,64,65
 484 381 484 381 484 321 c 0,66,67
 484 215 484 215 484 1 c 1,68,69
 505 1 505 1 568 1 c 1,70,71
 568 82 568 82 568 325 c 0,72,73
 568 397 568 397 560 447 c 0,74,75
 553 496 553 496 540 522 c 0,76,77
 526 548 526 548 502 561 c 256,78,79
 478 574 478 574 444 574 c 0,80,81
 426 574 426 574 410 570 c 256,82,83
 394 566 394 566 381 557 c 256,84,85
 368 548 368 548 357 535 c 256,86,87
 346 522 346 522 338 503 c 1,0,1
EndSplineSet
EndChar

StartChar: n
Encoding: 110 110 81
Width: 616
Flags: W
LayerCount: 2
Fore
SplineSet
525 347 m 0,0,1
 525 404 525 404 515 446 c 0,2,3
 504 489 504 489 483 517 c 256,4,5
 462 545 462 545 430 559 c 256,6,7
 398 573 398 573 356 573 c 0,8,9
 327 573 327 573 302 567 c 256,10,11
 277 561 277 561 256 548 c 0,12,13
 235 536 235 536 218 518 c 256,14,15
 201 500 201 500 189 476 c 1,16,17
 189 504 189 504 189 560 c 1,18,19
 166 560 166 560 97 560 c 1,20,21
 97 525 97 525 97 420 c 256,22,23
 97 315 97 315 97 0 c 1,24,25
 120 0 120 0 189 0 c 1,26,27
 189 79 189 79 189 316 c 0,28,29
 189 359 189 359 198 392 c 256,30,31
 207 425 207 425 224 448 c 0,32,33
 241 470 241 470 266 482 c 0,34,35
 291 493 291 493 324 493 c 0,36,37
 352 493 352 493 372 485 c 0,38,39
 393 476 393 476 407 458 c 0,40,41
 420 440 420 440 426 412 c 0,42,43
 433 384 433 384 433 347 c 0,44,45
 433 231 433 231 433 0 c 1,46,47
 456 0 456 0 525 0 c 1,48,49
 525 87 525 87 525 347 c 0,0,1
EndSplineSet
EndChar

StartChar: o
Encoding: 111 111 82
Width: 616
Flags: W
LayerCount: 2
Fore
SplineSet
308 496 m 256,0,1
 343 496 343 496 370 482 c 256,2,3
 397 468 397 468 415 441 c 256,4,5
 433 414 433 414 442 373 c 0,6,7
 451 333 451 333 451 280 c 0,8,9
 451 226 451 226 442 186 c 0,10,11
 433 145 433 145 415 118 c 256,12,13
 397 91 397 91 370 77 c 0,14,15
 343 64 343 64 308 64 c 256,16,17
 273 64 273 64 246 77 c 0,18,19
 220 91 220 91 202 118 c 256,20,21
 184 145 184 145 175 186 c 0,22,23
 166 226 166 226 166 280 c 0,24,25
 166 333 166 333 175 373 c 0,26,27
 184 414 184 414 202 441 c 256,28,29
 220 468 220 468 246 482 c 0,30,31
 273 496 273 496 308 496 c 256,0,1
308 573 m 256,32,33
 250 573 250 573 205 554 c 0,34,35
 161 535 161 535 130 498 c 0,36,37
 99 460 99 460 84 405 c 0,38,39
 68 351 68 351 68 280 c 0,40,41
 68 208 68 208 84 153 c 0,42,43
 99 98 99 98 130 60 c 0,44,45
 161 23 161 23 205 4 c 0,46,47
 250 -15 250 -15 308 -15 c 256,48,49
 366 -15 366 -15 411 4 c 256,50,51
 456 23 456 23 487 60 c 0,52,53
 517 98 517 98 533 153 c 0,54,55
 548 208 548 208 548 280 c 0,56,57
 548 351 548 351 532 405 c 0,58,59
 517 460 517 460 486 498 c 0,60,61
 455 535 455 535 411 554 c 0,62,63
 366 573 366 573 308 573 c 256,32,33
EndSplineSet
EndChar

StartChar: p
Encoding: 112 112 83
Width: 616
Flags: W
LayerCount: 2
Fore
SplineSet
188 71 m 1,0,1
 198 50 198 50 213 34 c 256,2,3
 228 18 228 18 248 7 c 0,4,5
 267 -4 267 -4 289 -9 c 0,6,7
 312 -15 312 -15 337 -15 c 0,8,9
 387 -15 387 -15 427 5 c 0,10,11
 467 24 467 24 496 63 c 256,12,13
 525 102 525 102 539 156 c 0,14,15
 554 209 554 209 554 277 c 0,16,17
 554 347 554 347 539 401 c 0,18,19
 525 456 525 456 496 495 c 256,20,21
 467 534 467 534 427 554 c 0,22,23
 388 573 388 573 337 573 c 0,24,25
 312 573 312 573 290 568 c 0,26,27
 268 562 268 562 248 552 c 0,28,29
 229 541 229 541 214 525 c 256,30,31
 199 509 199 509 188 488 c 1,32,33
 188 512 188 512 188 560 c 1,34,35
 164 560 164 560 95 560 c 1,36,37
 95 536 95 536 95 463 c 0,38,39
 95 294 95 294 95 -213 c 1,40,41
 118 -213 118 -213 188 -213 c 1,42,43
 188 -142 188 -142 188 71 c 1,0,1
457 280 m 0,44,45
 457 226 457 226 449 185 c 0,46,47
 440 145 440 145 424 118 c 0,48,49
 407 91 407 91 382 77 c 0,50,51
 357 64 357 64 324 64 c 0,52,53
 290 64 290 64 265 77 c 0,54,55
 239 91 239 91 222 119 c 0,56,57
 205 146 205 146 196 186 c 0,58,59
 188 226 188 226 188 280 c 0,60,61
 188 333 188 333 196 373 c 0,62,63
 205 413 205 413 222 440 c 0,64,65
 239 468 239 468 265 482 c 0,66,67
 290 496 290 496 324 496 c 0,68,69
 357 496 357 496 382 482 c 256,70,71
 407 468 407 468 424 441 c 0,72,73
 440 414 440 414 449 373 c 0,74,75
 457 333 457 333 457 280 c 0,44,45
EndSplineSet
EndChar

StartChar: q
Encoding: 113 113 84
Width: 616
Flags: W
LayerCount: 2
Fore
SplineSet
166 277 m 0,0,1
 166 331 166 331 174 371 c 0,2,3
 183 412 183 412 200 439 c 0,4,5
 216 466 216 466 242 480 c 0,6,7
 267 493 267 493 300 493 c 256,8,9
 333 493 333 493 358 480 c 0,10,11
 383 466 383 466 400 439 c 0,12,13
 418 411 418 411 426 371 c 0,14,15
 435 331 435 331 435 277 c 0,16,17
 435 224 435 224 426 184 c 0,18,19
 418 143 418 143 400 116 c 0,20,21
 383 89 383 89 358 75 c 256,22,23
 333 61 333 61 300 61 c 256,24,25
 267 61 267 61 242 75 c 0,26,27
 216 89 216 89 200 116 c 0,28,29
 183 143 183 143 174 183 c 0,30,31
 166 224 166 224 166 277 c 0,0,1
435 69 m 1,32,33
 435 -2 435 -2 435 -215 c 1,34,35
 458 -215 458 -215 528 -215 c 1,36,37
 528 -22 528 -22 528 558 c 1,38,39
 504 558 504 558 435 558 c 1,40,41
 435 540 435 540 435 487 c 1,42,43
 423 507 423 507 408 523 c 256,44,45
 393 539 393 539 373 549 c 0,46,47
 354 560 354 560 332 566 c 256,48,49
 310 572 310 572 285 572 c 0,50,51
 235 572 235 572 195 552 c 256,52,53
 155 532 155 532 127 493 c 0,54,55
 97 454 97 454 83 399 c 0,56,57
 68 345 68 345 68 276 c 256,58,59
 68 207 68 207 83 154 c 0,60,61
 97 100 97 100 127 61 c 0,62,63
 156 22 156 22 196 3 c 0,64,65
 235 -16 235 -16 285 -16 c 0,66,67
 311 -16 311 -16 333 -11 c 256,68,69
 355 -6 355 -6 374 5 c 0,70,71
 393 17 393 17 408 33 c 0,72,73
 424 48 424 48 435 69 c 1,32,33
EndSplineSet
EndChar

StartChar: r
Encoding: 114 114 85
Width: 616
Flags: W
LayerCount: 2
Fore
SplineSet
577 444 m 1,0,1
 577 468 577 468 577 539 c 1,2,3
 564 548 564 548 550 554 c 0,4,5
 536 561 536 561 521 565 c 256,6,7
 506 569 506 569 490 571 c 256,8,9
 474 573 474 573 457 573 c 0,10,11
 424 573 424 573 396 565 c 256,12,13
 368 557 368 557 344 541 c 0,14,15
 320 526 320 526 302 503 c 0,16,17
 285 480 285 480 273 451 c 1,18,19
 273 487 273 487 273 560 c 1,20,21
 250 560 250 560 181 560 c 1,22,23
 181 420 181 420 181 0 c 1,24,25
 204 0 204 0 273 0 c 1,26,27
 273 70 273 70 273 279 c 0,28,29
 273 330 273 330 285 369 c 0,30,31
 296 408 296 408 319 435 c 0,32,33
 341 462 341 462 374 475 c 256,34,35
 407 488 407 488 451 488 c 0,36,37
 469 488 469 488 485 486 c 0,38,39
 502 483 502 483 517 478 c 256,40,41
 532 473 532 473 547 464 c 0,42,43
 562 456 562 456 577 444 c 1,0,1
EndSplineSet
EndChar

StartChar: s
Encoding: 115 115 86
Width: 616
Flags: W
LayerCount: 2
Fore
SplineSet
487 540 m 1,0,1
 466 549 466 549 446 555 c 256,2,3
 426 561 426 561 405 565 c 256,4,5
 384 569 384 569 362 571 c 0,6,7
 341 573 341 573 319 573 c 0,8,9
 268 573 268 573 229 562 c 256,10,11
 190 551 190 551 163 529 c 0,12,13
 136 508 136 508 122 477 c 256,14,15
 108 446 108 446 108 405 c 0,16,17
 108 374 108 374 118 348 c 0,18,19
 127 323 127 323 145 305 c 256,20,21
 163 287 163 287 192 274 c 256,22,23
 221 261 221 261 261 253 c 0,24,25
 272 251 272 251 296 246 c 0,26,27
 297 246 297 246 300 245 c 0,28,29
 361 233 361 233 391 210 c 0,30,31
 422 188 422 188 422 156 c 0,32,33
 422 134 422 134 414 117 c 0,34,35
 405 99 405 99 388 87 c 0,36,37
 372 75 372 75 348 69 c 256,38,39
 324 63 324 63 294 63 c 0,40,41
 273 63 273 63 251 66 c 0,42,43
 228 69 228 69 205 76 c 0,44,45
 181 82 181 82 157 92 c 0,46,47
 132 102 132 102 107 116 c 1,48,49
 107 84 107 84 107 20 c 1,50,51
 133 11 133 11 157 5 c 0,52,53
 182 -2 182 -2 205 -6 c 0,54,55
 228 -11 228 -11 249 -13 c 0,56,57
 271 -15 271 -15 292 -15 c 0,58,59
 344 -15 344 -15 385 -3 c 256,60,61
 426 9 426 9 456 32 c 0,62,63
 485 55 485 55 500 88 c 0,64,65
 515 120 515 120 515 162 c 0,66,67
 515 193 515 193 506 219 c 0,68,69
 497 244 497 244 480 264 c 0,70,71
 462 283 462 283 436 296 c 256,72,73
 410 309 410 309 376 316 c 0,74,75
 364 318 364 318 339 323 c 0,76,77
 293 331 293 331 265 340 c 0,78,79
 236 349 236 349 224 359 c 0,80,81
 213 368 213 368 207 382 c 256,82,83
 201 396 201 396 201 415 c 0,84,85
 201 435 201 435 209 451 c 256,86,87
 217 467 217 467 232 477 c 256,88,89
 247 487 247 487 271 492 c 0,90,91
 294 497 294 497 325 497 c 0,92,93
 346 497 346 497 366 495 c 0,94,95
 387 492 387 492 407 486 c 256,96,97
 427 480 427 480 447 471 c 0,98,99
 467 463 467 463 487 452 c 1,100,101
 487 482 487 482 487 540 c 1,0,1
EndSplineSet
EndChar

StartChar: t
Encoding: 116 116 87
Width: 616
Flags: W
LayerCount: 2
Fore
SplineSet
307 719 m 1,0,1
 284 719 284 719 215 719 c 1,2,3
 215 679 215 679 215 560 c 1,4,5
 178 560 178 560 65 560 c 1,6,7
 65 542 65 542 65 488 c 1,8,9
 103 488 103 488 215 488 c 1,10,11
 215 412 215 412 215 184 c 0,12,13
 215 133 215 133 226 98 c 0,14,15
 236 62 236 62 257 41 c 256,16,17
 278 20 278 20 315 10 c 256,18,19
 352 0 352 0 404 0 c 0,20,21
 441 0 441 0 516 0 c 1,22,23
 516 18 516 18 516 73 c 1,24,25
 490 73 490 73 412 73 c 0,26,27
 383 73 383 73 363 80 c 0,28,29
 342 86 342 86 331 98 c 0,30,31
 319 110 319 110 313 132 c 0,32,33
 307 153 307 153 307 184 c 0,34,35
 307 286 307 286 307 488 c 1,36,37
 359 488 359 488 516 488 c 1,38,39
 516 506 516 506 516 560 c 1,40,41
 464 560 464 560 307 560 c 1,42,43
 307 600 307 600 307 719 c 1,0,1
EndSplineSet
EndChar

StartChar: u
Encoding: 117 117 88
Width: 616
Flags: W
LayerCount: 2
Fore
SplineSet
97 212 m 0,0,1
 97 155 97 155 108 112 c 0,2,3
 119 70 119 70 140 41 c 0,4,5
 161 13 161 13 192 -1 c 0,6,7
 224 -15 224 -15 268 -15 c 0,8,9
 296 -15 296 -15 320 -8 c 0,10,11
 345 -2 345 -2 366 11 c 0,12,13
 387 23 387 23 404 41 c 0,14,15
 421 60 421 60 433 84 c 1,16,17
 433 56 433 56 433 0 c 1,18,19
 456 0 456 0 525 0 c 1,20,21
 525 140 525 140 525 559 c 1,22,23
 502 559 502 559 433 559 c 1,24,25
 433 480 433 480 433 243 c 0,26,27
 433 200 433 200 424 167 c 0,28,29
 416 134 416 134 399 111 c 0,30,31
 381 88 381 88 356 77 c 0,32,33
 331 65 331 65 299 65 c 0,34,35
 271 65 271 65 250 74 c 256,36,37
 229 83 229 83 216 101 c 256,38,39
 203 119 203 119 196 146 c 0,40,41
 189 174 189 174 189 212 c 0,42,43
 189 328 189 328 189 559 c 1,44,45
 166 559 166 559 97 559 c 1,46,47
 97 543 97 543 97 494 c 0,48,49
 97 423 97 423 97 212 c 0,0,1
EndSplineSet
EndChar

StartChar: v
Encoding: 118 118 89
Width: 616
Flags: W
LayerCount: 2
Fore
SplineSet
50 560 m 1,0,1
 100 420 100 420 249 0 c 1,2,3
 279 0 279 0 368 0 c 1,4,5
 417 140 417 140 567 560 c 1,6,7
 543 560 543 560 471 560 c 1,8,9
 430 442 430 442 308 90 c 1,10,11
 267 207 267 207 145 560 c 1,12,13
 122 560 122 560 50 560 c 1,0,1
EndSplineSet
EndChar

StartChar: w
Encoding: 119 119 90
Width: 616
Flags: W
LayerCount: 2
Fore
SplineSet
0 560 m 1,0,1
 33 420 33 420 131 0 c 1,2,3
 153 0 153 0 219 0 c 1,4,5
 241 77 241 77 308 307 c 1,6,7
 330 230 330 230 397 0 c 1,8,9
 419 0 419 0 485 0 c 1,10,11
 518 140 518 140 616 560 c 1,12,13
 594 560 594 560 525 560 c 1,14,15
 501 447 501 447 428 108 c 1,16,17
 408 180 408 180 347 396 c 1,18,19
 327 396 327 396 268 396 c 1,20,21
 248 324 248 324 188 108 c 1,22,23
 164 221 164 221 91 560 c 1,24,25
 68 560 68 560 0 560 c 1,0,1
EndSplineSet
EndChar

StartChar: x
Encoding: 120 120 91
Width: 616
Flags: W
LayerCount: 2
Fore
SplineSet
559 560 m 1,0,1
 533 560 533 560 456 560 c 1,2,3
 419 509 419 509 308 357 c 1,4,5
 271 408 271 408 160 560 c 1,6,7
 134 560 134 560 57 560 c 1,8,9
 108 493 108 493 258 292 c 1,10,11
 203 219 203 219 38 0 c 1,12,13
 65 0 65 0 144 0 c 1,14,15
 185 56 185 56 308 224 c 1,16,17
 349 168 349 168 472 0 c 1,18,19
 499 0 499 0 579 0 c 1,20,21
 524 73 524 73 359 292 c 1,22,23
 409 359 409 359 559 560 c 1,0,1
EndSplineSet
EndChar

StartChar: y
Encoding: 121 121 92
Width: 616
Flags: W
LayerCount: 2
Fore
SplineSet
429 180 m 0,0,1
 466 275 466 275 576 560 c 1,2,3
 552 560 552 560 479 560 c 1,4,5
 438 450 438 450 316 122 c 1,6,7
 274 231 274 231 149 560 c 1,8,9
 125 560 125 560 52 560 c 1,10,11
 106 422 106 422 268 9 c 1,12,13
 250 -40 250 -40 236 -70 c 0,14,15
 221 -101 221 -101 210 -112 c 0,16,17
 198 -124 198 -124 183 -130 c 0,18,19
 167 -136 167 -136 147 -136 c 0,20,21
 128 -136 128 -136 92 -136 c 1,22,23
 92 -155 92 -155 92 -213 c 1,24,25
 111 -213 111 -213 166 -213 c 0,26,27
 189 -213 189 -213 209 -208 c 256,28,29
 229 -203 229 -203 247 -193 c 0,30,31
 264 -184 264 -184 278 -169 c 256,32,33
 292 -154 292 -154 304 -135 c 0,34,35
 312 -121 312 -121 329 -80 c 0,36,37
 346 -40 346 -40 371 26 c 0,38,39
 388 74 388 74 403 112 c 0,40,41
 417 151 417 151 429 180 c 0,0,1
EndSplineSet
EndChar

StartChar: z
Encoding: 122 122 93
Width: 616
Flags: W
LayerCount: 2
Fore
SplineSet
113 561 m 1,0,1
 113 543 113 543 113 488 c 1,2,3
 191 488 191 488 423 488 c 1,4,5
 343 387 343 387 101 85 c 1,6,7
 101 64 101 64 101 0 c 1,8,9
 206 0 206 0 520 0 c 1,10,11
 520 19 520 19 520 75 c 1,12,13
 440 75 440 75 199 75 c 1,14,15
 279 176 279 176 520 477 c 1,16,17
 520 498 520 498 520 561 c 1,18,19
 418 561 418 561 113 561 c 1,0,1
EndSplineSet
EndChar

StartChar: braceleft
Encoding: 123 123 94
Width: 616
Flags: W
LayerCount: 2
Fore
SplineSet
516 -25 m 1,0,1
 507 -25 507 -25 481 -25 c 0,2,3
 446 -25 446 -25 423 -20 c 256,4,5
 400 -15 400 -15 389 -4 c 0,6,7
 379 6 379 6 374 30 c 0,8,9
 368 53 368 53 368 89 c 0,10,11
 368 124 368 124 368 193 c 0,12,13
 368 236 368 236 359 266 c 0,14,15
 350 295 350 295 332 312 c 0,16,17
 314 328 314 328 281 339 c 256,18,19
 248 350 248 350 200 356 c 1,20,21
 249 363 249 363 283 374 c 256,22,23
 317 385 317 385 334 400 c 256,24,25
 351 415 351 415 360 444 c 0,26,27
 368 474 368 474 368 518 c 0,28,29
 368 563 368 563 368 652 c 0,30,31
 368 687 368 687 374 710 c 0,32,33
 379 734 379 734 389 744 c 0,34,35
 400 755 400 755 423 761 c 256,36,37
 446 767 446 767 481 767 c 0,38,39
 493 767 493 767 516 767 c 1,40,41
 516 784 516 784 516 838 c 1,42,43
 508 838 508 838 484 838 c 0,44,45
 422 838 422 838 380 829 c 0,46,47
 338 819 338 819 317 801 c 256,48,49
 296 783 296 783 286 746 c 0,50,51
 275 709 275 709 275 654 c 0,52,53
 275 611 275 611 275 524 c 0,54,55
 275 491 275 491 268 467 c 0,56,57
 261 442 261 442 247 425 c 0,58,59
 233 409 233 409 209 400 c 0,60,61
 184 392 184 392 149 392 c 0,62,63
 129 392 129 392 88 392 c 1,64,65
 88 374 88 374 88 320 c 1,66,67
 103 320 103 320 149 320 c 0,68,69
 181 320 181 320 205 310 c 0,70,71
 229 301 229 301 244 281 c 256,72,73
 259 261 259 261 267 238 c 0,74,75
 275 214 275 214 275 187 c 0,76,77
 275 154 275 154 275 87 c 0,78,79
 275 31 275 31 285 -5 c 0,80,81
 295 -42 295 -42 316 -60 c 0,82,83
 337 -79 337 -79 379 -88 c 256,84,85
 421 -97 421 -97 483 -97 c 0,86,87
 494 -97 494 -97 515 -97 c 1,88,89
 515 -79 515 -79 516 -25 c 1,0,1
EndSplineSet
EndChar

StartChar: bar
Encoding: 124 124 95
Width: 616
Flags: W
LayerCount: 2
Fore
SplineSet
371 783 m 1,0,1
 350 783 350 783 285 783 c 1,2,3
 285 527 285 527 285 -241 c 1,4,5
 306 -241 306 -241 371 -241 c 1,6,7
 371 15 371 15 371 783 c 1,0,1
EndSplineSet
EndChar

StartChar: braceright
Encoding: 125 125 96
Width: 616
Flags: W
LayerCount: 2
Fore
SplineSet
144 -25 m 0,0,1
 136 -25 136 -25 109 -25 c 1,2,3
 109 -43 109 -43 109 -97 c 1,4,5
 117 -97 117 -97 141 -97 c 0,6,7
 204 -97 204 -97 245 -88 c 0,8,9
 287 -79 287 -79 308 -60 c 0,10,11
 329 -42 329 -42 340 -5 c 0,12,13
 351 31 351 31 351 87 c 0,14,15
 351 120 351 120 351 187 c 0,16,17
 351 214 351 214 358 238 c 0,18,19
 366 261 366 261 381 281 c 256,20,21
 396 301 396 301 420 311 c 256,22,23
 444 321 444 321 476 321 c 0,24,25
 497 321 497 321 537 321 c 1,26,27
 537 339 537 339 537 393 c 1,28,29
 522 393 522 393 476 393 c 0,30,31
 441 393 441 393 417 401 c 0,32,33
 392 410 392 410 378 426 c 0,34,35
 364 443 364 443 357 468 c 0,36,37
 351 492 351 492 351 525 c 0,38,39
 351 568 351 568 351 655 c 0,40,41
 351 710 351 710 340 747 c 256,42,43
 329 784 329 784 308 802 c 256,44,45
 287 820 287 820 245 830 c 0,46,47
 204 839 204 839 141 839 c 0,48,49
 131 839 131 839 109 839 c 1,50,51
 109 821 109 821 109 768 c 1,52,53
 118 768 118 768 144 768 c 0,54,55
 179 768 179 768 202 762 c 256,56,57
 225 756 225 756 236 745 c 0,58,59
 246 735 246 735 251 711 c 0,60,61
 257 688 257 688 257 653 c 0,62,63
 257 608 257 608 257 519 c 0,64,65
 257 475 257 475 266 445 c 0,66,67
 274 416 274 416 292 401 c 0,68,69
 309 386 309 386 342 375 c 0,70,71
 376 364 376 364 426 357 c 1,72,73
 377 351 377 351 344 340 c 256,74,75
 311 329 311 329 293 313 c 0,76,77
 275 296 275 296 266 267 c 0,78,79
 257 237 257 237 257 194 c 0,80,81
 257 160 257 160 257 90 c 0,82,83
 257 54 257 54 251 31 c 0,84,85
 246 7 246 7 236 -3 c 0,86,87
 225 -14 225 -14 202 -19 c 256,88,89
 179 -24 179 -24 144 -25 c 0,0,1
EndSplineSet
EndChar

StartChar: asciitilde
Encoding: 126 126 97
Width: 616
Flags: W
LayerCount: 2
Fore
SplineSet
544 392 m 1,0,1
 536 372 536 372 526 351 c 0,2,3
 515 331 515 331 503 309 c 0,4,5
 490 287 490 287 474 277 c 0,6,7
 458 266 458 266 439 266 c 0,8,9
 415 266 415 266 387 291 c 0,10,11
 358 316 358 316 325 367 c 0,12,13
 292 417 292 417 254 442 c 256,14,15
 216 467 216 467 175 467 c 2,16,17
 175 467 175 467 174 467 c 0,18,19
 151 467 151 467 128 456 c 0,20,21
 104 445 104 445 81 423 c 256,22,23
 58 401 58 401 40 367 c 0,24,25
 21 333 21 333 7 287 c 1,26,27
 29 274 29 274 73 248 c 1,28,29
 84 276 84 276 94 299 c 0,30,31
 105 322 105 322 115 340 c 256,32,33
 125 358 125 358 139 368 c 0,34,35
 154 377 154 377 173 377 c 0,36,37
 191 377 191 377 206 370 c 256,38,39
 221 363 221 363 233 348 c 0,40,41
 244 334 244 334 264 310 c 0,42,43
 284 285 284 285 312 251 c 0,44,45
 340 216 340 216 372 198 c 0,46,47
 403 180 403 180 439 179 c 0,48,49
 460 179 460 179 482 187 c 0,50,51
 503 196 503 196 524 214 c 256,52,53
 545 232 545 232 566 265 c 0,54,55
 587 299 587 299 608 348 c 1,56,57
 587 363 587 363 544 392 c 1,0,1
EndSplineSet
EndChar

StartChar: exclamdown
Encoding: 161 161 99
Width: 616
Flags: W
LayerCount: 2
Fore
SplineSet
258 620 m 1,0,1
 283 620 283 620 360 620 c 1,2,3
 360 651 360 651 360 747 c 1,4,5
 334 747 334 747 258 747 c 1,6,7
 258 715 258 715 258 620 c 1,0,1
258 0 m 1,8,9
 283 0 283 0 360 0 c 1,10,11
 360 82 360 82 360 328 c 0,12,13
 357 372 357 372 349 506 c 1,14,15
 329 506 329 506 268 506 c 1,16,17
 266 461 266 461 258 328 c 1,18,19
 258 246 258 246 258 0 c 1,8,9
EndSplineSet
EndChar

StartChar: cent
Encoding: 162 162 100
Width: 616
Flags: W
LayerCount: 2
Fore
SplineSet
531 539 m 1,0,1
 512 546 512 546 495 552 c 256,2,3
 478 558 478 558 461 563 c 0,4,5
 445 567 445 567 432 569 c 0,6,7
 420 572 420 572 411 572 c 1,8,9
 411 620 411 620 411 716 c 1,10,11
 395 716 395 716 349 716 c 1,12,13
 349 680 349 680 349 572 c 1,14,15
 294 568 294 568 249 545 c 0,16,17
 205 523 205 523 172 484 c 0,18,19
 139 444 139 444 123 393 c 256,20,21
 107 342 107 342 107 280 c 0,22,23
 107 217 107 217 123 166 c 256,24,25
 139 115 139 115 172 76 c 0,26,27
 204 37 204 37 248 14 c 0,28,29
 293 -8 293 -8 349 -13 c 1,30,31
 349 -61 349 -61 349 -156 c 1,32,33
 364 -156 364 -156 411 -156 c 1,34,35
 411 -121 411 -121 411 -13 c 1,36,37
 420 -13 420 -13 432 -10 c 0,38,39
 445 -8 445 -8 461 -4 c 0,40,41
 478 1 478 1 495 7 c 256,42,43
 512 13 512 13 531 20 c 1,44,45
 531 49 531 49 531 107 c 1,46,47
 514 96 514 96 498 89 c 0,48,49
 481 81 481 81 464 75 c 0,50,51
 448 69 448 69 435 66 c 0,52,53
 421 63 421 63 411 61 c 1,54,55
 411 206 411 206 411 496 c 1,56,57
 421 495 421 495 435 492 c 0,58,59
 448 489 448 489 464 484 c 0,60,61
 481 478 481 478 497 470 c 0,62,63
 514 462 514 462 531 452 c 1,64,65
 531 481 531 481 531 539 c 1,0,1
349 64 m 1,66,67
 316 67 316 67 289 83 c 0,68,69
 263 99 263 99 243 128 c 0,70,71
 223 158 223 158 213 196 c 0,72,73
 203 233 203 233 203 280 c 0,74,75
 203 325 203 325 213 363 c 256,76,77
 223 401 223 401 243 431 c 0,78,79
 263 460 263 460 289 476 c 0,80,81
 316 493 316 493 349 496 c 1,82,83
 349 352 349 352 349 64 c 1,66,67
EndSplineSet
EndChar

StartChar: sterling
Encoding: 163 163 101
Width: 616
Flags: W
LayerCount: 2
Fore
SplineSet
546 731 m 1,0,1
 528 738 528 738 510 743 c 0,2,3
 492 749 492 749 475 752 c 0,4,5
 458 756 458 756 441 758 c 0,6,7
 425 760 425 760 408 760 c 0,8,9
 353 760 353 760 311 744 c 0,10,11
 269 729 269 729 242 697 c 0,12,13
 215 666 215 666 201 619 c 0,14,15
 188 571 188 571 188 508 c 0,16,17
 188 468 188 468 188 389 c 1,18,19
 163 389 163 389 88 389 c 1,20,21
 88 371 88 371 88 317 c 1,22,23
 113 317 113 317 188 317 c 1,24,25
 188 259 188 259 188 85 c 1,26,27
 158 85 158 85 69 85 c 1,28,29
 69 64 69 64 69 0 c 1,30,31
 191 0 191 0 556 0 c 1,32,33
 556 21 556 21 556 85 c 1,34,35
 489 85 489 85 288 85 c 1,36,37
 288 143 288 143 288 317 c 1,38,39
 334 317 334 317 473 317 c 1,40,41
 473 335 473 335 473 389 c 1,42,43
 427 389 427 389 288 389 c 1,44,45
 288 416 288 416 288 497 c 0,46,47
 288 545 288 545 295 580 c 0,48,49
 303 616 303 616 319 638 c 0,50,51
 335 661 335 661 359 672 c 0,52,53
 384 683 384 683 418 683 c 0,54,55
 434 683 434 683 451 680 c 0,56,57
 467 677 467 677 483 672 c 0,58,59
 499 666 499 666 514 658 c 0,60,61
 530 650 530 650 546 639 c 1,62,63
 546 670 546 670 546 731 c 1,0,1
EndSplineSet
EndChar

StartChar: currency
Encoding: 164 164 102
Width: 616
Flags: W
LayerCount: 2
Fore
SplineSet
433 322 m 0,0,1
 433 299 433 299 425 280 c 256,2,3
 417 261 417 261 402 245 c 256,4,5
 387 229 387 229 368 222 c 0,6,7
 349 214 349 214 326 214 c 0,8,9
 304 214 304 214 284 222 c 0,10,11
 265 229 265 229 250 245 c 0,12,13
 234 260 234 260 227 280 c 0,14,15
 219 299 219 299 219 322 c 0,16,17
 219 344 219 344 227 363 c 0,18,19
 234 382 234 382 250 397 c 0,20,21
 265 412 265 412 284 420 c 0,22,23
 304 428 304 428 326 428 c 0,24,25
 349 428 349 428 368 420 c 256,26,27
 387 412 387 412 402 397 c 256,28,29
 417 382 417 382 425 363 c 256,30,31
 433 344 433 344 433 322 c 0,0,1
421 462 m 1,32,33
 408 470 408 470 396 475 c 256,34,35
 384 480 384 480 372 484 c 256,36,37
 360 488 360 488 349 490 c 0,38,39
 337 492 337 492 326 492 c 0,40,41
 313 492 313 492 301 490 c 256,42,43
 289 488 289 488 278 484 c 256,44,45
 267 480 267 480 255 474 c 0,46,47
 244 469 244 469 232 461 c 1,48,49
 205 489 205 489 149 545 c 1,50,51
 138 533 138 533 103 497 c 1,52,53
 124 477 124 477 187 415 c 1,54,55
 179 403 179 403 173 392 c 0,56,57
 167 380 167 380 163 369 c 0,58,59
 159 357 159 357 157 345 c 0,60,61
 156 333 156 333 156 321 c 256,62,63
 156 309 156 309 157 298 c 0,64,65
 159 286 159 286 163 275 c 0,66,67
 166 263 166 263 172 251 c 256,68,69
 178 239 178 239 185 227 c 1,70,71
 158 199 158 199 103 143 c 1,72,73
 114 131 114 131 148 97 c 1,74,75
 169 118 169 118 231 180 c 1,76,77
 243 172 243 172 254 167 c 0,78,79
 266 161 266 161 278 157 c 0,80,81
 290 154 290 154 302 152 c 0,82,83
 314 151 314 151 326 151 c 256,84,85
 338 151 338 151 350 152 c 0,86,87
 362 154 362 154 373 158 c 0,88,89
 385 162 385 162 396 168 c 0,90,91
 407 173 407 173 419 181 c 1,92,93
 447 153 447 153 503 97 c 1,94,95
 515 109 515 109 550 144 c 1,96,97
 529 165 529 165 465 228 c 1,98,99
 473 240 473 240 479 251 c 256,100,101
 485 262 485 262 489 273 c 0,102,103
 493 285 493 285 495 296 c 0,104,105
 496 308 496 308 496 321 c 0,106,107
 496 333 496 333 495 345 c 0,108,109
 493 356 493 356 489 368 c 0,110,111
 485 379 485 379 480 391 c 0,112,113
 474 403 474 403 467 416 c 1,114,115
 494 443 494 443 550 499 c 1,116,117
 539 510 539 510 505 545 c 1,118,119
 484 524 484 524 421 462 c 1,32,33
EndSplineSet
EndChar

StartChar: yen
Encoding: 165 165 103
Width: 616
Flags: W
LayerCount: 2
Fore
SplineSet
19 747 m 1,0,1
 59 676 59 676 179 466 c 1,2,3
 149 466 149 466 57 466 c 1,4,5
 57 452 57 452 57 411 c 1,6,7
 96 411 96 411 212 411 c 1,8,9
 223 392 223 392 257 335 c 0,10,11
 257 331 257 331 257 317 c 1,12,13
 207 317 207 317 57 317 c 1,14,15
 57 304 57 304 57 262 c 1,16,17
 107 262 107 262 257 262 c 1,18,19
 257 197 257 197 257 0 c 1,20,21
 282 0 282 0 359 0 c 1,22,23
 359 66 359 66 359 262 c 1,24,25
 409 262 409 262 559 262 c 1,26,27
 559 276 559 276 559 317 c 1,28,29
 509 317 509 317 359 317 c 1,30,31
 359 322 359 322 359 335 c 1,32,33
 369 354 369 354 401 411 c 1,34,35
 441 411 441 411 559 411 c 1,36,37
 559 424 559 424 559 466 c 1,38,39
 528 466 528 466 433 466 c 1,40,41
 474 536 474 536 598 747 c 1,42,43
 571 747 571 747 489 747 c 1,44,45
 444 664 444 664 308 417 c 1,46,47
 263 499 263 499 126 747 c 1,48,49
 99 747 99 747 19 747 c 1,0,1
EndSplineSet
EndChar

StartChar: brokenbar
Encoding: 166 166 104
Width: 616
Flags: W
LayerCount: 2
Fore
SplineSet
350 716 m 1,0,1
 329 716 329 716 265 716 c 1,2,3
 265 621 265 621 265 337 c 1,4,5
 286 337 286 337 350 337 c 1,6,7
 350 432 350 432 350 716 c 1,0,1
350 204 m 1,8,9
 329 204 329 204 265 204 c 1,10,11
 265 109 265 109 265 -175 c 1,12,13
 286 -175 286 -175 350 -175 c 1,14,15
 350 -80 350 -80 350 204 c 1,8,9
EndSplineSet
EndChar

StartChar: section
Encoding: 167 167 105
Width: 616
Flags: W
LayerCount: 2
Fore
SplineSet
468 731 m 1,0,1
 448 738 448 738 428 743 c 0,2,3
 409 749 409 749 389 752 c 0,4,5
 370 756 370 756 352 758 c 256,6,7
 334 760 334 760 316 760 c 0,8,9
 274 760 274 760 240 750 c 0,10,11
 207 740 207 740 182 720 c 256,12,13
 157 700 157 700 144 674 c 0,14,15
 132 648 132 648 132 616 c 0,16,17
 132 598 132 598 136 583 c 0,18,19
 139 567 139 567 147 553 c 0,20,21
 154 539 154 539 165 526 c 0,22,23
 177 514 177 514 192 503 c 1,24,25
 169 491 169 491 151 476 c 0,26,27
 134 461 134 461 123 443 c 0,28,29
 111 425 111 425 105 404 c 0,30,31
 100 384 100 384 100 361 c 0,32,33
 100 336 100 336 107 314 c 0,34,35
 115 291 115 291 132 272 c 0,36,37
 147 253 147 253 182 228 c 0,38,39
 217 204 217 204 271 174 c 0,40,41
 275 172 275 172 283 167 c 0,42,43
 338 136 338 136 365 108 c 0,44,45
 393 80 393 80 393 55 c 0,46,47
 393 35 393 35 386 21 c 0,48,49
 379 6 379 6 364 -4 c 0,50,51
 350 -15 350 -15 331 -20 c 0,52,53
 311 -25 311 -25 285 -25 c 0,54,55
 271 -25 271 -25 255 -23 c 0,56,57
 238 -21 238 -21 220 -16 c 0,58,59
 201 -11 201 -11 181 -4 c 0,60,61
 161 4 161 4 140 13 c 1,62,63
 140 -14 140 -14 140 -68 c 1,64,65
 161 -76 161 -76 182 -81 c 0,66,67
 202 -87 202 -87 221 -91 c 0,68,69
 241 -94 241 -94 260 -96 c 0,70,71
 279 -97 279 -97 297 -97 c 0,72,73
 340 -97 340 -97 375 -87 c 0,74,75
 409 -77 409 -77 435 -56 c 0,76,77
 460 -35 460 -35 473 -6 c 0,78,79
 485 22 485 22 485 57 c 0,80,81
 485 73 485 73 482 88 c 0,82,83
 478 103 478 103 471 116 c 0,84,85
 463 130 463 130 452 143 c 0,86,87
 441 157 441 157 426 170 c 1,88,89
 449 183 449 183 466 199 c 0,90,91
 484 215 484 215 495 233 c 0,92,93
 506 250 506 250 512 270 c 256,94,95
 518 290 518 290 518 313 c 0,96,97
 518 338 518 338 510 360 c 256,98,99
 502 382 502 382 485 401 c 0,100,101
 469 421 469 421 434 445 c 0,102,103
 400 470 400 470 347 500 c 0,104,105
 343 501 343 501 338 504 c 256,106,107
 333 507 333 507 327 511 c 0,108,109
 276 540 276 540 250 565 c 0,110,111
 224 591 224 591 224 613 c 0,112,113
 224 631 224 631 231 645 c 0,114,115
 237 659 237 659 251 669 c 0,116,117
 264 679 264 679 283 684 c 256,118,119
 302 689 302 689 327 689 c 0,120,121
 341 689 341 689 357 686 c 0,122,123
 373 684 373 684 391 679 c 256,124,125
 409 674 409 674 428 667 c 256,126,127
 447 660 447 660 468 650 c 1,128,129
 468 677 468 677 468 731 c 1,0,1
243 469 m 1,130,131
 303 436 303 436 343 411 c 0,132,133
 382 386 382 386 400 369 c 256,134,135
 418 352 418 352 427 334 c 256,136,137
 436 316 436 316 436 297 c 0,138,139
 436 285 436 285 432 274 c 0,140,141
 429 262 429 262 421 251 c 0,142,143
 414 240 414 240 402 228 c 256,144,145
 390 216 390 216 375 205 c 1,146,147
 313 238 313 238 273 263 c 0,148,149
 234 288 234 288 216 305 c 256,150,151
 198 322 198 322 190 340 c 0,152,153
 181 358 181 358 181 377 c 0,154,155
 181 389 181 389 185 400 c 0,156,157
 188 412 188 412 196 423 c 256,158,159
 204 434 204 434 215 446 c 0,160,161
 227 457 227 457 243 469 c 1,130,131
EndSplineSet
EndChar

StartChar: dieresis
Encoding: 168 168 106
Width: 616
Flags: W
LayerCount: 2
Fore
SplineSet
160 776 m 1,0,1
 160 751 160 751 160 675 c 1,2,3
 185 675 185 675 261 675 c 1,4,5
 261 700 261 700 261 776 c 1,6,7
 236 776 236 776 160 776 c 1,0,1
356 776 m 1,8,9
 356 751 356 751 356 675 c 1,10,11
 381 675 381 675 456 675 c 1,12,13
 456 700 456 700 456 776 c 1,14,15
 431 776 431 776 356 776 c 1,8,9
EndSplineSet
EndChar

StartChar: copyright
Encoding: 169 169 107
Width: 616
Flags: W
LayerCount: 2
Fore
SplineSet
432 536 m 1,0,1
 419 541 419 541 405 545 c 0,2,3
 392 549 392 549 377 552 c 0,4,5
 363 555 363 555 348 557 c 0,6,7
 334 558 334 558 319 558 c 0,8,9
 274 558 274 558 238 545 c 0,10,11
 203 533 203 533 177 508 c 0,12,13
 151 482 151 482 138 448 c 256,14,15
 125 414 125 414 125 371 c 0,16,17
 125 327 125 327 138 293 c 256,18,19
 151 259 151 259 176 235 c 0,20,21
 202 209 202 209 238 197 c 0,22,23
 274 184 274 184 319 184 c 0,24,25
 334 184 334 184 348 186 c 0,26,27
 363 187 363 187 377 190 c 0,28,29
 392 193 392 193 405 197 c 0,30,31
 419 201 419 201 432 207 c 1,32,33
 432 224 432 224 432 259 c 1,34,35
 419 252 419 252 407 247 c 0,36,37
 394 243 394 243 381 240 c 256,38,39
 368 237 368 237 355 235 c 0,40,41
 341 233 341 233 328 233 c 0,42,43
 295 233 295 233 270 242 c 256,44,45
 245 251 245 251 228 269 c 0,46,47
 210 287 210 287 201 312 c 0,48,49
 192 338 192 338 192 371 c 0,50,51
 192 402 192 402 201 428 c 0,52,53
 209 453 209 453 226 472 c 0,54,55
 243 490 243 490 266 500 c 0,56,57
 289 509 289 509 319 509 c 0,58,59
 333 509 333 509 347 507 c 256,60,61
 361 505 361 505 375 502 c 256,62,63
 389 499 389 499 403 493 c 0,64,65
 417 488 417 488 432 481 c 1,66,67
 432 499 432 499 432 536 c 1,0,1
308 628 m 0,68,69
 335 628 335 628 359 623 c 0,70,71
 384 618 384 618 407 609 c 0,72,73
 429 600 429 600 450 586 c 256,74,75
 471 572 471 572 489 553 c 0,76,77
 508 534 508 534 522 513 c 256,78,79
 536 492 536 492 546 469 c 0,80,81
 555 446 555 446 560 422 c 0,82,83
 565 397 565 397 565 371 c 0,84,85
 565 344 565 344 560 320 c 0,86,87
 555 295 555 295 546 272 c 0,88,89
 537 250 537 250 522 229 c 0,90,91
 508 208 508 208 489 189 c 256,92,93
 470 170 470 170 449 156 c 0,94,95
 429 142 429 142 406 132 c 0,96,97
 384 123 384 123 359 118 c 256,98,99
 334 113 334 113 308 113 c 256,100,101
 282 113 282 113 257 118 c 256,102,103
 232 123 232 123 210 132 c 0,104,105
 187 142 187 142 167 156 c 0,106,107
 146 170 146 170 127 189 c 256,108,109
 108 208 108 208 94 229 c 256,110,111
 80 250 80 250 70 272 c 0,112,113
 60 295 60 295 56 320 c 0,114,115
 51 344 51 344 51 371 c 0,116,117
 51 397 51 397 56 421 c 0,118,119
 60 445 60 445 70 468 c 256,120,121
 80 491 80 491 94 512 c 256,122,123
 108 533 108 533 127 552 c 256,124,125
 146 571 146 571 166 585 c 0,126,127
 187 599 187 599 209 608 c 0,128,129
 232 617 232 617 257 622 c 0,130,131
 281 627 281 627 308 628 c 0,68,69
308 678 m 256,132,133
 276 678 276 678 247 672 c 0,134,135
 218 667 218 667 191 655 c 0,136,137
 163 644 163 644 138 627 c 0,138,139
 113 611 113 611 91 588 c 0,140,141
 68 565 68 565 51 540 c 256,142,143
 34 515 34 515 23 487 c 0,144,145
 11 460 11 460 6 430 c 0,146,147
 0 401 0 401 0 370 c 0,148,149
 0 338 0 338 6 309 c 0,150,151
 11 279 11 279 23 252 c 0,152,153
 34 225 34 225 51 200 c 256,154,155
 68 175 68 175 91 152 c 0,156,157
 113 130 113 130 139 112 c 0,158,159
 164 95 164 95 191 84 c 256,160,161
 218 73 218 73 247 67 c 0,162,163
 276 62 276 62 308 62 c 256,164,165
 340 62 340 62 369 67 c 0,166,167
 398 73 398 73 425 84 c 256,168,169
 452 95 452 95 478 112 c 0,170,171
 503 130 503 130 525 152 c 0,172,173
 548 175 548 175 565 200 c 256,174,175
 582 225 582 225 593 252 c 0,176,177
 605 279 605 279 611 309 c 0,178,179
 616 338 616 338 616 370 c 0,180,181
 616 401 616 401 611 430 c 0,182,183
 605 460 605 460 593 487 c 0,184,185
 582 515 582 515 565 540 c 256,186,187
 548 565 548 565 525 588 c 0,188,189
 503 611 503 611 478 627 c 0,190,191
 453 644 453 644 426 655 c 0,192,193
 399 667 399 667 369 672 c 0,194,195
 340 678 340 678 308 678 c 256,132,133
EndSplineSet
EndChar

StartChar: ordfeminine
Encoding: 170 170 108
Width: 616
Flags: W
LayerCount: 2
Fore
SplineSet
342 552 m 0,0,1
 358 552 358 552 405 552 c 1,2,3
 405 548 405 548 405 537 c 0,4,5
 405 509 405 509 397 485 c 0,6,7
 389 462 389 462 372 444 c 0,8,9
 356 426 356 426 335 417 c 256,10,11
 314 408 314 408 288 408 c 0,12,13
 270 408 270 408 255 413 c 256,14,15
 240 418 240 418 229 428 c 0,16,17
 219 437 219 437 213 450 c 0,18,19
 208 463 208 463 208 479 c 0,20,21
 208 498 208 498 216 512 c 0,22,23
 223 526 223 526 239 535 c 0,24,25
 254 543 254 543 280 548 c 0,26,27
 306 552 306 552 342 552 c 0,0,1
477 583 m 0,28,29
 477 628 477 628 466 662 c 0,30,31
 455 695 455 695 434 717 c 0,32,33
 412 738 412 738 378 749 c 0,34,35
 345 760 345 760 299 760 c 0,36,37
 283 760 283 760 267 758 c 0,38,39
 250 756 250 756 233 753 c 0,40,41
 217 749 217 749 200 744 c 256,42,43
 183 739 183 739 166 732 c 1,44,45
 166 711 166 711 166 668 c 1,46,47
 183 677 183 677 199 683 c 256,48,49
 215 689 215 689 231 693 c 0,50,51
 246 698 246 698 261 700 c 0,52,53
 275 703 275 703 288 703 c 0,54,55
 317 703 317 703 339 697 c 256,56,57
 361 691 361 691 376 680 c 0,58,59
 391 668 391 668 398 651 c 256,60,61
 405 634 405 634 405 612 c 0,62,63
 405 611 405 611 405 609 c 1,64,65
 383 609 383 609 315 609 c 0,66,67
 271 609 271 609 238 601 c 0,68,69
 205 592 205 592 181 575 c 0,70,71
 158 557 158 557 147 532 c 0,72,73
 135 507 135 507 135 475 c 0,74,75
 135 446 135 446 144 423 c 0,76,77
 154 400 154 400 172 383 c 0,78,79
 191 366 191 366 217 357 c 0,80,81
 242 349 242 349 275 349 c 0,82,83
 295 349 295 349 313 353 c 0,84,85
 332 357 332 357 348 365 c 0,86,87
 364 374 364 374 379 386 c 0,88,89
 393 398 393 398 405 415 c 1,90,91
 405 396 405 396 405 359 c 1,92,93
 423 359 423 359 477 359 c 1,94,95
 477 415 477 415 477 583 c 0,28,29
147 296 m 1,96,97
 147 281 147 281 147 235 c 1,98,99
 230 235 230 235 480 235 c 1,100,101
 480 250 480 250 480 296 c 1,102,103
 397 296 397 296 147 296 c 1,96,97
EndSplineSet
EndChar

StartChar: guillemotleft
Encoding: 171 171 109
Width: 616
Flags: W
LayerCount: 2
Fore
SplineSet
294 529 m 1,0,1
 235 477 235 477 60 320 c 1,2,3
 60 310 60 310 60 280 c 1,4,5
 118 227 118 227 294 71 c 1,6,7
 294 94 294 94 294 166 c 1,8,9
 256 200 256 200 144 300 c 1,10,11
 181 333 181 333 294 434 c 1,12,13
 294 458 294 458 294 529 c 1,0,1
521 529 m 1,14,15
 462 477 462 477 287 320 c 1,16,17
 287 310 287 310 287 280 c 1,18,19
 345 227 345 227 521 71 c 1,20,21
 521 94 521 94 521 166 c 1,22,23
 483 200 483 200 371 300 c 1,24,25
 408 333 408 333 521 434 c 1,26,27
 521 458 521 458 521 529 c 1,14,15
EndSplineSet
EndChar

StartChar: logicalnot
Encoding: 172 172 110
Width: 616
Flags: W
LayerCount: 2
Fore
SplineSet
44 431 m 1,0,1
 44 410 44 410 44 345 c 1,2,3
 155 345 155 345 488 345 c 1,4,5
 488 305 488 305 488 185 c 1,6,7
 509 185 509 185 572 185 c 1,8,9
 572 247 572 247 572 431 c 1,10,11
 440 431 440 431 44 431 c 1,0,1
EndSplineSet
EndChar

StartChar: uni00ad
Encoding: 173 173 111
Width: 616
Flags: W
LayerCount: 2
Fore
SplineSet
66 372 m 1,0,1
 66 348 66 348 66 277 c 1,2,3
 190 277 190 277 561 277 c 1,4,5
 561 301 561 301 561 372 c 1,6,7
 437 372 437 372 66 372 c 1,0,1
EndSplineSet
EndChar

StartChar: registered
Encoding: 174 174 112
Width: 616
Flags: W
LayerCount: 2
Fore
SplineSet
300 550 m 0,0,1
 270 550 270 550 181 550 c 1,2,3
 181 463 181 463 181 203 c 1,4,5
 197 203 197 203 246 203 c 1,6,7
 246 240 246 240 246 351 c 1,8,9
 253 351 253 351 273 351 c 0,10,11
 285 351 285 351 294 348 c 0,12,13
 303 346 303 346 311 340 c 0,14,15
 318 335 318 335 329 323 c 0,16,17
 339 310 339 310 351 290 c 0,18,19
 369 261 369 261 404 203 c 1,20,21
 422 203 422 203 476 203 c 1,22,23
 462 226 462 226 419 296 c 0,24,25
 409 311 409 311 401 322 c 0,26,27
 393 334 393 334 385 342 c 0,28,29
 378 350 378 350 372 355 c 256,30,31
 366 360 366 360 361 361 c 1,32,33
 381 365 381 365 397 372 c 0,34,35
 412 380 412 380 424 392 c 0,36,37
 434 403 434 403 440 418 c 0,38,39
 445 433 445 433 445 451 c 0,40,41
 445 476 445 476 436 494 c 0,42,43
 427 513 427 513 409 525 c 256,44,45
 391 537 391 537 364 544 c 0,46,47
 337 550 337 550 300 550 c 0,0,1
297 508 m 0,48,49
 320 508 320 508 335 505 c 0,50,51
 351 501 351 501 360 495 c 0,52,53
 369 488 369 488 374 477 c 256,54,55
 379 466 379 466 379 451 c 0,56,57
 379 435 379 435 374 423 c 256,58,59
 369 411 369 411 360 404 c 0,60,61
 351 398 351 398 335 394 c 0,62,63
 320 391 320 391 297 391 c 0,64,65
 280 391 280 391 246 391 c 1,66,67
 246 420 246 420 246 507 c 1,68,69
 259 507 259 507 297 508 c 0,48,49
308 678 m 256,70,71
 276 678 276 678 247 672 c 0,72,73
 218 667 218 667 191 655 c 0,74,75
 163 644 163 644 138 627 c 0,76,77
 113 611 113 611 91 588 c 0,78,79
 68 565 68 565 51 540 c 256,80,81
 34 515 34 515 23 487 c 0,82,83
 11 460 11 460 6 430 c 0,84,85
 0 401 0 401 0 370 c 0,86,87
 0 338 0 338 6 309 c 0,88,89
 11 279 11 279 23 252 c 0,90,91
 34 225 34 225 51 200 c 256,92,93
 68 175 68 175 91 152 c 0,94,95
 113 130 113 130 139 112 c 0,96,97
 164 95 164 95 191 84 c 256,98,99
 218 73 218 73 247 67 c 0,100,101
 276 62 276 62 308 62 c 256,102,103
 340 62 340 62 369 67 c 0,104,105
 398 73 398 73 425 84 c 256,106,107
 452 95 452 95 478 112 c 0,108,109
 503 130 503 130 525 152 c 0,110,111
 548 175 548 175 565 200 c 256,112,113
 582 225 582 225 593 252 c 0,114,115
 605 279 605 279 611 309 c 0,116,117
 616 338 616 338 616 370 c 0,118,119
 616 401 616 401 611 430 c 0,120,121
 605 460 605 460 593 487 c 0,122,123
 582 515 582 515 565 540 c 256,124,125
 548 565 548 565 525 588 c 0,126,127
 503 611 503 611 478 627 c 0,128,129
 453 644 453 644 426 655 c 0,130,131
 399 667 399 667 369 672 c 0,132,133
 340 678 340 678 308 678 c 256,70,71
308 627 m 0,134,135
 335 627 335 627 359 622 c 0,136,137
 384 617 384 617 407 608 c 0,138,139
 429 599 429 599 450 585 c 256,140,141
 471 571 471 571 489 552 c 0,142,143
 508 533 508 533 522 512 c 256,144,145
 536 491 536 491 546 468 c 0,146,147
 555 445 555 445 560 421 c 0,148,149
 565 396 565 396 565 370 c 0,150,151
 565 343 565 343 560 319 c 0,152,153
 555 294 555 294 546 271 c 0,154,155
 537 249 537 249 522 228 c 0,156,157
 508 207 508 207 489 188 c 256,158,159
 470 169 470 169 449 155 c 0,160,161
 429 141 429 141 406 131 c 0,162,163
 384 122 384 122 359 117 c 256,164,165
 334 112 334 112 308 112 c 256,166,167
 282 112 282 112 257 117 c 256,168,169
 232 122 232 122 210 131 c 0,170,171
 187 141 187 141 167 155 c 0,172,173
 146 169 146 169 127 188 c 256,174,175
 108 207 108 207 94 228 c 256,176,177
 80 249 80 249 70 271 c 0,178,179
 60 294 60 294 56 319 c 0,180,181
 51 343 51 343 51 370 c 0,182,183
 51 396 51 396 56 420 c 0,184,185
 60 444 60 444 70 467 c 256,186,187
 80 490 80 490 94 511 c 256,188,189
 108 532 108 532 127 551 c 256,190,191
 146 570 146 570 166 584 c 0,192,193
 187 598 187 598 209 607 c 0,194,195
 232 616 232 616 257 621 c 0,196,197
 281 626 281 626 308 627 c 0,134,135
EndSplineSet
EndChar

StartChar: macron
Encoding: 175 175 113
Width: 616
Flags: W
LayerCount: 2
Fore
SplineSet
59 763 m 1,0,1
 59 745 59 745 59 689 c 1,2,3
 183 689 183 689 557 689 c 1,4,5
 557 707 557 707 557 763 c 1,6,7
 433 763 433 763 59 763 c 1,0,1
EndSplineSet
EndChar

StartChar: degree
Encoding: 176 176 114
Width: 616
Flags: W
LayerCount: 2
Fore
SplineSet
308 760 m 0,0,1
 275 760 275 760 246 748 c 0,2,3
 218 737 218 737 196 713 c 0,4,5
 172 690 172 690 161 662 c 0,6,7
 149 633 149 633 149 600 c 0,8,9
 149 566 149 566 161 538 c 0,10,11
 172 510 172 510 195 488 c 0,12,13
 217 465 217 465 245 454 c 256,14,15
 273 443 273 443 307 443 c 0,16,17
 340 443 340 443 369 454 c 0,18,19
 397 465 397 465 420 488 c 0,20,21
 444 511 444 511 455 539 c 0,22,23
 467 567 467 567 467 600 c 0,24,25
 467 617 467 617 464 632 c 256,26,27
 461 647 461 647 455 661 c 0,28,29
 449 676 449 676 441 688 c 0,30,31
 432 701 432 701 421 712 c 0,32,33
 410 724 410 724 397 733 c 256,34,35
 384 742 384 742 369 748 c 0,36,37
 355 754 355 754 339 757 c 256,38,39
 323 760 323 760 308 760 c 0,0,1
307 696 m 256,40,41
 327 696 327 696 343 688 c 0,42,43
 360 681 360 681 375 668 c 0,44,45
 388 653 388 653 395 636 c 0,46,47
 403 619 403 619 403 600 c 256,48,49
 403 581 403 581 395 564 c 0,50,51
 388 547 388 547 374 533 c 0,52,53
 360 520 360 520 343 513 c 256,54,55
 326 506 326 506 306 506 c 256,56,57
 286 506 286 506 269 513 c 256,58,59
 252 520 252 520 239 533 c 0,60,61
 226 547 226 547 219 563 c 0,62,63
 212 580 212 580 212 600 c 256,64,65
 212 620 212 620 219 637 c 256,66,67
 226 654 226 654 239 668 c 0,68,69
 253 681 253 681 270 688 c 0,70,71
 287 696 287 696 307 696 c 256,40,41
EndSplineSet
EndChar

StartChar: plusminus
Encoding: 177 177 115
Width: 616
Flags: W
LayerCount: 2
Fore
SplineSet
44 85 m 1,0,1
 44 64 44 64 44 0 c 1,2,3
 176 0 176 0 572 0 c 1,4,5
 572 21 572 21 572 85 c 1,6,7
 440 85 440 85 44 85 c 1,0,1
350 645 m 1,8,9
 329 645 329 645 266 645 c 1,10,11
 266 599 266 599 266 461 c 1,12,13
 210 461 210 461 44 461 c 1,14,15
 44 440 44 440 44 376 c 1,16,17
 99 376 99 376 266 376 c 1,18,19
 266 330 266 330 266 190 c 1,20,21
 287 190 287 190 350 190 c 1,22,23
 350 237 350 237 350 376 c 1,24,25
 406 376 406 376 572 376 c 1,26,27
 572 397 572 397 572 461 c 1,28,29
 517 461 517 461 350 461 c 1,30,31
 350 507 350 507 350 645 c 1,8,9
EndSplineSet
EndChar

StartChar: twosuperior
Encoding: 178 178 116
Width: 616
Flags: W
LayerCount: 2
Fore
SplineSet
241 391 m 1,0,1
 268 417 268 417 347 493 c 0,2,3
 377 523 377 523 396 545 c 0,4,5
 416 566 416 566 425 581 c 256,6,7
 434 596 434 596 439 611 c 256,8,9
 444 626 444 626 444 640 c 0,10,11
 444 667 444 667 433 688 c 0,12,13
 422 710 422 710 400 727 c 0,14,15
 379 743 379 743 350 751 c 0,16,17
 322 759 322 759 287 759 c 0,18,19
 272 759 272 759 257 757 c 256,20,21
 242 755 242 755 227 752 c 0,22,23
 212 748 212 748 196 743 c 256,24,25
 180 738 180 738 164 731 c 1,26,27
 164 710 164 710 164 668 c 1,28,29
 180 677 180 677 194 684 c 0,30,31
 209 691 209 691 224 695 c 0,32,33
 238 700 238 700 251 702 c 256,34,35
 264 704 264 704 276 704 c 0,36,37
 297 704 297 704 313 700 c 0,38,39
 330 695 330 695 343 686 c 0,40,41
 355 676 355 676 361 663 c 0,42,43
 368 651 368 651 368 636 c 0,44,45
 368 623 368 623 362 609 c 0,46,47
 357 595 357 595 347 580 c 256,48,49
 337 565 337 565 319 545 c 0,50,51
 302 525 302 525 276 501 c 0,52,53
 238 463 238 463 161 388 c 1,54,55
 161 374 161 374 161 333 c 1,56,57
 232 333 232 333 447 333 c 1,58,59
 447 347 447 347 447 390 c 1,60,61
 395 390 395 390 241 391 c 1,0,1
EndSplineSet
EndChar

StartChar: threesuperior
Encoding: 179 179 117
Width: 616
Flags: W
LayerCount: 2
Fore
SplineSet
365 560 m 1,0,1
 386 565 386 565 402 573 c 256,2,3
 418 581 418 581 429 592 c 0,4,5
 440 604 440 604 446 619 c 256,6,7
 452 634 452 634 452 652 c 0,8,9
 452 676 452 676 441 696 c 256,10,11
 430 716 430 716 409 731 c 0,12,13
 388 745 388 745 360 753 c 0,14,15
 331 760 331 760 295 760 c 0,16,17
 282 760 282 760 269 759 c 0,18,19
 255 758 255 758 240 756 c 0,20,21
 226 753 226 753 210 750 c 256,22,23
 194 747 194 747 177 743 c 1,24,25
 177 722 177 722 177 682 c 1,26,27
 192 688 192 688 206 692 c 0,28,29
 220 697 220 697 235 700 c 0,30,31
 248 703 248 703 261 704 c 0,32,33
 273 705 273 705 284 705 c 0,34,35
 306 705 306 705 323 701 c 256,36,37
 340 697 340 697 352 689 c 0,38,39
 364 682 364 682 370 671 c 256,40,41
 376 660 376 660 376 646 c 0,42,43
 376 631 376 631 370 619 c 0,44,45
 364 608 364 608 352 600 c 0,46,47
 339 592 339 592 321 588 c 0,48,49
 304 584 304 584 280 584 c 0,50,51
 268 584 268 584 244 584 c 1,52,53
 244 571 244 571 244 531 c 1,54,55
 252 531 252 531 276 531 c 0,56,57
 303 531 303 531 324 526 c 256,58,59
 345 521 345 521 359 512 c 0,60,61
 372 502 372 502 379 488 c 256,62,63
 386 474 386 474 386 456 c 256,64,65
 386 438 386 438 379 425 c 0,66,67
 371 411 371 411 356 401 c 256,68,69
 341 391 341 391 322 386 c 0,70,71
 302 381 302 381 276 381 c 0,72,73
 265 381 265 381 252 383 c 0,74,75
 240 384 240 384 225 388 c 0,76,77
 211 391 211 391 196 396 c 0,78,79
 180 401 180 401 163 408 c 1,80,81
 163 387 163 387 163 347 c 1,82,83
 178 342 178 342 192 338 c 0,84,85
 207 334 207 334 221 332 c 0,86,87
 235 329 235 329 250 328 c 0,88,89
 264 327 264 327 279 327 c 0,90,91
 323 327 323 327 357 335 c 256,92,93
 391 343 391 343 415 360 c 0,94,95
 438 377 438 377 450 400 c 0,96,97
 462 424 462 424 462 456 c 0,98,99
 462 475 462 475 456 492 c 0,100,101
 449 509 449 509 437 523 c 0,102,103
 425 536 425 536 407 545 c 0,104,105
 389 555 389 555 365 560 c 1,0,1
EndSplineSet
EndChar

StartChar: acute
Encoding: 180 180 118
Width: 616
Flags: W
LayerCount: 2
Fore
SplineSet
378 819 m 1,0,1
 343 772 343 772 237 631 c 1,2,3
 257 631 257 631 315 631 c 1,4,5
 355 678 355 678 477 819 c 1,6,7
 452 819 452 819 378 819 c 1,0,1
EndSplineSet
EndChar

StartChar: mu
Encoding: 181 181 119
Width: 616
Flags: W
LayerCount: 2
Fore
SplineSet
97 -214 m 1,0,1
 118 -214 118 -214 181 -214 c 1,2,3
 181 -145 181 -145 181 64 c 1,4,5
 192 43 192 43 205 29 c 0,6,7
 219 14 219 14 235 4 c 0,8,9
 250 -5 250 -5 270 -10 c 0,10,11
 289 -15 289 -15 312 -15 c 256,12,13
 335 -15 335 -15 354 -10 c 0,14,15
 374 -5 374 -5 390 5 c 0,16,17
 407 15 407 15 421 29 c 0,18,19
 435 44 435 44 447 64 c 1,20,21
 450 45 450 45 456 30 c 256,22,23
 462 15 462 15 471 5 c 256,24,25
 480 -5 480 -5 493 -10 c 0,26,27
 505 -15 505 -15 521 -15 c 0,28,29
 529 -15 529 -15 538 -13 c 0,30,31
 546 -12 546 -12 555 -9 c 0,32,33
 563 -6 563 -6 572 -2 c 256,34,35
 581 2 581 2 591 8 c 1,36,37
 591 33 591 33 591 82 c 1,38,39
 584 79 584 79 579 76 c 0,40,41
 573 74 573 74 569 73 c 0,42,43
 566 72 566 72 563 71 c 0,44,45
 560 71 560 71 558 71 c 0,46,47
 550 71 550 71 544 74 c 0,48,49
 537 77 537 77 533 84 c 256,50,51
 529 91 529 91 527 102 c 256,52,53
 525 113 525 113 525 128 c 0,54,55
 525 272 525 272 525 560 c 1,56,57
 502 560 502 560 433 560 c 1,58,59
 433 478 433 478 433 233 c 0,60,61
 433 192 433 192 425 160 c 0,62,63
 417 129 417 129 400 108 c 0,64,65
 384 87 384 87 360 76 c 0,66,67
 337 65 337 65 305 65 c 0,68,69
 277 65 277 65 256 75 c 0,70,71
 235 84 235 84 220 103 c 256,72,73
 205 122 205 122 197 149 c 256,74,75
 189 176 189 176 189 212 c 0,76,77
 189 328 189 328 189 560 c 1,78,79
 166 560 166 560 97 560 c 1,80,81
 97 536 97 536 97 463 c 0,82,83
 97 294 97 294 97 -214 c 1,0,1
EndSplineSet
EndChar

StartChar: paragraph
Encoding: 182 182 120
Width: 616
Flags: W
LayerCount: 2
Fore
SplineSet
291 747 m 0,0,1
 237 747 237 747 194 732 c 256,2,3
 151 717 151 717 118 688 c 256,4,5
 85 659 85 659 69 621 c 256,6,7
 53 583 53 583 53 536 c 256,8,9
 53 489 53 489 68 453 c 0,10,11
 82 416 82 416 112 388 c 0,12,13
 141 360 141 360 183 344 c 0,14,15
 225 329 225 329 279 324 c 1,16,17
 279 183 279 183 279 -99 c 1,18,19
 296 -99 296 -99 349 -99 c 1,20,21
 349 97 349 97 349 685 c 1,22,23
 373 685 373 685 444 685 c 1,24,25
 444 489 444 489 444 -99 c 1,26,27
 462 -99 462 -99 515 -99 c 1,28,29
 515 113 515 113 515 747 c 1,30,31
 459 747 459 747 291 747 c 0,0,1
EndSplineSet
EndChar

StartChar: periodcentered
Encoding: 183 183 121
Width: 616
Flags: W
LayerCount: 2
Fore
SplineSet
244 432 m 1,0,1
 244 394 244 394 244 280 c 1,2,3
 276 280 276 280 371 280 c 1,4,5
 371 318 371 318 371 432 c 1,6,7
 339 432 339 432 244 432 c 1,0,1
EndSplineSet
EndChar

StartChar: cedilla
Encoding: 184 184 122
Width: 616
Flags: W
LayerCount: 2
Fore
SplineSet
350 0 m 0,0,1
 347 0 347 0 337 0 c 0,2,3
 325 0 325 0 291 0 c 1,4,5
 302 -15 302 -15 310 -29 c 0,6,7
 318 -42 318 -42 324 -52 c 0,8,9
 329 -63 329 -63 332 -72 c 0,10,11
 335 -82 335 -82 335 -89 c 0,12,13
 335 -101 335 -101 331 -109 c 0,14,15
 327 -118 327 -118 320 -124 c 0,16,17
 312 -130 312 -130 301 -133 c 256,18,19
 290 -136 290 -136 276 -136 c 0,20,21
 264 -136 264 -136 253 -135 c 256,22,23
 242 -134 242 -134 233 -132 c 0,24,25
 224 -131 224 -131 215 -128 c 256,26,27
 206 -125 206 -125 197 -120 c 1,28,29
 197 -142 197 -142 197 -185 c 1,30,31
 208 -188 208 -188 219 -191 c 0,32,33
 230 -193 230 -193 241 -195 c 0,34,35
 252 -196 252 -196 263 -197 c 0,36,37
 274 -197 274 -197 285 -197 c 0,38,39
 315 -197 315 -197 337 -192 c 0,40,41
 360 -186 360 -186 375 -175 c 256,42,43
 390 -164 390 -164 397 -147 c 256,44,45
 404 -130 404 -130 404 -108 c 0,46,47
 404 -96 404 -96 401 -83 c 0,48,49
 398 -71 398 -71 391 -57 c 0,50,51
 384 -44 384 -44 374 -30 c 256,52,53
 364 -16 364 -16 350 0 c 0,0,1
EndSplineSet
EndChar

StartChar: onesuperior
Encoding: 185 185 123
Width: 616
Flags: W
LayerCount: 2
Fore
SplineSet
181 389 m 1,0,1
 181 375 181 375 181 334 c 1,2,3
 250 334 250 334 457 334 c 1,4,5
 457 348 457 348 457 389 c 1,6,7
 432 389 432 389 356 389 c 1,8,9
 356 480 356 480 356 752 c 1,10,11
 338 752 338 752 287 752 c 1,12,13
 258 747 258 747 172 732 c 1,14,15
 172 717 172 717 172 674 c 1,16,17
 200 679 200 679 284 695 c 1,18,19
 284 618 284 618 284 389 c 1,20,21
 258 389 258 389 181 389 c 1,0,1
EndSplineSet
EndChar

StartChar: ordmasculine
Encoding: 186 186 124
Width: 616
Flags: W
LayerCount: 2
Fore
SplineSet
308 701 m 256,0,1
 334 701 334 701 354 692 c 0,2,3
 374 682 374 682 388 663 c 0,4,5
 402 643 402 643 410 616 c 0,6,7
 417 588 417 588 417 554 c 256,8,9
 417 520 417 520 410 493 c 0,10,11
 402 466 402 466 388 447 c 0,12,13
 373 427 373 427 353 417 c 0,14,15
 333 408 333 408 308 408 c 0,16,17
 282 408 282 408 262 417 c 0,18,19
 242 427 242 427 228 446 c 256,20,21
 214 465 214 465 207 492 c 256,22,23
 200 519 200 519 200 554 c 0,24,25
 200 588 200 588 207 616 c 0,26,27
 214 643 214 643 228 663 c 0,28,29
 242 682 242 682 262 692 c 0,30,31
 282 701 282 701 308 701 c 256,0,1
308 760 m 256,32,33
 266 760 266 760 232 746 c 256,34,35
 198 732 198 732 172 704 c 0,36,37
 147 676 147 676 134 638 c 0,38,39
 122 601 122 601 122 554 c 256,40,41
 122 507 122 507 134 470 c 0,42,43
 147 432 147 432 172 404 c 0,44,45
 198 377 198 377 231 363 c 0,46,47
 265 349 265 349 308 349 c 256,48,49
 351 349 351 349 385 363 c 0,50,51
 418 377 418 377 444 404 c 0,52,53
 469 432 469 432 482 470 c 0,54,55
 495 507 495 507 495 554 c 256,56,57
 495 601 495 601 482 638 c 0,58,59
 469 676 469 676 444 704 c 0,60,61
 418 732 418 732 384 746 c 256,62,63
 350 760 350 760 308 760 c 256,32,33
138 296 m 1,64,65
 138 281 138 281 138 235 c 1,66,67
 222 235 222 235 476 235 c 1,68,69
 476 250 476 250 476 296 c 1,70,71
 391 296 391 296 138 296 c 1,64,65
EndSplineSet
EndChar

StartChar: guillemotright
Encoding: 187 187 125
Width: 616
Flags: W
LayerCount: 2
Fore
SplineSet
324 529 m 1,0,1
 324 506 324 506 324 434 c 1,2,3
 361 400 361 400 474 300 c 1,4,5
 436 267 436 267 324 166 c 1,6,7
 324 142 324 142 324 71 c 1,8,9
 382 123 382 123 558 280 c 1,10,11
 558 290 558 290 558 320 c 1,12,13
 499 373 499 373 324 529 c 1,0,1
96 529 m 1,14,15
 96 506 96 506 96 434 c 1,16,17
 134 400 134 400 247 300 c 1,18,19
 209 267 209 267 96 166 c 1,20,21
 96 142 96 142 96 71 c 1,22,23
 155 123 155 123 331 280 c 1,24,25
 331 290 331 290 331 320 c 1,26,27
 272 373 272 373 96 529 c 1,14,15
EndSplineSet
EndChar

StartChar: onequarter
Encoding: 188 188 126
Width: 616
Flags: W
LayerCount: 2
Fore
SplineSet
408 283 m 1,0,1
 362 217 362 217 226 19 c 1,2,3
 226 4 226 4 226 -41 c 1,4,5
 274 -41 274 -41 420 -41 c 1,6,7
 420 -65 420 -65 420 -135 c 1,8,9
 437 -135 437 -135 488 -135 c 1,10,11
 488 -111 488 -111 488 -41 c 1,12,13
 503 -41 503 -41 547 -41 c 1,14,15
 547 -28 547 -28 547 14 c 1,16,17
 532 14 532 14 488 14 c 1,18,19
 488 81 488 81 488 283 c 1,20,21
 468 283 468 283 408 283 c 1,0,1
420 220 m 1,22,23
 420 169 420 169 420 14 c 1,24,25
 385 14 385 14 283 14 c 1,26,27
 317 66 317 66 420 220 c 1,22,23
52 467 m 1,28,29
 52 453 52 453 52 412 c 1,30,31
 122 412 122 412 329 412 c 1,32,33
 329 426 329 426 329 467 c 1,34,35
 303 467 303 467 227 467 c 1,36,37
 227 558 227 558 227 829 c 1,38,39
 210 829 210 829 158 829 c 1,40,41
 129 825 129 825 44 810 c 1,42,43
 44 795 44 795 44 752 c 1,44,45
 71 757 71 757 155 772 c 1,46,47
 155 696 155 696 155 467 c 1,48,49
 129 467 129 467 52 467 c 1,28,29
25 252 m 1,50,51
 158 285 158 285 557 383 c 1,52,53
 554 397 554 397 544 437 c 1,54,55
 411 404 411 404 13 306 c 1,56,57
 16 292 16 292 25 252 c 1,50,51
EndSplineSet
EndChar

StartChar: onehalf
Encoding: 189 189 127
Width: 616
Flags: W
LayerCount: 2
Fore
SplineSet
52 467 m 1,0,1
 52 453 52 453 52 412 c 1,2,3
 122 412 122 412 329 412 c 1,4,5
 329 426 329 426 329 467 c 1,6,7
 303 467 303 467 227 467 c 1,8,9
 227 558 227 558 227 829 c 1,10,11
 210 829 210 829 158 829 c 1,12,13
 129 825 129 825 44 810 c 1,14,15
 44 795 44 795 44 752 c 1,16,17
 71 757 71 757 155 772 c 1,18,19
 155 696 155 696 155 467 c 1,20,21
 129 467 129 467 52 467 c 1,0,1
25 252 m 1,22,23
 158 285 158 285 557 383 c 1,24,25
 554 397 554 397 544 437 c 1,26,27
 411 404 411 404 13 306 c 1,28,29
 16 292 16 292 25 252 c 1,22,23
342 -77 m 1,30,31
 368 -52 368 -52 448 25 c 0,32,33
 477 54 477 54 497 76 c 0,34,35
 516 98 516 98 525 113 c 256,36,37
 534 128 534 128 539 143 c 0,38,39
 544 157 544 157 544 172 c 0,40,41
 544 198 544 198 533 220 c 0,42,43
 522 241 522 241 501 258 c 0,44,45
 479 274 479 274 451 283 c 0,46,47
 422 292 422 292 387 292 c 0,48,49
 372 292 372 292 357 290 c 256,50,51
 342 288 342 288 327 284 c 0,52,53
 312 281 312 281 296 275 c 0,54,55
 281 269 281 269 264 263 c 1,56,57
 264 242 264 242 264 200 c 1,58,59
 280 209 280 209 295 216 c 256,60,61
 310 223 310 223 324 227 c 256,62,63
 338 231 338 231 351 234 c 0,64,65
 365 236 365 236 377 236 c 0,66,67
 397 236 397 236 414 231 c 0,68,69
 430 226 430 226 443 217 c 0,70,71
 455 207 455 207 462 195 c 0,72,73
 468 182 468 182 468 167 c 0,74,75
 468 155 468 155 463 141 c 0,76,77
 458 126 458 126 448 111 c 0,78,79
 437 96 437 96 420 76 c 0,80,81
 402 56 402 56 377 32 c 0,82,83
 338 -5 338 -5 261 -81 c 1,84,85
 261 -94 261 -94 261 -136 c 1,86,87
 333 -136 333 -136 547 -136 c 1,88,89
 547 -121 547 -121 547 -78 c 1,90,91
 496 -78 496 -78 342 -77 c 1,30,31
EndSplineSet
EndChar

StartChar: threequarters
Encoding: 190 190 128
Width: 616
Flags: W
LayerCount: 2
Fore
SplineSet
408 283 m 1,0,1
 362 217 362 217 226 19 c 1,2,3
 226 4 226 4 226 -41 c 1,4,5
 274 -41 274 -41 420 -41 c 1,6,7
 420 -65 420 -65 420 -135 c 1,8,9
 437 -135 437 -135 488 -135 c 1,10,11
 488 -111 488 -111 488 -41 c 1,12,13
 503 -41 503 -41 547 -41 c 1,14,15
 547 -28 547 -28 547 14 c 1,16,17
 532 14 532 14 488 14 c 1,18,19
 488 81 488 81 488 283 c 1,20,21
 468 283 468 283 408 283 c 1,0,1
420 220 m 1,22,23
 420 169 420 169 420 14 c 1,24,25
 385 14 385 14 283 14 c 1,26,27
 317 66 317 66 420 220 c 1,22,23
252 638 m 1,28,29
 273 643 273 643 289 651 c 256,30,31
 305 659 305 659 316 671 c 0,32,33
 327 682 327 682 333 697 c 0,34,35
 339 711 339 711 339 729 c 0,36,37
 339 754 339 754 328 774 c 0,38,39
 317 793 317 793 296 808 c 256,40,41
 275 823 275 823 247 831 c 0,42,43
 218 838 218 838 182 838 c 0,44,45
 169 838 169 838 156 837 c 0,46,47
 142 836 142 836 128 833 c 0,48,49
 113 831 113 831 97 828 c 256,50,51
 81 825 81 825 64 820 c 1,52,53
 64 800 64 800 64 760 c 1,54,55
 79 766 79 766 93 770 c 256,56,57
 107 774 107 774 121 777 c 256,58,59
 135 780 135 780 148 782 c 0,60,61
 160 784 160 784 172 784 c 0,62,63
 193 784 193 784 210 779 c 0,64,65
 227 775 227 775 239 768 c 0,66,67
 251 760 251 760 257 749 c 256,68,69
 263 738 263 738 263 724 c 0,70,71
 263 709 263 709 257 697 c 0,72,73
 251 686 251 686 239 678 c 0,74,75
 226 670 226 670 208 666 c 0,76,77
 191 663 191 663 168 663 c 0,78,79
 155 663 155 663 131 663 c 1,80,81
 131 649 131 649 131 608 c 1,82,83
 139 608 139 608 164 608 c 0,84,85
 191 608 191 608 211 604 c 0,86,87
 232 599 232 599 245 589 c 0,88,89
 259 580 259 580 266 566 c 256,90,91
 273 552 273 552 273 533 c 0,92,93
 273 516 273 516 266 503 c 0,94,95
 258 489 258 489 244 479 c 0,96,97
 229 469 229 469 209 464 c 256,98,99
 189 459 189 459 164 459 c 0,100,101
 152 459 152 459 140 461 c 0,102,103
 127 462 127 462 112 465 c 0,104,105
 98 468 98 468 83 474 c 0,106,107
 67 479 67 479 50 485 c 1,108,109
 50 465 50 465 50 425 c 1,110,111
 65 420 65 420 79 416 c 0,112,113
 94 412 94 412 108 409 c 0,114,115
 122 407 122 407 137 406 c 0,116,117
 151 404 151 404 165 404 c 0,118,119
 210 404 210 404 244 413 c 0,120,121
 277 421 277 421 301 438 c 256,122,123
 325 455 325 455 337 478 c 0,124,125
 349 502 349 502 349 533 c 0,126,127
 349 553 349 553 343 570 c 0,128,129
 336 587 336 587 324 600 c 0,130,131
 312 614 312 614 294 623 c 0,132,133
 276 633 276 633 252 638 c 1,28,29
25 252 m 1,134,135
 158 285 158 285 557 383 c 1,136,137
 554 397 554 397 544 437 c 1,138,139
 411 404 411 404 13 306 c 1,140,141
 16 292 16 292 25 252 c 1,134,135
EndSplineSet
EndChar

StartChar: questiondown
Encoding: 191 191 129
Width: 616
Flags: W
LayerCount: 2
Fore
SplineSet
275 546 m 1,0,1
 275 531 275 531 275 484 c 0,2,3
 275 480 275 480 274 474 c 0,4,5
 274 469 274 469 273 464 c 0,6,7
 273 463 273 463 273 461 c 0,8,9
 273 445 273 445 271 432 c 256,10,11
 269 419 269 419 264 408 c 0,12,13
 259 398 259 398 248 385 c 0,14,15
 238 371 238 371 221 356 c 0,16,17
 206 341 206 341 177 312 c 0,18,19
 153 289 153 289 137 270 c 0,20,21
 121 250 121 250 113 233 c 0,22,23
 105 217 105 217 101 199 c 0,24,25
 96 182 96 182 96 163 c 0,26,27
 96 122 96 122 110 91 c 0,28,29
 124 59 124 59 152 35 c 0,30,31
 179 11 179 11 216 -1 c 0,32,33
 254 -13 254 -13 300 -13 c 0,34,35
 326 -13 326 -13 351 -10 c 256,36,37
 376 -7 376 -7 400 0 c 256,38,39
 424 7 424 7 447 18 c 0,40,41
 471 29 471 29 495 43 c 1,42,43
 495 74 495 74 495 137 c 1,44,45
 470 120 470 120 446 107 c 0,46,47
 423 94 423 94 401 85 c 0,48,49
 379 77 379 77 358 73 c 0,50,51
 337 68 337 68 317 68 c 0,52,53
 290 68 290 68 268 75 c 0,54,55
 247 82 247 82 230 96 c 0,56,57
 214 109 214 109 205 127 c 0,58,59
 197 145 197 145 197 168 c 0,60,61
 197 180 197 180 200 192 c 0,62,63
 203 203 203 203 209 215 c 0,64,65
 215 225 215 225 226 238 c 0,66,67
 236 251 236 251 252 266 c 0,68,69
 267 281 267 281 297 311 c 0,70,71
 318 331 318 331 332 349 c 256,72,73
 346 367 346 367 354 384 c 0,74,75
 361 402 361 402 365 422 c 0,76,77
 369 443 369 443 369 468 c 0,78,79
 369 494 369 494 369 545 c 1,80,81
 346 545 346 545 275 546 c 1,0,1
372 619 m 1,82,83
 372 650 372 650 372 746 c 1,84,85
 347 746 347 746 272 746 c 1,86,87
 272 714 272 714 272 619 c 1,88,89
 297 619 297 619 372 619 c 1,82,83
EndSplineSet
EndChar

StartChar: Agrave
Encoding: 192 192 130
Width: 616
Flags: W
LayerCount: 2
Fore
SplineSet
308 657 m 1,0,1
 335 562 335 562 415 276 c 1,2,3
 361 276 361 276 201 276 c 1,4,5
 228 371 228 371 308 657 c 1,0,1
247 747 m 1,6,7
 190 560 190 560 19 0 c 1,8,9
 45 0 45 0 123 0 c 1,10,11
 137 49 137 49 177 195 c 1,12,13
 242 195 242 195 439 195 c 1,14,15
 452 146 452 146 493 0 c 1,16,17
 520 0 520 0 598 0 c 1,18,19
 541 187 541 187 369 747 c 1,20,21
 339 747 339 747 247 747 c 1,6,7
280 949 m 1,22,23
 257 949 257 949 188 949 c 1,24,25
 217 916 217 916 302 817 c 1,26,27
 321 817 321 817 379 817 c 1,28,29
 354 850 354 850 280 949 c 1,22,23
EndSplineSet
EndChar

StartChar: Aacute
Encoding: 193 193 131
Width: 616
Flags: W
LayerCount: 2
Fore
SplineSet
308 657 m 1,0,1
 335 562 335 562 415 276 c 1,2,3
 361 276 361 276 201 276 c 1,4,5
 228 371 228 371 308 657 c 1,0,1
247 747 m 1,6,7
 190 560 190 560 19 0 c 1,8,9
 45 0 45 0 123 0 c 1,10,11
 137 49 137 49 177 195 c 1,12,13
 242 195 242 195 439 195 c 1,14,15
 452 146 452 146 493 0 c 1,16,17
 520 0 520 0 598 0 c 1,18,19
 541 187 541 187 369 747 c 1,20,21
 339 747 339 747 247 747 c 1,6,7
336 949 m 1,22,23
 311 916 311 916 237 817 c 1,24,25
 257 817 257 817 315 817 c 1,26,27
 343 850 343 850 429 949 c 1,28,29
 406 949 406 949 336 949 c 1,22,23
EndSplineSet
EndChar

StartChar: Acircumflex
Encoding: 194 194 132
Width: 616
Flags: W
LayerCount: 2
Fore
SplineSet
308 657 m 1,0,1
 335 562 335 562 415 276 c 1,2,3
 361 276 361 276 201 276 c 1,4,5
 228 371 228 371 308 657 c 1,0,1
247 747 m 1,6,7
 190 560 190 560 19 0 c 1,8,9
 45 0 45 0 123 0 c 1,10,11
 137 49 137 49 177 195 c 1,12,13
 242 195 242 195 439 195 c 1,14,15
 452 146 452 146 493 0 c 1,16,17
 520 0 520 0 598 0 c 1,18,19
 541 187 541 187 369 747 c 1,20,21
 339 747 339 747 247 747 c 1,6,7
261 951 m 1,22,23
 235 917 235 917 156 817 c 1,24,25
 173 817 173 817 225 817 c 1,26,27
 246 840 246 840 308 907 c 1,28,29
 329 884 329 884 391 817 c 1,30,31
 409 817 409 817 461 817 c 1,32,33
 435 851 435 851 356 951 c 1,34,35
 332 951 332 951 261 951 c 1,22,23
EndSplineSet
EndChar

StartChar: Atilde
Encoding: 195 195 133
Width: 616
Flags: W
LayerCount: 2
Fore
SplineSet
308 657 m 1,0,1
 335 562 335 562 415 276 c 1,2,3
 361 276 361 276 201 276 c 1,4,5
 228 371 228 371 308 657 c 1,0,1
247 747 m 1,6,7
 190 560 190 560 19 0 c 1,8,9
 45 0 45 0 123 0 c 1,10,11
 137 49 137 49 177 195 c 1,12,13
 242 195 242 195 439 195 c 1,14,15
 452 146 452 146 493 0 c 1,16,17
 520 0 520 0 598 0 c 1,18,19
 541 187 541 187 369 747 c 1,20,21
 339 747 339 747 247 747 c 1,6,7
306 855 m 0,22,23
 319 848 319 848 329 844 c 0,24,25
 339 839 339 839 347 837 c 0,26,27
 354 835 354 835 362 834 c 256,28,29
 370 833 370 833 379 833 c 0,30,31
 400 833 400 833 417 841 c 0,32,33
 434 848 434 848 447 863 c 0,34,35
 459 878 459 878 466 898 c 0,36,37
 472 918 472 918 473 943 c 1,38,39
 452 943 452 943 411 943 c 1,40,41
 411 942 411 942 411 940 c 0,42,43
 411 930 411 930 408 921 c 0,44,45
 405 913 405 913 400 907 c 0,46,47
 395 900 395 900 389 897 c 0,48,49
 382 894 382 894 375 894 c 0,50,51
 371 894 371 894 367 895 c 256,52,53
 363 896 363 896 359 897 c 0,54,55
 354 899 354 899 349 901 c 256,56,57
 344 903 344 903 339 907 c 0,58,59
 330 912 330 912 311 921 c 0,60,61
 298 928 298 928 288 933 c 0,62,63
 278 937 278 937 271 939 c 0,64,65
 263 941 263 941 255 942 c 0,66,67
 246 943 246 943 237 943 c 0,68,69
 216 943 216 943 199 936 c 0,70,71
 182 928 182 928 169 913 c 256,72,73
 156 898 156 898 150 879 c 0,74,75
 144 859 144 859 144 833 c 1,76,77
 164 833 164 833 206 833 c 1,78,79
 206 834 206 834 206 836 c 0,80,81
 206 848 206 848 208 856 c 0,82,83
 211 865 211 865 216 872 c 0,84,85
 221 878 221 878 228 881 c 256,86,87
 235 884 235 884 244 884 c 0,88,89
 247 884 247 884 250 883 c 0,90,91
 253 883 253 883 257 881 c 0,92,93
 261 880 261 880 266 877 c 0,94,95
 271 875 271 875 277 872 c 0,96,97
 287 866 287 866 306 855 c 0,22,23
EndSplineSet
EndChar

StartChar: Adieresis
Encoding: 196 196 134
Width: 616
Flags: W
LayerCount: 2
Fore
SplineSet
308 657 m 1,0,1
 335 562 335 562 415 276 c 1,2,3
 361 276 361 276 201 276 c 1,4,5
 228 371 228 371 308 657 c 1,0,1
247 747 m 1,6,7
 190 560 190 560 19 0 c 1,8,9
 45 0 45 0 123 0 c 1,10,11
 137 49 137 49 177 195 c 1,12,13
 242 195 242 195 439 195 c 1,14,15
 452 146 452 146 493 0 c 1,16,17
 520 0 520 0 598 0 c 1,18,19
 541 187 541 187 369 747 c 1,20,21
 339 747 339 747 247 747 c 1,6,7
160 935 m 1,22,23
 160 910 160 910 160 833 c 1,24,25
 185 833 185 833 261 833 c 1,26,27
 261 859 261 859 261 935 c 1,28,29
 236 935 236 935 160 935 c 1,22,23
356 935 m 1,30,31
 356 910 356 910 356 833 c 1,32,33
 381 833 381 833 456 833 c 1,34,35
 456 859 456 859 456 935 c 1,36,37
 431 935 431 935 356 935 c 1,30,31
EndSplineSet
EndChar

StartChar: Aring
Encoding: 197 197 135
Width: 616
Flags: W
LayerCount: 2
Fore
SplineSet
384 813 m 256,0,1
 384 797 384 797 378 784 c 0,2,3
 373 770 373 770 361 760 c 0,4,5
 350 748 350 748 337 743 c 0,6,7
 324 737 324 737 308 737 c 256,8,9
 292 737 292 737 279 743 c 0,10,11
 265 748 265 748 255 760 c 0,12,13
 243 770 243 770 238 784 c 0,14,15
 232 797 232 797 232 813 c 256,16,17
 232 829 232 829 238 843 c 0,18,19
 243 856 243 856 254 867 c 256,20,21
 265 878 265 878 278 883 c 0,22,23
 292 889 292 889 308 889 c 256,24,25
 324 889 324 889 337 883 c 0,26,27
 350 878 350 878 361 867 c 0,28,29
 373 855 373 855 378 842 c 0,30,31
 384 829 384 829 384 813 c 256,0,1
308 656 m 1,32,33
 335 561 335 561 415 276 c 1,34,35
 361 276 361 276 201 276 c 1,36,37
 228 371 228 371 308 656 c 1,32,33
232 700 m 1,38,39
 179 525 179 525 19 0 c 1,40,41
 45 0 45 0 123 0 c 1,42,43
 137 49 137 49 177 195 c 1,44,45
 242 195 242 195 439 195 c 1,46,47
 452 146 452 146 493 0 c 1,48,49
 520 0 520 0 598 0 c 1,50,51
 545 175 545 175 384 700 c 1,52,53
 399 709 399 709 410 720 c 0,54,55
 421 732 421 732 429 747 c 256,56,57
 437 762 437 762 441 778 c 0,58,59
 445 795 445 795 445 813 c 0,60,61
 445 842 445 842 435 866 c 256,62,63
 425 890 425 890 405 910 c 256,64,65
 385 930 385 930 361 940 c 0,66,67
 336 951 336 951 308 951 c 256,68,69
 280 951 280 951 255 940 c 0,70,71
 231 930 231 930 211 910 c 256,72,73
 191 890 191 890 181 866 c 256,74,75
 171 842 171 842 171 813 c 0,76,77
 171 795 171 795 175 778 c 256,78,79
 179 761 179 761 187 746 c 256,80,81
 195 731 195 731 207 719 c 0,82,83
 218 708 218 708 232 700 c 1,38,39
EndSplineSet
EndChar

StartChar: AE
Encoding: 198 198 136
Width: 616
Flags: W
LayerCount: 2
Fore
SplineSet
580 747 m 1,0,1
 487 747 487 747 205 747 c 1,2,3
 154 560 154 560 0 0 c 1,4,5
 23 0 23 0 92 0 c 1,6,7
 105 48 105 48 143 192 c 1,8,9
 187 192 187 192 319 192 c 1,10,11
 319 144 319 144 319 0 c 1,12,13
 386 0 386 0 590 0 c 1,14,15
 590 21 590 21 590 85 c 1,16,17
 545 85 545 85 412 85 c 1,18,19
 412 153 412 153 412 356 c 1,20,21
 450 356 450 356 565 356 c 1,22,23
 565 377 565 377 565 440 c 1,24,25
 527 440 527 440 412 440 c 1,26,27
 412 496 412 496 412 661 c 1,28,29
 454 661 454 661 580 661 c 1,30,31
 580 683 580 683 580 747 c 1,0,1
265 661 m 1,32,33
 278 661 278 661 319 661 c 1,34,35
 319 565 319 565 319 276 c 1,36,37
 280 276 280 276 164 276 c 1,38,39
 189 372 189 372 265 661 c 1,32,33
EndSplineSet
EndChar

StartChar: Ccedilla
Encoding: 199 199 137
Width: 616
Flags: W
LayerCount: 2
Fore
SplineSet
400 0 m 0,0,1
 397 0 397 0 387 0 c 0,2,3
 375 0 375 0 341 0 c 1,4,5
 352 -15 352 -15 360 -29 c 0,6,7
 368 -42 368 -42 374 -52 c 0,8,9
 379 -63 379 -63 382 -72 c 0,10,11
 385 -82 385 -82 385 -89 c 0,12,13
 385 -101 385 -101 381 -109 c 0,14,15
 377 -118 377 -118 369 -124 c 0,16,17
 362 -130 362 -130 351 -133 c 256,18,19
 340 -136 340 -136 325 -136 c 0,20,21
 313 -136 313 -136 303 -135 c 0,22,23
 292 -134 292 -134 283 -132 c 0,24,25
 274 -131 274 -131 265 -128 c 256,26,27
 256 -125 256 -125 248 -120 c 1,28,29
 248 -142 248 -142 248 -185 c 1,30,31
 258 -188 258 -188 269 -191 c 0,32,33
 280 -193 280 -193 291 -195 c 0,34,35
 302 -196 302 -196 313 -197 c 0,36,37
 324 -197 324 -197 336 -197 c 0,38,39
 365 -197 365 -197 387 -192 c 0,40,41
 409 -186 409 -186 424 -175 c 256,42,43
 439 -164 439 -164 447 -147 c 256,44,45
 455 -130 455 -130 455 -108 c 0,46,47
 455 -96 455 -96 451 -83 c 0,48,49
 448 -71 448 -71 441 -57 c 0,50,51
 434 -44 434 -44 424 -30 c 256,52,53
 414 -16 414 -16 400 0 c 0,0,1
536 27 m 1,54,55
 536 52 536 52 536 130 c 1,56,57
 518 115 518 115 498 103 c 256,58,59
 478 91 478 91 457 84 c 0,60,61
 436 75 436 75 415 71 c 0,62,63
 393 68 393 68 372 68 c 0,64,65
 322 68 322 68 285 86 c 0,66,67
 248 105 248 105 224 144 c 0,68,69
 199 181 199 181 187 239 c 0,70,71
 175 296 175 296 175 372 c 0,72,73
 175 449 175 449 187 506 c 0,74,75
 199 564 199 564 224 602 c 0,76,77
 248 640 248 640 285 659 c 256,78,79
 322 678 322 678 372 678 c 0,80,81
 393 678 393 678 414 674 c 0,82,83
 436 670 436 670 457 662 c 256,84,85
 478 654 478 654 498 642 c 0,86,87
 518 631 518 631 536 616 c 1,88,89
 536 650 536 650 536 719 c 1,90,91
 517 729 517 729 497 737 c 0,92,93
 478 744 478 744 457 749 c 0,94,95
 437 755 437 755 416 757 c 0,96,97
 394 760 394 760 372 760 c 0,98,99
 300 760 300 760 244 734 c 0,100,101
 189 708 189 708 149 657 c 256,102,103
 109 606 109 606 89 535 c 256,104,105
 69 464 69 464 69 372 c 256,106,107
 69 280 69 280 89 209 c 256,108,109
 109 138 109 138 148 87 c 0,110,111
 188 36 188 36 244 11 c 0,112,113
 300 -15 300 -15 372 -15 c 0,114,115
 394 -15 394 -15 416 -12 c 0,116,117
 437 -10 437 -10 457 -4 c 0,118,119
 478 1 478 1 497 8 c 0,120,121
 517 16 517 16 536 27 c 1,54,55
EndSplineSet
EndChar

StartChar: Egrave
Encoding: 200 200 138
Width: 616
Flags: W
LayerCount: 2
Fore
SplineSet
99 747 m 1,0,1
 99 723 99 723 99 653 c 0,2,3
 99 490 99 490 99 0 c 1,4,5
 212 0 212 0 551 0 c 1,6,7
 551 21 551 21 551 85 c 1,8,9
 463 85 463 85 200 85 c 1,10,11
 200 158 200 158 200 376 c 1,12,13
 281 376 281 376 527 376 c 1,14,15
 527 397 527 397 527 460 c 1,16,17
 445 460 445 460 200 460 c 1,18,19
 200 511 200 511 200 661 c 1,20,21
 285 661 285 661 541 661 c 1,22,23
 541 683 541 683 541 747 c 1,24,25
 431 747 431 747 99 747 c 1,0,1
289 949 m 1,26,27
 266 949 266 949 197 949 c 1,28,29
 226 916 226 916 311 817 c 1,30,31
 330 817 330 817 388 817 c 1,32,33
 363 850 363 850 289 949 c 1,26,27
EndSplineSet
EndChar

StartChar: Eacute
Encoding: 201 201 139
Width: 616
Flags: W
LayerCount: 2
Fore
SplineSet
99 747 m 1,0,1
 99 723 99 723 99 653 c 0,2,3
 99 490 99 490 99 0 c 1,4,5
 212 0 212 0 551 0 c 1,6,7
 551 21 551 21 551 85 c 1,8,9
 463 85 463 85 200 85 c 1,10,11
 200 158 200 158 200 376 c 1,12,13
 281 376 281 376 527 376 c 1,14,15
 527 397 527 397 527 460 c 1,16,17
 445 460 445 460 200 460 c 1,18,19
 200 511 200 511 200 661 c 1,20,21
 285 661 285 661 541 661 c 1,22,23
 541 683 541 683 541 747 c 1,24,25
 431 747 431 747 99 747 c 1,0,1
345 949 m 1,26,27
 320 916 320 916 247 817 c 1,28,29
 266 817 266 817 324 817 c 1,30,31
 352 850 352 850 438 949 c 1,32,33
 415 949 415 949 345 949 c 1,26,27
EndSplineSet
EndChar

StartChar: Ecircumflex
Encoding: 202 202 140
Width: 616
Flags: W
LayerCount: 2
Fore
SplineSet
99 747 m 1,0,1
 99 723 99 723 99 653 c 0,2,3
 99 490 99 490 99 0 c 1,4,5
 212 0 212 0 551 0 c 1,6,7
 551 21 551 21 551 85 c 1,8,9
 463 85 463 85 200 85 c 1,10,11
 200 158 200 158 200 376 c 1,12,13
 281 376 281 376 527 376 c 1,14,15
 527 397 527 397 527 460 c 1,16,17
 445 460 445 460 200 460 c 1,18,19
 200 511 200 511 200 661 c 1,20,21
 285 661 285 661 541 661 c 1,22,23
 541 683 541 683 541 747 c 1,24,25
 431 747 431 747 99 747 c 1,0,1
270 951 m 1,26,27
 244 917 244 917 164 817 c 1,28,29
 182 817 182 817 235 817 c 1,30,31
 255 840 255 840 317 907 c 1,32,33
 338 884 338 884 400 817 c 1,34,35
 418 817 418 817 470 817 c 1,36,37
 444 851 444 851 364 951 c 1,38,39
 341 951 341 951 270 951 c 1,26,27
EndSplineSet
EndChar

StartChar: Edieresis
Encoding: 203 203 141
Width: 616
Flags: W
LayerCount: 2
Fore
SplineSet
99 747 m 1,0,1
 99 723 99 723 99 653 c 0,2,3
 99 490 99 490 99 0 c 1,4,5
 212 0 212 0 551 0 c 1,6,7
 551 21 551 21 551 85 c 1,8,9
 463 85 463 85 200 85 c 1,10,11
 200 158 200 158 200 376 c 1,12,13
 281 376 281 376 527 376 c 1,14,15
 527 397 527 397 527 460 c 1,16,17
 445 460 445 460 200 460 c 1,18,19
 200 511 200 511 200 661 c 1,20,21
 285 661 285 661 541 661 c 1,22,23
 541 683 541 683 541 747 c 1,24,25
 431 747 431 747 99 747 c 1,0,1
168 935 m 1,26,27
 168 910 168 910 168 833 c 1,28,29
 194 833 194 833 270 833 c 1,30,31
 270 859 270 859 270 935 c 1,32,33
 245 935 245 935 168 935 c 1,26,27
364 935 m 1,34,35
 364 910 364 910 364 833 c 1,36,37
 390 833 390 833 465 833 c 1,38,39
 465 859 465 859 465 935 c 1,40,41
 440 935 440 935 364 935 c 1,34,35
EndSplineSet
EndChar

StartChar: Igrave
Encoding: 204 204 142
Width: 616
Flags: W
LayerCount: 2
Fore
SplineSet
100 747 m 1,0,1
 100 725 100 725 100 661 c 1,2,3
 140 661 140 661 257 661 c 1,4,5
 257 517 257 517 257 85 c 1,6,7
 218 85 218 85 100 85 c 1,8,9
 100 64 100 64 100 0 c 1,10,11
 204 0 204 0 515 0 c 1,12,13
 515 21 515 21 515 85 c 1,14,15
 476 85 476 85 359 85 c 1,16,17
 359 229 359 229 359 661 c 1,18,19
 398 661 398 661 515 661 c 1,20,21
 515 683 515 683 515 747 c 1,22,23
 411 747 411 747 100 747 c 1,0,1
280 949 m 1,24,25
 257 949 257 949 188 949 c 1,26,27
 217 916 217 916 302 817 c 1,28,29
 321 817 321 817 379 817 c 1,30,31
 354 850 354 850 280 949 c 1,24,25
EndSplineSet
EndChar

StartChar: Iacute
Encoding: 205 205 143
Width: 616
Flags: W
LayerCount: 2
Fore
SplineSet
100 747 m 1,0,1
 100 725 100 725 100 661 c 1,2,3
 140 661 140 661 257 661 c 1,4,5
 257 517 257 517 257 85 c 1,6,7
 218 85 218 85 100 85 c 1,8,9
 100 64 100 64 100 0 c 1,10,11
 204 0 204 0 515 0 c 1,12,13
 515 21 515 21 515 85 c 1,14,15
 476 85 476 85 359 85 c 1,16,17
 359 229 359 229 359 661 c 1,18,19
 398 661 398 661 515 661 c 1,20,21
 515 683 515 683 515 747 c 1,22,23
 411 747 411 747 100 747 c 1,0,1
336 949 m 1,24,25
 311 916 311 916 237 817 c 1,26,27
 257 817 257 817 315 817 c 1,28,29
 343 850 343 850 429 949 c 1,30,31
 406 949 406 949 336 949 c 1,24,25
EndSplineSet
EndChar

StartChar: Icircumflex
Encoding: 206 206 144
Width: 616
Flags: W
LayerCount: 2
Fore
SplineSet
100 747 m 1,0,1
 100 725 100 725 100 661 c 1,2,3
 140 661 140 661 257 661 c 1,4,5
 257 517 257 517 257 85 c 1,6,7
 218 85 218 85 100 85 c 1,8,9
 100 64 100 64 100 0 c 1,10,11
 204 0 204 0 515 0 c 1,12,13
 515 21 515 21 515 85 c 1,14,15
 476 85 476 85 359 85 c 1,16,17
 359 229 359 229 359 661 c 1,18,19
 398 661 398 661 515 661 c 1,20,21
 515 683 515 683 515 747 c 1,22,23
 411 747 411 747 100 747 c 1,0,1
261 951 m 1,24,25
 235 917 235 917 156 817 c 1,26,27
 173 817 173 817 225 817 c 1,28,29
 246 840 246 840 308 907 c 1,30,31
 329 884 329 884 391 817 c 1,32,33
 409 817 409 817 461 817 c 1,34,35
 435 851 435 851 356 951 c 1,36,37
 332 951 332 951 261 951 c 1,24,25
EndSplineSet
EndChar

StartChar: Idieresis
Encoding: 207 207 145
Width: 616
Flags: W
LayerCount: 2
Fore
SplineSet
100 747 m 1,0,1
 100 725 100 725 100 661 c 1,2,3
 140 661 140 661 257 661 c 1,4,5
 257 517 257 517 257 85 c 1,6,7
 218 85 218 85 100 85 c 1,8,9
 100 64 100 64 100 0 c 1,10,11
 204 0 204 0 515 0 c 1,12,13
 515 21 515 21 515 85 c 1,14,15
 476 85 476 85 359 85 c 1,16,17
 359 229 359 229 359 661 c 1,18,19
 398 661 398 661 515 661 c 1,20,21
 515 683 515 683 515 747 c 1,22,23
 411 747 411 747 100 747 c 1,0,1
160 935 m 1,24,25
 160 910 160 910 160 833 c 1,26,27
 185 833 185 833 261 833 c 1,28,29
 261 859 261 859 261 935 c 1,30,31
 236 935 236 935 160 935 c 1,24,25
355 935 m 1,32,33
 355 910 355 910 355 833 c 1,34,35
 380 833 380 833 456 833 c 1,36,37
 456 859 456 859 456 935 c 1,38,39
 431 935 431 935 355 935 c 1,32,33
EndSplineSet
EndChar

StartChar: Eth
Encoding: 208 208 146
Width: 616
Flags: W
LayerCount: 2
Fore
SplineSet
218 747 m 0,0,1
 180 747 180 747 67 747 c 1,2,3
 67 667 67 667 67 429 c 1,4,5
 51 429 51 429 4 429 c 1,6,7
 4 424 4 424 4 410 c 256,8,9
 4 396 4 396 4 355 c 1,10,11
 20 355 20 355 67 355 c 1,12,13
 67 266 67 266 67 0 c 1,14,15
 104 0 104 0 218 0 c 0,16,17
 303 0 303 0 366 23 c 0,18,19
 429 45 429 45 469 91 c 0,20,21
 510 136 510 136 531 206 c 0,22,23
 551 277 551 277 551 372 c 0,24,25
 551 468 551 468 531 539 c 256,26,27
 511 610 511 610 470 656 c 0,28,29
 430 701 430 701 366 724 c 0,30,31
 303 747 303 747 218 747 c 0,0,1
218 83 m 0,32,33
 206 83 206 83 170 83 c 1,34,35
 170 151 170 151 170 355 c 1,36,37
 203 355 203 355 302 355 c 1,38,39
 302 373 302 373 302 429 c 1,40,41
 269 429 269 429 170 429 c 1,42,43
 170 488 170 488 170 664 c 1,44,45
 182 664 182 664 218 664 c 0,46,47
 282 664 282 664 326 648 c 0,48,49
 371 632 371 632 396 600 c 0,50,51
 421 569 421 569 434 512 c 256,52,53
 447 455 447 455 447 372 c 0,54,55
 447 290 447 290 434 234 c 0,56,57
 421 177 421 177 396 145 c 0,58,59
 370 114 370 114 326 99 c 0,60,61
 282 83 282 83 218 83 c 0,32,33
EndSplineSet
EndChar

StartChar: Ntilde
Encoding: 209 209 147
Width: 616
Flags: W
LayerCount: 2
Fore
SplineSet
9 744 m 1,0,1
 9 697 9 697 9 557 c 0,2,3
 9 418 9 418 9 0 c 1,4,5
 36 0 36 0 117 0 c 1,6,7
 117 153 117 153 117 612 c 1,8,9
 190 459 190 459 409 0 c 1,10,11
 443 0 443 0 547 0 c 1,12,13
 547 186 547 186 547 744 c 1,14,15
 520 744 520 744 440 744 c 1,16,17
 440 591 440 591 440 132 c 1,18,19
 367 285 367 285 148 744 c 1,20,21
 113 744 113 744 9 744 c 1,0,1
276 857 m 0,22,23
 289 850 289 850 299 846 c 0,24,25
 310 841 310 841 317 840 c 0,26,27
 325 837 325 837 332 836 c 0,28,29
 340 836 340 836 349 836 c 0,30,31
 370 836 370 836 387 843 c 256,32,33
 404 850 404 850 416 865 c 0,34,35
 429 880 429 880 436 900 c 0,36,37
 442 920 442 920 443 945 c 1,38,39
 422 945 422 945 380 945 c 1,40,41
 380 944 380 944 380 942 c 0,42,43
 380 932 380 932 378 923 c 0,44,45
 375 915 375 915 371 908 c 0,46,47
 365 902 365 902 359 899 c 256,48,49
 353 896 353 896 345 896 c 0,50,51
 341 896 341 896 337 897 c 0,52,53
 333 897 333 897 328 899 c 0,54,55
 324 900 324 900 319 903 c 0,56,57
 314 905 314 905 309 908 c 0,58,59
 299 913 299 913 280 924 c 0,60,61
 268 930 268 930 258 934 c 0,62,63
 248 939 248 939 240 941 c 0,64,65
 233 943 233 943 225 944 c 256,66,67
 217 945 217 945 208 945 c 0,68,69
 186 945 186 945 169 938 c 0,70,71
 152 930 152 930 139 916 c 0,72,73
 126 901 126 901 120 881 c 0,74,75
 113 861 113 861 113 836 c 1,76,77
 134 836 134 836 176 836 c 1,78,79
 176 836 176 836 176 839 c 0,80,81
 176 850 176 850 178 858 c 0,82,83
 181 867 181 867 186 873 c 256,84,85
 191 879 191 879 198 883 c 0,86,87
 204 886 204 886 213 886 c 0,88,89
 216 886 216 886 220 885 c 0,90,91
 223 884 223 884 227 883 c 0,92,93
 231 881 231 881 236 879 c 256,94,95
 241 877 241 877 248 873 c 0,96,97
 257 868 257 868 276 857 c 0,22,23
EndSplineSet
EndChar

StartChar: Ograve
Encoding: 210 210 148
Width: 616
Flags: W
LayerCount: 2
Fore
SplineSet
452 372 m 0,0,1
 452 290 452 290 444 231 c 0,2,3
 435 173 435 173 419 137 c 0,4,5
 402 102 402 102 374 85 c 256,6,7
 346 68 346 68 308 68 c 256,8,9
 270 68 270 68 242 85 c 0,10,11
 214 103 214 103 197 138 c 0,12,13
 181 173 181 173 172 232 c 0,14,15
 164 290 164 290 164 372 c 0,16,17
 164 455 164 455 172 513 c 0,18,19
 181 572 181 572 197 608 c 0,20,21
 214 643 214 643 242 660 c 0,22,23
 270 678 270 678 308 678 c 256,24,25
 346 678 346 678 374 660 c 0,26,27
 402 643 402 643 419 608 c 0,28,29
 435 572 435 572 444 513 c 0,30,31
 452 455 452 455 452 372 c 0,0,1
558 372 m 0,32,33
 558 470 558 470 542 543 c 0,34,35
 527 616 527 616 496 664 c 256,36,37
 465 712 465 712 418 736 c 256,38,39
 371 760 371 760 308 760 c 256,40,41
 245 760 245 760 198 736 c 256,42,43
 151 712 151 712 120 664 c 256,44,45
 89 616 89 616 74 543 c 256,46,47
 59 470 59 470 59 372 c 256,48,49
 59 274 59 274 74 201 c 0,50,51
 89 129 89 129 120 81 c 256,52,53
 151 33 151 33 198 9 c 256,54,55
 245 -15 245 -15 308 -15 c 256,56,57
 371 -15 371 -15 418 9 c 256,58,59
 465 33 465 33 496 81 c 256,60,61
 527 129 527 129 542 202 c 0,62,63
 558 275 558 275 558 372 c 0,32,33
280 949 m 1,64,65
 257 949 257 949 188 949 c 1,66,67
 217 916 217 916 302 817 c 1,68,69
 321 817 321 817 379 817 c 1,70,71
 354 850 354 850 280 949 c 1,64,65
EndSplineSet
EndChar

StartChar: Oacute
Encoding: 211 211 149
Width: 616
Flags: W
LayerCount: 2
Fore
SplineSet
452 372 m 0,0,1
 452 290 452 290 444 231 c 0,2,3
 435 173 435 173 419 137 c 0,4,5
 402 102 402 102 374 85 c 256,6,7
 346 68 346 68 308 68 c 256,8,9
 270 68 270 68 242 85 c 0,10,11
 214 103 214 103 197 138 c 0,12,13
 181 173 181 173 172 232 c 0,14,15
 164 290 164 290 164 372 c 0,16,17
 164 455 164 455 172 513 c 0,18,19
 181 572 181 572 197 608 c 0,20,21
 214 643 214 643 242 660 c 0,22,23
 270 678 270 678 308 678 c 256,24,25
 346 678 346 678 374 660 c 0,26,27
 402 643 402 643 419 608 c 0,28,29
 435 572 435 572 444 513 c 0,30,31
 452 455 452 455 452 372 c 0,0,1
558 372 m 0,32,33
 558 470 558 470 542 543 c 0,34,35
 527 616 527 616 496 664 c 256,36,37
 465 712 465 712 418 736 c 256,38,39
 371 760 371 760 308 760 c 256,40,41
 245 760 245 760 198 736 c 256,42,43
 151 712 151 712 120 664 c 256,44,45
 89 616 89 616 74 543 c 256,46,47
 59 470 59 470 59 372 c 256,48,49
 59 274 59 274 74 201 c 0,50,51
 89 129 89 129 120 81 c 256,52,53
 151 33 151 33 198 9 c 256,54,55
 245 -15 245 -15 308 -15 c 256,56,57
 371 -15 371 -15 418 9 c 256,58,59
 465 33 465 33 496 81 c 256,60,61
 527 129 527 129 542 202 c 0,62,63
 558 275 558 275 558 372 c 0,32,33
336 949 m 1,64,65
 311 916 311 916 237 817 c 1,66,67
 257 817 257 817 315 817 c 1,68,69
 343 850 343 850 429 949 c 1,70,71
 406 949 406 949 336 949 c 1,64,65
EndSplineSet
EndChar

StartChar: Ocircumflex
Encoding: 212 212 150
Width: 616
Flags: W
LayerCount: 2
Fore
SplineSet
452 372 m 0,0,1
 452 290 452 290 444 231 c 0,2,3
 435 173 435 173 419 137 c 0,4,5
 402 102 402 102 374 85 c 256,6,7
 346 68 346 68 308 68 c 256,8,9
 270 68 270 68 242 85 c 0,10,11
 214 103 214 103 197 138 c 0,12,13
 181 173 181 173 172 232 c 0,14,15
 164 290 164 290 164 372 c 0,16,17
 164 455 164 455 172 513 c 0,18,19
 181 572 181 572 197 608 c 0,20,21
 214 643 214 643 242 660 c 0,22,23
 270 678 270 678 308 678 c 256,24,25
 346 678 346 678 374 660 c 0,26,27
 402 643 402 643 419 608 c 0,28,29
 435 572 435 572 444 513 c 0,30,31
 452 455 452 455 452 372 c 0,0,1
558 372 m 0,32,33
 558 470 558 470 542 543 c 0,34,35
 527 616 527 616 496 664 c 256,36,37
 465 712 465 712 418 736 c 256,38,39
 371 760 371 760 308 760 c 256,40,41
 245 760 245 760 198 736 c 256,42,43
 151 712 151 712 120 664 c 256,44,45
 89 616 89 616 74 543 c 256,46,47
 59 470 59 470 59 372 c 256,48,49
 59 274 59 274 74 201 c 0,50,51
 89 129 89 129 120 81 c 256,52,53
 151 33 151 33 198 9 c 256,54,55
 245 -15 245 -15 308 -15 c 256,56,57
 371 -15 371 -15 418 9 c 256,58,59
 465 33 465 33 496 81 c 256,60,61
 527 129 527 129 542 202 c 0,62,63
 558 275 558 275 558 372 c 0,32,33
261 951 m 1,64,65
 235 917 235 917 156 817 c 1,66,67
 173 817 173 817 225 817 c 1,68,69
 246 840 246 840 308 907 c 1,70,71
 329 884 329 884 391 817 c 1,72,73
 409 817 409 817 461 817 c 1,74,75
 435 851 435 851 356 951 c 1,76,77
 332 951 332 951 261 951 c 1,64,65
EndSplineSet
EndChar

StartChar: Otilde
Encoding: 213 213 151
Width: 616
Flags: W
LayerCount: 2
Fore
SplineSet
452 372 m 0,0,1
 452 290 452 290 444 231 c 0,2,3
 435 173 435 173 419 137 c 0,4,5
 402 102 402 102 374 85 c 256,6,7
 346 68 346 68 308 68 c 256,8,9
 270 68 270 68 242 85 c 0,10,11
 214 103 214 103 197 138 c 0,12,13
 181 173 181 173 172 232 c 0,14,15
 164 290 164 290 164 372 c 0,16,17
 164 455 164 455 172 513 c 0,18,19
 181 572 181 572 197 608 c 0,20,21
 214 643 214 643 242 660 c 0,22,23
 270 678 270 678 308 678 c 256,24,25
 346 678 346 678 374 660 c 0,26,27
 402 643 402 643 419 608 c 0,28,29
 435 572 435 572 444 513 c 0,30,31
 452 455 452 455 452 372 c 0,0,1
558 372 m 0,32,33
 558 470 558 470 542 543 c 0,34,35
 527 616 527 616 496 664 c 256,36,37
 465 712 465 712 418 736 c 256,38,39
 371 760 371 760 308 760 c 256,40,41
 245 760 245 760 198 736 c 256,42,43
 151 712 151 712 120 664 c 256,44,45
 89 616 89 616 74 543 c 256,46,47
 59 470 59 470 59 372 c 256,48,49
 59 274 59 274 74 201 c 0,50,51
 89 129 89 129 120 81 c 256,52,53
 151 33 151 33 198 9 c 256,54,55
 245 -15 245 -15 308 -15 c 256,56,57
 371 -15 371 -15 418 9 c 256,58,59
 465 33 465 33 496 81 c 256,60,61
 527 129 527 129 542 202 c 0,62,63
 558 275 558 275 558 372 c 0,32,33
306 855 m 0,64,65
 319 848 319 848 329 844 c 0,66,67
 339 839 339 839 347 837 c 0,68,69
 354 835 354 835 362 834 c 256,70,71
 370 833 370 833 379 833 c 0,72,73
 400 833 400 833 417 841 c 0,74,75
 434 848 434 848 447 863 c 0,76,77
 459 878 459 878 466 898 c 0,78,79
 472 918 472 918 473 943 c 1,80,81
 452 943 452 943 411 943 c 1,82,83
 411 942 411 942 411 940 c 0,84,85
 411 930 411 930 408 921 c 0,86,87
 405 913 405 913 400 907 c 0,88,89
 395 900 395 900 389 897 c 0,90,91
 382 894 382 894 375 894 c 0,92,93
 371 894 371 894 367 895 c 256,94,95
 363 896 363 896 359 897 c 0,96,97
 354 899 354 899 349 901 c 256,98,99
 344 903 344 903 339 907 c 0,100,101
 330 912 330 912 311 921 c 0,102,103
 298 928 298 928 288 933 c 0,104,105
 278 937 278 937 271 939 c 0,106,107
 263 941 263 941 255 942 c 0,108,109
 246 943 246 943 237 943 c 0,110,111
 216 943 216 943 199 936 c 0,112,113
 182 928 182 928 169 913 c 256,114,115
 156 898 156 898 150 879 c 0,116,117
 144 859 144 859 144 833 c 1,118,119
 164 833 164 833 206 833 c 1,120,121
 206 834 206 834 206 836 c 0,122,123
 206 848 206 848 208 856 c 0,124,125
 211 865 211 865 216 872 c 0,126,127
 221 878 221 878 228 881 c 256,128,129
 235 884 235 884 244 884 c 0,130,131
 247 884 247 884 250 883 c 0,132,133
 253 883 253 883 257 881 c 0,134,135
 261 880 261 880 266 877 c 0,136,137
 271 875 271 875 277 872 c 0,138,139
 287 866 287 866 306 855 c 0,64,65
EndSplineSet
EndChar

StartChar: Odieresis
Encoding: 214 214 152
Width: 616
Flags: W
LayerCount: 2
Fore
SplineSet
452 372 m 0,0,1
 452 290 452 290 444 231 c 0,2,3
 435 173 435 173 419 137 c 0,4,5
 402 102 402 102 374 85 c 256,6,7
 346 68 346 68 308 68 c 256,8,9
 270 68 270 68 242 85 c 0,10,11
 214 103 214 103 197 138 c 0,12,13
 181 173 181 173 172 232 c 0,14,15
 164 290 164 290 164 372 c 0,16,17
 164 455 164 455 172 513 c 0,18,19
 181 572 181 572 197 608 c 0,20,21
 214 643 214 643 242 660 c 0,22,23
 270 678 270 678 308 678 c 256,24,25
 346 678 346 678 374 660 c 0,26,27
 402 643 402 643 419 608 c 0,28,29
 435 572 435 572 444 513 c 0,30,31
 452 455 452 455 452 372 c 0,0,1
558 372 m 0,32,33
 558 470 558 470 542 543 c 0,34,35
 527 616 527 616 496 664 c 256,36,37
 465 712 465 712 418 736 c 256,38,39
 371 760 371 760 308 760 c 256,40,41
 245 760 245 760 198 736 c 256,42,43
 151 712 151 712 120 664 c 256,44,45
 89 616 89 616 74 543 c 256,46,47
 59 470 59 470 59 372 c 256,48,49
 59 274 59 274 74 201 c 0,50,51
 89 129 89 129 120 81 c 256,52,53
 151 33 151 33 198 9 c 256,54,55
 245 -15 245 -15 308 -15 c 256,56,57
 371 -15 371 -15 418 9 c 256,58,59
 465 33 465 33 496 81 c 256,60,61
 527 129 527 129 542 202 c 0,62,63
 558 275 558 275 558 372 c 0,32,33
160 935 m 1,64,65
 160 910 160 910 160 833 c 1,66,67
 185 833 185 833 261 833 c 1,68,69
 261 859 261 859 261 935 c 1,70,71
 236 935 236 935 160 935 c 1,64,65
356 935 m 1,72,73
 356 910 356 910 356 833 c 1,74,75
 381 833 381 833 456 833 c 1,76,77
 456 859 456 859 456 935 c 1,78,79
 431 935 431 935 356 935 c 1,72,73
EndSplineSet
EndChar

StartChar: multiply
Encoding: 215 215 153
Width: 616
Flags: W
LayerCount: 2
Fore
SplineSet
75 147 m 1,0,1
 90 132 90 132 134 87 c 1,2,3
 178 131 178 131 308 262 c 1,4,5
 352 218 352 218 483 87 c 1,6,7
 497 102 497 102 540 147 c 1,8,9
 497 190 497 190 367 320 c 1,10,11
 410 364 410 364 541 496 c 1,12,13
 527 510 527 510 484 554 c 1,14,15
 440 510 440 510 308 379 c 1,16,17
 264 423 264 423 133 554 c 1,18,19
 118 539 118 539 75 496 c 1,20,21
 119 452 119 452 250 320 c 1,22,23
 206 277 206 277 75 147 c 1,0,1
EndSplineSet
EndChar

StartChar: Oslash
Encoding: 216 216 154
Width: 616
Flags: W
LayerCount: 2
Fore
SplineSet
185 152 m 1,0,1
 250 243 250 243 443 518 c 1,2,3
 445 507 445 507 447 493 c 0,4,5
 448 478 448 478 450 461 c 0,6,7
 451 444 451 444 452 422 c 0,8,9
 452 400 452 400 452 372 c 0,10,11
 452 290 452 290 444 231 c 0,12,13
 435 173 435 173 419 137 c 0,14,15
 402 102 402 102 374 85 c 256,16,17
 346 68 346 68 308 68 c 0,18,19
 287 68 287 68 268 73 c 0,20,21
 250 79 250 79 233 90 c 0,22,23
 217 101 217 101 205 117 c 0,24,25
 193 132 193 132 185 152 c 1,0,1
169 236 m 1,26,27
 168 244 168 244 167 254 c 0,28,29
 166 265 166 265 165 277 c 0,30,31
 164 290 164 290 164 307 c 0,32,33
 164 323 164 323 164 343 c 0,34,35
 164 437 164 437 172 503 c 0,36,37
 180 568 180 568 196 605 c 0,38,39
 213 641 213 641 241 660 c 0,40,41
 269 678 269 678 308 678 c 0,42,43
 329 678 329 678 347 673 c 0,44,45
 365 667 365 667 380 656 c 0,46,47
 394 646 394 646 404 631 c 0,48,49
 415 615 415 615 421 595 c 1,50,51
 337 475 337 475 169 236 c 1,26,27
516 624 m 1,52,53
 537 653 537 653 600 743 c 1,54,55
 588 752 588 752 550 780 c 1,56,57
 533 754 533 754 480 679 c 1,58,59
 466 699 466 699 448 714 c 256,60,61
 430 729 430 729 408 740 c 0,62,63
 387 750 387 750 362 755 c 0,64,65
 336 760 336 760 308 760 c 0,66,67
 245 760 245 760 198 736 c 256,68,69
 151 712 151 712 120 664 c 256,70,71
 89 616 89 616 74 543 c 256,72,73
 59 470 59 470 59 372 c 0,74,75
 59 333 59 333 61 297 c 256,76,77
 63 261 63 261 68 228 c 0,78,79
 72 195 72 195 78 170 c 0,80,81
 85 144 85 144 93 126 c 1,82,83
 63 84 63 84 4 0 c 1,84,85
 17 -9 17 -9 56 -35 c 1,86,87
 73 -10 73 -10 127 67 c 1,88,89
 142 46 142 46 161 31 c 256,90,91
 180 16 180 16 203 5 c 0,92,93
 225 -5 225 -5 251 -10 c 0,94,95
 278 -15 278 -15 308 -15 c 0,96,97
 371 -15 371 -15 418 9 c 256,98,99
 465 33 465 33 496 81 c 256,100,101
 527 129 527 129 542 202 c 0,102,103
 558 275 558 275 558 372 c 0,104,105
 558 413 558 413 555 450 c 0,106,107
 552 486 552 486 547 519 c 0,108,109
 542 551 542 551 534 577 c 256,110,111
 526 603 526 603 516 624 c 1,52,53
EndSplineSet
EndChar

StartChar: Ugrave
Encoding: 217 217 155
Width: 616
Flags: W
LayerCount: 2
Fore
SplineSet
73 287 m 0,0,1
 73 230 73 230 77 189 c 0,2,3
 81 149 81 149 88 124 c 256,4,5
 95 99 95 99 107 79 c 0,6,7
 120 59 120 59 137 44 c 256,8,9
 154 29 154 29 173 18 c 256,10,11
 192 7 192 7 213 0 c 256,12,13
 234 -7 234 -7 258 -11 c 256,14,15
 282 -15 282 -15 308 -15 c 256,16,17
 334 -15 334 -15 358 -11 c 256,18,19
 382 -7 382 -7 404 0 c 0,20,21
 425 7 425 7 443 18 c 256,22,23
 461 29 461 29 478 44 c 0,24,25
 495 60 495 60 508 80 c 0,26,27
 520 100 520 100 527 124 c 256,28,29
 534 148 534 148 538 188 c 0,30,31
 542 229 542 229 542 287 c 0,32,33
 542 440 542 440 542 747 c 1,34,35
 516 747 516 747 440 747 c 1,36,37
 440 620 440 620 440 240 c 0,38,39
 440 213 440 213 440 193 c 0,40,41
 439 174 439 174 438 163 c 0,42,43
 436 151 436 151 433 142 c 0,44,45
 431 133 431 133 427 127 c 0,46,47
 419 112 419 112 407 101 c 256,48,49
 395 90 395 90 380 83 c 0,50,51
 365 75 365 75 347 71 c 0,52,53
 329 68 329 68 307 68 c 256,54,55
 285 68 285 68 267 71 c 0,56,57
 249 75 249 75 234 83 c 0,58,59
 219 90 219 90 207 101 c 256,60,61
 195 112 195 112 187 127 c 0,62,63
 184 133 184 133 181 142 c 256,64,65
 178 151 178 151 177 163 c 0,66,67
 175 174 175 174 175 194 c 0,68,69
 174 213 174 213 174 240 c 0,70,71
 174 409 174 409 174 747 c 1,72,73
 149 747 149 747 72 747 c 1,74,75
 72 734 72 734 72 696 c 0,76,77
 72 594 72 594 73 287 c 0,0,1
279 949 m 1,78,79
 256 949 256 949 187 949 c 1,80,81
 216 916 216 916 301 817 c 1,82,83
 320 817 320 817 378 817 c 1,84,85
 353 850 353 850 279 949 c 1,78,79
EndSplineSet
EndChar

StartChar: Uacute
Encoding: 218 218 156
Width: 616
Flags: W
LayerCount: 2
Fore
SplineSet
73 287 m 0,0,1
 73 230 73 230 77 189 c 0,2,3
 81 149 81 149 88 124 c 256,4,5
 95 99 95 99 107 79 c 0,6,7
 120 59 120 59 137 44 c 256,8,9
 154 29 154 29 173 18 c 256,10,11
 192 7 192 7 213 0 c 256,12,13
 234 -7 234 -7 258 -11 c 256,14,15
 282 -15 282 -15 308 -15 c 256,16,17
 334 -15 334 -15 358 -11 c 256,18,19
 382 -7 382 -7 404 0 c 0,20,21
 425 7 425 7 443 18 c 256,22,23
 461 29 461 29 478 44 c 0,24,25
 495 60 495 60 508 80 c 0,26,27
 520 100 520 100 527 124 c 256,28,29
 534 148 534 148 538 188 c 0,30,31
 542 229 542 229 542 287 c 0,32,33
 542 440 542 440 542 747 c 1,34,35
 516 747 516 747 440 747 c 1,36,37
 440 620 440 620 440 240 c 0,38,39
 440 213 440 213 440 193 c 0,40,41
 439 174 439 174 438 163 c 0,42,43
 436 151 436 151 433 142 c 0,44,45
 431 133 431 133 427 127 c 0,46,47
 419 112 419 112 407 101 c 256,48,49
 395 90 395 90 380 83 c 0,50,51
 365 75 365 75 347 71 c 0,52,53
 329 68 329 68 307 68 c 256,54,55
 285 68 285 68 267 71 c 0,56,57
 249 75 249 75 234 83 c 0,58,59
 219 90 219 90 207 101 c 256,60,61
 195 112 195 112 187 127 c 0,62,63
 184 133 184 133 181 142 c 256,64,65
 178 151 178 151 177 163 c 0,66,67
 175 174 175 174 175 194 c 0,68,69
 174 213 174 213 174 240 c 0,70,71
 174 409 174 409 174 747 c 1,72,73
 149 747 149 747 72 747 c 1,74,75
 72 734 72 734 72 696 c 0,76,77
 72 594 72 594 73 287 c 0,0,1
335 949 m 1,78,79
 310 916 310 916 236 817 c 1,80,81
 256 817 256 817 314 817 c 1,82,83
 342 850 342 850 428 949 c 1,84,85
 405 949 405 949 335 949 c 1,78,79
EndSplineSet
EndChar

StartChar: Ucircumflex
Encoding: 219 219 157
Width: 616
Flags: W
LayerCount: 2
Fore
SplineSet
73 287 m 0,0,1
 73 230 73 230 77 189 c 0,2,3
 81 149 81 149 88 124 c 256,4,5
 95 99 95 99 107 79 c 0,6,7
 120 59 120 59 137 44 c 256,8,9
 154 29 154 29 173 18 c 256,10,11
 192 7 192 7 213 0 c 256,12,13
 234 -7 234 -7 258 -11 c 256,14,15
 282 -15 282 -15 308 -15 c 256,16,17
 334 -15 334 -15 358 -11 c 256,18,19
 382 -7 382 -7 404 0 c 0,20,21
 425 7 425 7 443 18 c 256,22,23
 461 29 461 29 478 44 c 0,24,25
 495 60 495 60 508 80 c 0,26,27
 520 100 520 100 527 124 c 256,28,29
 534 148 534 148 538 188 c 0,30,31
 542 229 542 229 542 287 c 0,32,33
 542 440 542 440 542 747 c 1,34,35
 516 747 516 747 440 747 c 1,36,37
 440 620 440 620 440 240 c 0,38,39
 440 213 440 213 440 193 c 0,40,41
 439 174 439 174 438 163 c 0,42,43
 436 151 436 151 433 142 c 0,44,45
 431 133 431 133 427 127 c 0,46,47
 419 112 419 112 407 101 c 256,48,49
 395 90 395 90 380 83 c 0,50,51
 365 75 365 75 347 71 c 0,52,53
 329 68 329 68 307 68 c 256,54,55
 285 68 285 68 267 71 c 0,56,57
 249 75 249 75 234 83 c 0,58,59
 219 90 219 90 207 101 c 256,60,61
 195 112 195 112 187 127 c 0,62,63
 184 133 184 133 181 142 c 256,64,65
 178 151 178 151 177 163 c 0,66,67
 175 174 175 174 175 194 c 0,68,69
 174 213 174 213 174 240 c 0,70,71
 174 409 174 409 174 747 c 1,72,73
 149 747 149 747 72 747 c 1,74,75
 72 734 72 734 72 696 c 0,76,77
 72 594 72 594 73 287 c 0,0,1
260 951 m 1,78,79
 234 917 234 917 155 817 c 1,80,81
 172 817 172 817 224 817 c 1,82,83
 245 840 245 840 307 907 c 1,84,85
 328 884 328 884 390 817 c 1,86,87
 407 817 407 817 459 817 c 1,88,89
 433 851 433 851 354 951 c 1,90,91
 331 951 331 951 260 951 c 1,78,79
EndSplineSet
EndChar

StartChar: Udieresis
Encoding: 220 220 158
Width: 616
Flags: W
LayerCount: 2
Fore
SplineSet
73 287 m 0,0,1
 73 230 73 230 77 189 c 0,2,3
 81 149 81 149 88 124 c 256,4,5
 95 99 95 99 107 79 c 0,6,7
 120 59 120 59 137 44 c 256,8,9
 154 29 154 29 173 18 c 256,10,11
 192 7 192 7 213 0 c 256,12,13
 234 -7 234 -7 258 -11 c 256,14,15
 282 -15 282 -15 308 -15 c 256,16,17
 334 -15 334 -15 358 -11 c 256,18,19
 382 -7 382 -7 404 0 c 0,20,21
 425 7 425 7 443 18 c 256,22,23
 461 29 461 29 478 44 c 0,24,25
 495 60 495 60 508 80 c 0,26,27
 520 100 520 100 527 124 c 256,28,29
 534 148 534 148 538 188 c 0,30,31
 542 229 542 229 542 287 c 0,32,33
 542 440 542 440 542 747 c 1,34,35
 516 747 516 747 440 747 c 1,36,37
 440 620 440 620 440 240 c 0,38,39
 440 213 440 213 440 193 c 0,40,41
 439 174 439 174 438 163 c 0,42,43
 436 151 436 151 433 142 c 0,44,45
 431 133 431 133 427 127 c 0,46,47
 419 112 419 112 407 101 c 256,48,49
 395 90 395 90 380 83 c 0,50,51
 365 75 365 75 347 71 c 0,52,53
 329 68 329 68 307 68 c 256,54,55
 285 68 285 68 267 71 c 0,56,57
 249 75 249 75 234 83 c 0,58,59
 219 90 219 90 207 101 c 256,60,61
 195 112 195 112 187 127 c 0,62,63
 184 133 184 133 181 142 c 256,64,65
 178 151 178 151 177 163 c 0,66,67
 175 174 175 174 175 194 c 0,68,69
 174 213 174 213 174 240 c 0,70,71
 174 409 174 409 174 747 c 1,72,73
 149 747 149 747 72 747 c 1,74,75
 72 734 72 734 72 696 c 0,76,77
 72 594 72 594 73 287 c 0,0,1
159 935 m 1,78,79
 159 910 159 910 159 833 c 1,80,81
 184 833 184 833 260 833 c 1,82,83
 260 859 260 859 260 935 c 1,84,85
 235 935 235 935 159 935 c 1,78,79
355 935 m 1,86,87
 355 910 355 910 355 833 c 1,88,89
 380 833 380 833 455 833 c 1,90,91
 455 859 455 859 455 935 c 1,92,93
 430 935 430 935 355 935 c 1,86,87
EndSplineSet
EndChar

StartChar: Yacute
Encoding: 221 221 159
Width: 616
Flags: W
LayerCount: 2
Fore
SplineSet
19 747 m 1,0,1
 78 644 78 644 257 335 c 1,2,3
 257 251 257 251 257 0 c 1,4,5
 282 0 282 0 359 0 c 1,6,7
 359 84 359 84 359 335 c 1,8,9
 418 438 418 438 598 747 c 1,10,11
 571 747 571 747 489 747 c 1,12,13
 444 664 444 664 308 417 c 1,14,15
 263 499 263 499 126 747 c 1,16,17
 99 747 99 747 19 747 c 1,0,1
336 949 m 1,18,19
 311 916 311 916 237 817 c 1,20,21
 257 817 257 817 315 817 c 1,22,23
 343 850 343 850 429 949 c 1,24,25
 406 949 406 949 336 949 c 1,18,19
EndSplineSet
EndChar

StartChar: Thorn
Encoding: 222 222 160
Width: 616
Flags: W
LayerCount: 2
Fore
SplineSet
201 528 m 1,0,1
 231 528 231 528 319 528 c 0,2,3
 358 528 358 528 387 520 c 0,4,5
 417 512 417 512 436 496 c 0,6,7
 456 479 456 479 466 455 c 0,8,9
 476 430 476 430 476 397 c 256,10,11
 476 364 476 364 466 340 c 0,12,13
 456 315 456 315 436 299 c 0,14,15
 417 282 417 282 387 274 c 0,16,17
 358 266 358 266 319 266 c 256,18,19
 280 266 280 266 201 266 c 1,20,21
 201 332 201 332 201 528 c 1,0,1
100 747 m 1,22,23
 100 723 100 723 100 653 c 0,24,25
 100 490 100 490 100 0 c 1,26,27
 126 0 126 0 201 0 c 1,28,29
 201 46 201 46 201 184 c 1,30,31
 233 184 233 184 328 184 c 0,32,33
 393 184 393 184 441 196 c 0,34,35
 489 209 489 209 520 236 c 0,36,37
 551 262 551 262 567 302 c 0,38,39
 583 343 583 343 583 397 c 0,40,41
 583 452 583 452 567 492 c 0,42,43
 551 533 551 533 520 559 c 256,44,45
 489 585 489 585 441 598 c 0,46,47
 393 612 393 612 328 612 c 0,48,49
 286 612 286 612 201 612 c 1,50,51
 201 645 201 645 201 747 c 1,52,53
 176 747 176 747 100 747 c 1,22,23
EndSplineSet
EndChar

StartChar: germandbls
Encoding: 223 223 161
Width: 616
Flags: W
LayerCount: 2
Fore
SplineSet
94 568 m 0,0,1
 94 533 94 533 94 426 c 0,2,3
 94 320 94 320 94 0 c 1,4,5
 117 0 117 0 188 0 c 1,6,7
 188 142 188 142 188 567 c 0,8,9
 188 601 188 601 195 627 c 0,10,11
 202 652 202 652 216 668 c 0,12,13
 230 685 230 685 252 693 c 0,14,15
 275 701 275 701 305 701 c 0,16,17
 333 701 333 701 355 694 c 256,18,19
 377 687 377 687 392 673 c 256,20,21
 407 659 407 659 414 638 c 0,22,23
 422 618 422 618 423 591 c 1,24,25
 384 582 384 582 354 567 c 0,26,27
 325 552 325 552 304 531 c 0,28,29
 284 509 284 509 274 483 c 0,30,31
 264 456 264 456 264 424 c 0,32,33
 264 404 264 404 270 386 c 0,34,35
 275 367 275 367 287 351 c 0,36,37
 298 334 298 334 315 319 c 256,38,39
 332 304 332 304 356 290 c 0,40,41
 367 283 367 283 389 271 c 0,42,43
 419 252 419 252 438 237 c 0,44,45
 457 221 457 221 465 209 c 256,46,47
 473 197 473 197 477 183 c 0,48,49
 481 168 481 168 481 151 c 0,50,51
 481 130 481 130 473 114 c 0,52,53
 465 97 465 97 449 85 c 256,54,55
 433 73 433 73 412 67 c 256,56,57
 391 61 391 61 364 61 c 0,58,59
 349 61 349 61 333 63 c 256,60,61
 317 65 317 65 300 69 c 0,62,63
 284 73 284 73 266 78 c 0,64,65
 248 84 248 84 229 92 c 1,66,67
 229 65 229 65 229 10 c 1,68,69
 246 4 246 4 263 -1 c 0,70,71
 279 -5 279 -5 296 -8 c 256,72,73
 313 -11 313 -11 330 -13 c 256,74,75
 347 -15 347 -15 364 -15 c 0,76,77
 413 -15 413 -15 452 -4 c 0,78,79
 490 8 490 8 519 30 c 0,80,81
 546 52 546 52 560 83 c 0,82,83
 575 113 575 113 575 152 c 0,84,85
 575 180 575 180 567 205 c 0,86,87
 560 230 560 230 547 251 c 0,88,89
 533 271 533 271 507 293 c 256,90,91
 481 315 481 315 444 338 c 0,92,93
 434 344 434 344 415 356 c 0,94,95
 398 367 398 367 386 377 c 256,96,97
 374 387 374 387 367 396 c 0,98,99
 360 406 360 406 357 417 c 0,100,101
 353 428 353 428 353 440 c 0,102,103
 353 465 353 465 364 485 c 0,104,105
 375 506 375 506 396 521 c 0,106,107
 417 537 417 537 446 546 c 0,108,109
 476 556 476 556 515 560 c 1,110,111
 514 614 514 614 501 654 c 0,112,113
 488 695 488 695 461 723 c 0,114,115
 435 750 435 750 397 764 c 0,116,117
 358 778 358 778 307 778 c 0,118,119
 253 778 253 778 213 765 c 256,120,121
 173 752 173 752 147 727 c 0,122,123
 120 701 120 701 107 661 c 0,124,125
 94 622 94 622 94 568 c 0,0,1
EndSplineSet
EndChar

StartChar: agrave
Encoding: 224 224 162
Width: 616
Flags: W
LayerCount: 2
Fore
SplineSet
351 281 m 0,0,1
 373 281 373 281 437 281 c 1,2,3
 437 276 437 276 437 261 c 0,4,5
 437 215 437 215 426 178 c 256,6,7
 415 141 415 141 393 115 c 256,8,9
 371 89 371 89 341 76 c 256,10,11
 311 63 311 63 273 63 c 0,12,13
 246 63 246 63 225 69 c 0,14,15
 204 76 204 76 189 91 c 0,16,17
 174 104 174 104 166 124 c 0,18,19
 159 144 159 144 159 169 c 0,20,21
 159 197 159 197 169 218 c 256,22,23
 179 239 179 239 199 253 c 256,24,25
 219 267 219 267 250 274 c 0,26,27
 280 281 280 281 320 281 c 0,28,29
 331 281 331 281 351 281 c 0,0,1
529 320 m 0,30,31
 529 356 529 356 527 384 c 0,32,33
 525 411 525 411 521 429 c 0,34,35
 517 448 517 448 511 463 c 0,36,37
 504 479 504 479 495 492 c 0,38,39
 479 512 479 512 459 527 c 0,40,41
 439 543 439 543 415 553 c 0,42,43
 390 563 390 563 360 568 c 0,44,45
 331 573 331 573 296 573 c 0,46,47
 274 573 274 573 251 571 c 0,48,49
 228 568 228 568 205 564 c 0,50,51
 182 559 182 559 157 551 c 0,52,53
 133 544 133 544 108 535 c 1,54,55
 108 504 108 504 108 443 c 1,56,57
 130 455 130 455 153 465 c 0,58,59
 177 475 177 475 201 482 c 256,60,61
 225 489 225 489 249 492 c 0,62,63
 272 496 272 496 296 496 c 0,64,65
 333 496 333 496 359 488 c 0,66,67
 386 480 386 480 403 465 c 0,68,69
 419 450 419 450 428 426 c 0,70,71
 437 401 437 401 437 368 c 0,72,73
 437 363 437 363 437 353 c 1,74,75
 406 353 406 353 313 353 c 0,76,77
 253 353 253 353 207 341 c 256,78,79
 161 329 161 329 129 305 c 0,80,81
 98 281 98 281 82 245 c 0,82,83
 67 209 67 209 67 163 c 0,84,85
 67 122 67 122 79 90 c 0,86,87
 92 57 92 57 117 33 c 0,88,89
 143 9 143 9 177 -3 c 256,90,91
 211 -15 211 -15 254 -15 c 0,92,93
 286 -15 286 -15 313 -9 c 256,94,95
 340 -3 340 -3 363 9 c 0,96,97
 385 21 385 21 403 39 c 0,98,99
 422 58 422 58 437 83 c 1,100,101
 437 55 437 55 437 0 c 1,102,103
 460 0 460 0 529 0 c 1,104,105
 529 80 529 80 529 320 c 0,30,31
239 819 m 1,106,107
 214 819 214 819 140 819 c 1,108,109
 180 772 180 772 302 631 c 1,110,111
 321 631 321 631 379 631 c 1,112,113
 344 678 344 678 239 819 c 1,106,107
EndSplineSet
EndChar

StartChar: aacute
Encoding: 225 225 163
Width: 616
Flags: W
LayerCount: 2
Fore
SplineSet
351 281 m 0,0,1
 373 281 373 281 437 281 c 1,2,3
 437 276 437 276 437 261 c 0,4,5
 437 215 437 215 426 178 c 256,6,7
 415 141 415 141 393 115 c 256,8,9
 371 89 371 89 341 76 c 256,10,11
 311 63 311 63 273 63 c 0,12,13
 246 63 246 63 225 69 c 0,14,15
 204 76 204 76 189 91 c 0,16,17
 174 104 174 104 166 124 c 0,18,19
 159 144 159 144 159 169 c 0,20,21
 159 197 159 197 169 218 c 256,22,23
 179 239 179 239 199 253 c 256,24,25
 219 267 219 267 250 274 c 0,26,27
 280 281 280 281 320 281 c 0,28,29
 331 281 331 281 351 281 c 0,0,1
529 320 m 0,30,31
 529 356 529 356 527 384 c 0,32,33
 525 411 525 411 521 429 c 0,34,35
 517 448 517 448 511 463 c 0,36,37
 504 479 504 479 495 492 c 0,38,39
 479 512 479 512 459 527 c 0,40,41
 439 543 439 543 415 553 c 0,42,43
 390 563 390 563 360 568 c 0,44,45
 331 573 331 573 296 573 c 0,46,47
 274 573 274 573 251 571 c 0,48,49
 228 568 228 568 205 564 c 0,50,51
 182 559 182 559 157 551 c 0,52,53
 133 544 133 544 108 535 c 1,54,55
 108 504 108 504 108 443 c 1,56,57
 130 455 130 455 153 465 c 0,58,59
 177 475 177 475 201 482 c 256,60,61
 225 489 225 489 249 492 c 0,62,63
 272 496 272 496 296 496 c 0,64,65
 333 496 333 496 359 488 c 0,66,67
 386 480 386 480 403 465 c 0,68,69
 419 450 419 450 428 426 c 0,70,71
 437 401 437 401 437 368 c 0,72,73
 437 363 437 363 437 353 c 1,74,75
 406 353 406 353 313 353 c 0,76,77
 253 353 253 353 207 341 c 256,78,79
 161 329 161 329 129 305 c 0,80,81
 98 281 98 281 82 245 c 0,82,83
 67 209 67 209 67 163 c 0,84,85
 67 122 67 122 79 90 c 0,86,87
 92 57 92 57 117 33 c 0,88,89
 143 9 143 9 177 -3 c 256,90,91
 211 -15 211 -15 254 -15 c 0,92,93
 286 -15 286 -15 313 -9 c 256,94,95
 340 -3 340 -3 363 9 c 0,96,97
 385 21 385 21 403 39 c 0,98,99
 422 58 422 58 437 83 c 1,100,101
 437 55 437 55 437 0 c 1,102,103
 460 0 460 0 529 0 c 1,104,105
 529 80 529 80 529 320 c 0,30,31
378 819 m 1,106,107
 343 772 343 772 237 631 c 1,108,109
 257 631 257 631 315 631 c 1,110,111
 355 678 355 678 477 819 c 1,112,113
 452 819 452 819 378 819 c 1,106,107
EndSplineSet
EndChar

StartChar: acircumflex
Encoding: 226 226 164
Width: 616
Flags: W
LayerCount: 2
Fore
SplineSet
351 281 m 0,0,1
 373 281 373 281 437 281 c 1,2,3
 437 276 437 276 437 261 c 0,4,5
 437 215 437 215 426 178 c 256,6,7
 415 141 415 141 393 115 c 256,8,9
 371 89 371 89 341 76 c 256,10,11
 311 63 311 63 273 63 c 0,12,13
 246 63 246 63 225 69 c 0,14,15
 204 76 204 76 189 91 c 0,16,17
 174 104 174 104 166 124 c 0,18,19
 159 144 159 144 159 169 c 0,20,21
 159 197 159 197 169 218 c 256,22,23
 179 239 179 239 199 253 c 256,24,25
 219 267 219 267 250 274 c 0,26,27
 280 281 280 281 320 281 c 0,28,29
 331 281 331 281 351 281 c 0,0,1
529 320 m 0,30,31
 529 356 529 356 527 384 c 0,32,33
 525 411 525 411 521 429 c 0,34,35
 517 448 517 448 511 463 c 0,36,37
 504 479 504 479 495 492 c 0,38,39
 479 512 479 512 459 527 c 0,40,41
 439 543 439 543 415 553 c 0,42,43
 390 563 390 563 360 568 c 0,44,45
 331 573 331 573 296 573 c 0,46,47
 274 573 274 573 251 571 c 0,48,49
 228 568 228 568 205 564 c 0,50,51
 182 559 182 559 157 551 c 0,52,53
 133 544 133 544 108 535 c 1,54,55
 108 504 108 504 108 443 c 1,56,57
 130 455 130 455 153 465 c 0,58,59
 177 475 177 475 201 482 c 256,60,61
 225 489 225 489 249 492 c 0,62,63
 272 496 272 496 296 496 c 0,64,65
 333 496 333 496 359 488 c 0,66,67
 386 480 386 480 403 465 c 0,68,69
 419 450 419 450 428 426 c 0,70,71
 437 401 437 401 437 368 c 0,72,73
 437 363 437 363 437 353 c 1,74,75
 406 353 406 353 313 353 c 0,76,77
 253 353 253 353 207 341 c 256,78,79
 161 329 161 329 129 305 c 0,80,81
 98 281 98 281 82 245 c 0,82,83
 67 209 67 209 67 163 c 0,84,85
 67 122 67 122 79 90 c 0,86,87
 92 57 92 57 117 33 c 0,88,89
 143 9 143 9 177 -3 c 256,90,91
 211 -15 211 -15 254 -15 c 0,92,93
 286 -15 286 -15 313 -9 c 256,94,95
 340 -3 340 -3 363 9 c 0,96,97
 385 21 385 21 403 39 c 0,98,99
 422 58 422 58 437 83 c 1,100,101
 437 55 437 55 437 0 c 1,102,103
 460 0 460 0 529 0 c 1,104,105
 529 80 529 80 529 320 c 0,30,31
272 819 m 1,106,107
 241 772 241 772 148 631 c 1,108,109
 166 631 166 631 218 631 c 1,110,111
 240 662 240 662 308 753 c 1,112,113
 331 723 331 723 399 631 c 1,114,115
 416 631 416 631 468 631 c 1,116,117
 437 678 437 678 345 819 c 1,118,119
 327 819 327 819 272 819 c 1,106,107
EndSplineSet
EndChar

StartChar: atilde
Encoding: 227 227 165
Width: 616
Flags: W
LayerCount: 2
Fore
SplineSet
351 281 m 0,0,1
 373 281 373 281 437 281 c 1,2,3
 437 276 437 276 437 261 c 0,4,5
 437 215 437 215 426 178 c 256,6,7
 415 141 415 141 393 115 c 256,8,9
 371 89 371 89 341 76 c 256,10,11
 311 63 311 63 273 63 c 0,12,13
 246 63 246 63 225 69 c 0,14,15
 204 76 204 76 189 91 c 0,16,17
 174 104 174 104 166 124 c 0,18,19
 159 144 159 144 159 169 c 0,20,21
 159 197 159 197 169 218 c 256,22,23
 179 239 179 239 199 253 c 256,24,25
 219 267 219 267 250 274 c 0,26,27
 280 281 280 281 320 281 c 0,28,29
 331 281 331 281 351 281 c 0,0,1
529 320 m 0,30,31
 529 356 529 356 527 384 c 0,32,33
 525 411 525 411 521 429 c 0,34,35
 517 448 517 448 511 463 c 0,36,37
 504 479 504 479 495 492 c 0,38,39
 479 512 479 512 459 527 c 0,40,41
 439 543 439 543 415 553 c 0,42,43
 390 563 390 563 360 568 c 0,44,45
 331 573 331 573 296 573 c 0,46,47
 274 573 274 573 251 571 c 0,48,49
 228 568 228 568 205 564 c 0,50,51
 182 559 182 559 157 551 c 0,52,53
 133 544 133 544 108 535 c 1,54,55
 108 504 108 504 108 443 c 1,56,57
 130 455 130 455 153 465 c 0,58,59
 177 475 177 475 201 482 c 256,60,61
 225 489 225 489 249 492 c 0,62,63
 272 496 272 496 296 496 c 0,64,65
 333 496 333 496 359 488 c 0,66,67
 386 480 386 480 403 465 c 0,68,69
 419 450 419 450 428 426 c 0,70,71
 437 401 437 401 437 368 c 0,72,73
 437 363 437 363 437 353 c 1,74,75
 406 353 406 353 313 353 c 0,76,77
 253 353 253 353 207 341 c 256,78,79
 161 329 161 329 129 305 c 0,80,81
 98 281 98 281 82 245 c 0,82,83
 67 209 67 209 67 163 c 0,84,85
 67 122 67 122 79 90 c 0,86,87
 92 57 92 57 117 33 c 0,88,89
 143 9 143 9 177 -3 c 256,90,91
 211 -15 211 -15 254 -15 c 0,92,93
 286 -15 286 -15 313 -9 c 256,94,95
 340 -3 340 -3 363 9 c 0,96,97
 385 21 385 21 403 39 c 0,98,99
 422 58 422 58 437 83 c 1,100,101
 437 55 437 55 437 0 c 1,102,103
 460 0 460 0 529 0 c 1,104,105
 529 80 529 80 529 320 c 0,30,31
306 685 m 0,106,107
 315 677 315 677 324 671 c 0,108,109
 332 665 332 665 340 661 c 0,110,111
 348 658 348 658 357 656 c 0,112,113
 366 655 366 655 376 655 c 0,114,115
 399 655 399 655 416 664 c 0,116,117
 434 673 434 673 447 692 c 0,118,119
 460 710 460 710 466 736 c 0,120,121
 473 762 473 762 473 796 c 1,122,123
 452 796 452 796 411 796 c 1,124,125
 410 775 410 775 408 760 c 256,126,127
 406 745 406 745 401 736 c 0,128,129
 397 727 397 727 389 723 c 0,130,131
 382 718 382 718 372 718 c 0,132,133
 369 718 369 718 365 719 c 0,134,135
 362 720 362 720 357 723 c 0,136,137
 353 725 353 725 349 729 c 0,138,139
 344 733 344 733 339 738 c 0,140,141
 330 748 330 748 311 766 c 0,142,143
 301 774 301 774 293 780 c 256,144,145
 285 786 285 786 277 789 c 0,146,147
 269 793 269 793 260 795 c 256,148,149
 251 797 251 797 241 797 c 0,150,151
 219 797 219 797 201 787 c 0,152,153
 183 778 183 778 170 760 c 0,154,155
 158 741 158 741 151 715 c 0,156,157
 145 689 145 689 145 656 c 1,158,159
 165 656 165 656 206 656 c 1,160,161
 207 676 207 676 209 690 c 0,162,163
 212 705 212 705 217 714 c 0,164,165
 221 723 221 723 228 728 c 256,166,167
 235 733 235 733 245 733 c 0,168,169
 248 733 248 733 252 732 c 0,170,171
 255 730 255 730 260 728 c 0,172,173
 264 726 264 726 268 722 c 0,174,175
 273 718 273 718 278 713 c 0,176,177
 288 704 288 704 306 685 c 0,106,107
EndSplineSet
EndChar

StartChar: adieresis
Encoding: 228 228 166
Width: 616
Flags: W
LayerCount: 2
Fore
SplineSet
351 281 m 0,0,1
 373 281 373 281 437 281 c 1,2,3
 437 276 437 276 437 261 c 0,4,5
 437 215 437 215 426 178 c 256,6,7
 415 141 415 141 393 115 c 256,8,9
 371 89 371 89 341 76 c 256,10,11
 311 63 311 63 273 63 c 0,12,13
 246 63 246 63 225 69 c 0,14,15
 204 76 204 76 189 91 c 0,16,17
 174 104 174 104 166 124 c 0,18,19
 159 144 159 144 159 169 c 0,20,21
 159 197 159 197 169 218 c 256,22,23
 179 239 179 239 199 253 c 256,24,25
 219 267 219 267 250 274 c 0,26,27
 280 281 280 281 320 281 c 0,28,29
 331 281 331 281 351 281 c 0,0,1
529 320 m 0,30,31
 529 356 529 356 527 384 c 0,32,33
 525 411 525 411 521 429 c 0,34,35
 517 448 517 448 511 463 c 0,36,37
 504 479 504 479 495 492 c 0,38,39
 479 512 479 512 459 527 c 0,40,41
 439 543 439 543 415 553 c 0,42,43
 390 563 390 563 360 568 c 0,44,45
 331 573 331 573 296 573 c 0,46,47
 274 573 274 573 251 571 c 0,48,49
 228 568 228 568 205 564 c 0,50,51
 182 559 182 559 157 551 c 0,52,53
 133 544 133 544 108 535 c 1,54,55
 108 504 108 504 108 443 c 1,56,57
 130 455 130 455 153 465 c 0,58,59
 177 475 177 475 201 482 c 256,60,61
 225 489 225 489 249 492 c 0,62,63
 272 496 272 496 296 496 c 0,64,65
 333 496 333 496 359 488 c 0,66,67
 386 480 386 480 403 465 c 0,68,69
 419 450 419 450 428 426 c 0,70,71
 437 401 437 401 437 368 c 0,72,73
 437 363 437 363 437 353 c 1,74,75
 406 353 406 353 313 353 c 0,76,77
 253 353 253 353 207 341 c 256,78,79
 161 329 161 329 129 305 c 0,80,81
 98 281 98 281 82 245 c 0,82,83
 67 209 67 209 67 163 c 0,84,85
 67 122 67 122 79 90 c 0,86,87
 92 57 92 57 117 33 c 0,88,89
 143 9 143 9 177 -3 c 256,90,91
 211 -15 211 -15 254 -15 c 0,92,93
 286 -15 286 -15 313 -9 c 256,94,95
 340 -3 340 -3 363 9 c 0,96,97
 385 21 385 21 403 39 c 0,98,99
 422 58 422 58 437 83 c 1,100,101
 437 55 437 55 437 0 c 1,102,103
 460 0 460 0 529 0 c 1,104,105
 529 80 529 80 529 320 c 0,30,31
160 776 m 1,106,107
 160 751 160 751 160 675 c 1,108,109
 185 675 185 675 261 675 c 1,110,111
 261 700 261 700 261 776 c 1,112,113
 236 776 236 776 160 776 c 1,106,107
356 776 m 1,114,115
 356 751 356 751 356 675 c 1,116,117
 381 675 381 675 456 675 c 1,118,119
 456 700 456 700 456 776 c 1,120,121
 431 776 431 776 356 776 c 1,114,115
EndSplineSet
EndChar

StartChar: aring
Encoding: 229 229 167
Width: 616
Flags: W
LayerCount: 2
Fore
SplineSet
351 281 m 0,0,1
 373 281 373 281 437 281 c 1,2,3
 437 276 437 276 437 261 c 0,4,5
 437 215 437 215 426 178 c 256,6,7
 415 141 415 141 393 115 c 256,8,9
 371 89 371 89 341 76 c 256,10,11
 311 63 311 63 273 63 c 0,12,13
 246 63 246 63 225 69 c 0,14,15
 204 76 204 76 189 91 c 0,16,17
 174 104 174 104 166 124 c 0,18,19
 159 144 159 144 159 169 c 0,20,21
 159 197 159 197 169 218 c 256,22,23
 179 239 179 239 199 253 c 256,24,25
 219 267 219 267 250 274 c 0,26,27
 280 281 280 281 320 281 c 0,28,29
 331 281 331 281 351 281 c 0,0,1
529 320 m 0,30,31
 529 356 529 356 527 384 c 0,32,33
 525 411 525 411 521 429 c 0,34,35
 517 448 517 448 511 463 c 0,36,37
 504 479 504 479 495 492 c 0,38,39
 479 512 479 512 459 527 c 0,40,41
 439 543 439 543 415 553 c 0,42,43
 390 563 390 563 360 568 c 0,44,45
 331 573 331 573 296 573 c 0,46,47
 274 573 274 573 251 571 c 0,48,49
 228 568 228 568 205 564 c 0,50,51
 182 559 182 559 157 551 c 0,52,53
 133 544 133 544 108 535 c 1,54,55
 108 504 108 504 108 443 c 1,56,57
 130 455 130 455 153 465 c 0,58,59
 177 475 177 475 201 482 c 256,60,61
 225 489 225 489 249 492 c 0,62,63
 272 496 272 496 296 496 c 0,64,65
 333 496 333 496 359 488 c 0,66,67
 386 480 386 480 403 465 c 0,68,69
 419 450 419 450 428 426 c 0,70,71
 437 401 437 401 437 368 c 0,72,73
 437 363 437 363 437 353 c 1,74,75
 406 353 406 353 313 353 c 0,76,77
 253 353 253 353 207 341 c 256,78,79
 161 329 161 329 129 305 c 0,80,81
 98 281 98 281 82 245 c 0,82,83
 67 209 67 209 67 163 c 0,84,85
 67 122 67 122 79 90 c 0,86,87
 92 57 92 57 117 33 c 0,88,89
 143 9 143 9 177 -3 c 256,90,91
 211 -15 211 -15 254 -15 c 0,92,93
 286 -15 286 -15 313 -9 c 256,94,95
 340 -3 340 -3 363 9 c 0,96,97
 385 21 385 21 403 39 c 0,98,99
 422 58 422 58 437 83 c 1,100,101
 437 55 437 55 437 0 c 1,102,103
 460 0 460 0 529 0 c 1,104,105
 529 80 529 80 529 320 c 0,30,31
445 762 m 0,106,107
 445 790 445 790 435 815 c 0,108,109
 425 839 425 839 405 859 c 0,110,111
 386 879 386 879 361 889 c 0,112,113
 337 899 337 899 308 899 c 256,114,115
 279 899 279 899 255 889 c 0,116,117
 230 879 230 879 211 859 c 0,118,119
 191 839 191 839 181 815 c 0,120,121
 171 790 171 790 171 762 c 0,122,123
 171 733 171 733 181 709 c 0,124,125
 191 684 191 684 211 664 c 0,126,127
 230 644 230 644 255 634 c 0,128,129
 279 624 279 624 308 624 c 256,130,131
 337 624 337 624 361 634 c 0,132,133
 386 644 386 644 405 664 c 0,134,135
 425 684 425 684 435 709 c 0,136,137
 445 733 445 733 445 762 c 0,106,107
384 762 m 256,138,139
 384 746 384 746 378 732 c 0,140,141
 373 719 373 719 362 708 c 256,142,143
 351 697 351 697 337 691 c 0,144,145
 324 686 324 686 308 686 c 256,146,147
 292 686 292 686 278 691 c 0,148,149
 265 697 265 697 254 708 c 0,150,151
 243 718 243 718 238 732 c 0,152,153
 232 745 232 745 232 762 c 0,154,155
 232 778 232 778 238 791 c 0,156,157
 243 805 243 805 254 816 c 0,158,159
 265 826 265 826 278 832 c 0,160,161
 292 837 292 837 308 837 c 256,162,163
 324 837 324 837 337 832 c 0,164,165
 351 826 351 826 362 816 c 0,166,167
 373 804 373 804 378 791 c 0,168,169
 384 778 384 778 384 762 c 256,138,139
EndSplineSet
EndChar

StartChar: ae
Encoding: 230 230 168
Width: 616
Flags: W
LayerCount: 2
Fore
SplineSet
272 221 m 0,0,1
 272 175 272 175 267 143 c 0,2,3
 262 112 262 112 253 96 c 0,4,5
 244 79 244 79 228 71 c 0,6,7
 211 63 211 63 188 63 c 0,8,9
 167 63 167 63 152 69 c 0,10,11
 136 75 136 75 124 87 c 0,12,13
 113 99 113 99 108 116 c 256,14,15
 103 133 103 133 103 156 c 0,16,17
 103 184 103 184 110 203 c 0,18,19
 117 223 117 223 132 235 c 0,20,21
 147 246 147 246 176 251 c 0,22,23
 205 257 205 257 247 257 c 0,24,25
 255 257 255 257 272 257 c 1,26,27
 272 248 272 248 272 221 c 0,0,1
518 328 m 1,28,29
 477 328 477 328 355 328 c 1,30,31
 355 334 355 334 355 350 c 0,32,33
 355 389 355 389 359 417 c 0,34,35
 364 445 364 445 373 463 c 0,36,37
 383 479 383 479 399 488 c 0,38,39
 414 496 414 496 436 496 c 256,40,41
 458 496 458 496 473 488 c 0,42,43
 489 479 489 479 499 463 c 0,44,45
 508 446 508 446 513 419 c 256,46,47
 518 392 518 392 518 355 c 0,48,49
 518 346 518 346 518 328 c 1,28,29
600 257 m 1,50,51
 600 268 600 268 600 302 c 0,52,53
 600 379 600 379 591 431 c 0,54,55
 582 484 582 484 564 514 c 256,56,57
 546 544 546 544 515 559 c 0,58,59
 484 573 484 573 440 573 c 0,60,61
 418 573 418 573 399 569 c 0,62,63
 379 565 379 565 363 557 c 0,64,65
 346 549 346 549 334 537 c 256,66,67
 322 525 322 525 313 510 c 1,68,69
 304 526 304 526 292 538 c 0,70,71
 279 550 279 550 264 557 c 0,72,73
 248 565 248 565 229 569 c 256,74,75
 210 573 210 573 188 573 c 0,76,77
 173 573 173 573 157 571 c 256,78,79
 141 569 141 569 124 565 c 0,80,81
 108 561 108 561 90 555 c 0,82,83
 72 548 72 548 53 540 c 1,84,85
 53 512 53 512 53 456 c 1,86,87
 68 465 68 465 84 473 c 0,88,89
 101 480 101 480 117 485 c 0,90,91
 134 491 134 491 149 494 c 0,92,93
 164 496 164 496 178 496 c 0,94,95
 201 496 201 496 219 488 c 256,96,97
 237 480 237 480 249 464 c 0,98,99
 262 448 262 448 268 425 c 0,100,101
 275 402 275 402 275 372 c 0,102,103
 275 358 275 358 275 328 c 1,104,105
 260 328 260 328 216 328 c 0,106,107
 168 328 168 328 132 317 c 0,108,109
 95 306 95 306 71 284 c 0,110,111
 45 261 45 261 33 229 c 0,112,113
 20 196 20 196 20 153 c 0,114,115
 20 112 20 112 31 81 c 0,116,117
 41 50 41 50 61 28 c 0,118,119
 81 7 81 7 111 -4 c 256,120,121
 141 -15 141 -15 180 -15 c 0,122,123
 204 -15 204 -15 224 -10 c 0,124,125
 245 -5 245 -5 261 5 c 0,126,127
 278 15 278 15 291 30 c 0,128,129
 305 45 305 45 315 65 c 1,130,131
 322 46 322 46 336 31 c 0,132,133
 349 16 349 16 368 6 c 0,134,135
 386 -4 386 -4 409 -10 c 0,136,137
 432 -15 432 -15 460 -15 c 0,138,139
 478 -15 478 -15 495 -12 c 256,140,141
 512 -9 512 -9 528 -4 c 0,142,143
 545 1 545 1 560 9 c 256,144,145
 575 17 575 17 589 28 c 1,146,147
 589 56 589 56 589 113 c 1,148,149
 576 101 576 101 562 91 c 256,150,151
 548 81 548 81 532 75 c 0,152,153
 515 69 515 69 497 66 c 0,154,155
 480 63 480 63 460 63 c 0,156,157
 432 63 432 63 412 72 c 0,158,159
 391 81 391 81 379 99 c 0,160,161
 366 117 366 117 360 146 c 0,162,163
 353 174 353 174 353 215 c 0,164,165
 353 223 353 223 353 230 c 0,166,167
 353 236 353 236 353 240 c 0,168,169
 353 245 353 245 354 249 c 0,170,171
 354 253 354 253 355 257 c 1,172,173
 436 257 436 257 600 257 c 1,50,51
EndSplineSet
EndChar

StartChar: ccedilla
Encoding: 231 231 169
Width: 616
Flags: W
LayerCount: 2
Fore
SplineSet
402 0 m 0,0,1
 399 0 399 0 389 0 c 0,2,3
 377 0 377 0 343 0 c 1,4,5
 354 -15 354 -15 362 -29 c 0,6,7
 370 -42 370 -42 376 -52 c 0,8,9
 381 -63 381 -63 384 -72 c 0,10,11
 387 -82 387 -82 387 -89 c 0,12,13
 387 -101 387 -101 383 -109 c 0,14,15
 379 -118 379 -118 372 -124 c 0,16,17
 364 -130 364 -130 353 -133 c 256,18,19
 342 -136 342 -136 328 -136 c 0,20,21
 316 -136 316 -136 305 -135 c 256,22,23
 294 -134 294 -134 285 -132 c 0,24,25
 276 -131 276 -131 267 -128 c 256,26,27
 258 -125 258 -125 249 -120 c 1,28,29
 249 -142 249 -142 249 -185 c 1,30,31
 260 -188 260 -188 271 -191 c 0,32,33
 282 -193 282 -193 293 -195 c 0,34,35
 304 -196 304 -196 315 -197 c 0,36,37
 326 -197 326 -197 337 -197 c 0,38,39
 367 -197 367 -197 389 -192 c 0,40,41
 412 -186 412 -186 427 -175 c 256,42,43
 442 -164 442 -164 449 -147 c 256,44,45
 456 -130 456 -130 456 -108 c 0,46,47
 456 -96 456 -96 453 -83 c 0,48,49
 450 -71 450 -71 443 -57 c 0,50,51
 436 -44 436 -44 426 -30 c 256,52,53
 416 -16 416 -16 402 0 c 0,0,1
531 28 m 1,54,55
 531 52 531 52 531 124 c 1,56,57
 514 108 514 108 496 97 c 0,58,59
 479 86 479 86 460 78 c 0,60,61
 441 71 441 71 419 67 c 0,62,63
 398 64 398 64 374 64 c 0,64,65
 331 64 331 64 298 77 c 0,66,67
 264 91 264 91 241 120 c 0,68,69
 218 148 218 148 206 188 c 0,70,71
 195 228 195 228 195 280 c 0,72,73
 195 331 195 331 206 371 c 0,74,75
 218 411 218 411 241 440 c 0,76,77
 264 467 264 467 297 481 c 0,78,79
 331 496 331 496 374 496 c 0,80,81
 397 496 397 496 418 492 c 256,82,83
 439 488 439 488 457 481 c 256,84,85
 475 474 475 474 494 462 c 0,86,87
 512 450 512 450 531 434 c 1,88,89
 531 466 531 466 531 531 c 1,90,91
 511 541 511 541 492 550 c 0,92,93
 472 558 472 558 453 563 c 256,94,95
 434 568 434 568 414 571 c 0,96,97
 394 573 394 573 374 573 c 0,98,99
 309 573 309 573 258 554 c 256,100,101
 207 535 207 535 171 496 c 0,102,103
 134 457 134 457 116 403 c 0,104,105
 97 349 97 349 97 280 c 256,106,107
 97 211 97 211 116 157 c 0,108,109
 134 103 134 103 171 64 c 0,110,111
 207 25 207 25 258 5 c 256,112,113
 309 -15 309 -15 374 -15 c 0,114,115
 394 -15 394 -15 414 -12 c 0,116,117
 435 -9 435 -9 454 -4 c 0,118,119
 474 1 474 1 493 9 c 0,120,121
 512 18 512 18 531 28 c 1,54,55
EndSplineSet
EndChar

StartChar: egrave
Encoding: 232 232 170
Width: 616
Flags: W
LayerCount: 2
Fore
SplineSet
560 326 m 0,0,1
 558 377 558 377 541 421 c 0,2,3
 525 465 525 465 494 501 c 256,4,5
 463 537 463 537 421 555 c 256,6,7
 379 573 379 573 325 573 c 0,8,9
 265 573 265 573 217 553 c 256,10,11
 169 533 169 533 133 493 c 256,12,13
 97 453 97 453 79 400 c 0,14,15
 61 346 61 346 61 280 c 0,16,17
 61 211 61 211 80 157 c 0,18,19
 98 103 98 103 135 64 c 256,20,21
 172 25 172 25 223 5 c 256,22,23
 274 -15 274 -15 339 -15 c 0,24,25
 361 -15 361 -15 385 -12 c 256,26,27
 409 -9 409 -9 433 -4 c 256,28,29
 457 1 457 1 483 9 c 0,30,31
 508 18 508 18 535 28 c 1,32,33
 535 59 535 59 535 120 c 1,34,35
 507 106 507 106 482 95 c 0,36,37
 456 84 456 84 432 77 c 256,38,39
 408 70 408 70 385 67 c 256,40,41
 362 64 362 64 340 64 c 0,42,43
 296 64 296 64 263 76 c 0,44,45
 229 88 229 88 205 113 c 256,46,47
 181 138 181 138 170 179 c 0,48,49
 159 221 159 221 161 278 c 0,50,51
 161 279 161 279 161 281 c 1,52,53
 261 281 261 281 560 281 c 1,54,55
 560 292 560 292 560 326 c 0,0,1
468 353 m 1,56,57
 392 353 392 353 165 352 c 1,58,59
 167 380 167 380 179 405 c 0,60,61
 190 429 190 429 212 452 c 0,62,63
 233 473 233 473 261 484 c 0,64,65
 288 496 288 496 321 496 c 0,66,67
 355 496 355 496 381 485 c 256,68,69
 407 474 407 474 425 453 c 256,70,71
 443 432 443 432 454 407 c 256,72,73
 465 382 465 382 468 353 c 1,56,57
245 819 m 1,74,75
 221 819 221 819 147 819 c 1,76,77
 187 772 187 772 309 631 c 1,78,79
 328 631 328 631 386 631 c 1,80,81
 351 678 351 678 245 819 c 1,74,75
EndSplineSet
EndChar

StartChar: eacute
Encoding: 233 233 171
Width: 616
Flags: W
LayerCount: 2
Fore
SplineSet
560 326 m 0,0,1
 558 377 558 377 541 421 c 0,2,3
 525 465 525 465 494 501 c 256,4,5
 463 537 463 537 421 555 c 256,6,7
 379 573 379 573 325 573 c 0,8,9
 265 573 265 573 217 553 c 256,10,11
 169 533 169 533 133 493 c 256,12,13
 97 453 97 453 79 400 c 0,14,15
 61 346 61 346 61 280 c 0,16,17
 61 211 61 211 80 157 c 0,18,19
 98 103 98 103 135 64 c 256,20,21
 172 25 172 25 223 5 c 256,22,23
 274 -15 274 -15 339 -15 c 0,24,25
 361 -15 361 -15 385 -12 c 256,26,27
 409 -9 409 -9 433 -4 c 256,28,29
 457 1 457 1 483 9 c 0,30,31
 508 18 508 18 535 28 c 1,32,33
 535 59 535 59 535 120 c 1,34,35
 507 106 507 106 482 95 c 0,36,37
 456 84 456 84 432 77 c 256,38,39
 408 70 408 70 385 67 c 256,40,41
 362 64 362 64 340 64 c 0,42,43
 296 64 296 64 263 76 c 0,44,45
 229 88 229 88 205 113 c 256,46,47
 181 138 181 138 170 179 c 0,48,49
 159 221 159 221 161 278 c 0,50,51
 161 279 161 279 161 281 c 1,52,53
 261 281 261 281 560 281 c 1,54,55
 560 292 560 292 560 326 c 0,0,1
468 353 m 1,56,57
 392 353 392 353 165 352 c 1,58,59
 167 380 167 380 179 405 c 0,60,61
 190 429 190 429 212 452 c 0,62,63
 233 473 233 473 261 484 c 0,64,65
 288 496 288 496 321 496 c 0,66,67
 355 496 355 496 381 485 c 256,68,69
 407 474 407 474 425 453 c 256,70,71
 443 432 443 432 454 407 c 256,72,73
 465 382 465 382 468 353 c 1,56,57
385 819 m 1,74,75
 350 772 350 772 244 631 c 1,76,77
 264 631 264 631 321 631 c 1,78,79
 362 678 362 678 484 819 c 1,80,81
 459 819 459 819 385 819 c 1,74,75
EndSplineSet
EndChar

StartChar: ecircumflex
Encoding: 234 234 172
Width: 616
Flags: W
LayerCount: 2
Fore
SplineSet
560 326 m 0,0,1
 558 377 558 377 541 421 c 0,2,3
 525 465 525 465 494 501 c 256,4,5
 463 537 463 537 421 555 c 256,6,7
 379 573 379 573 325 573 c 0,8,9
 265 573 265 573 217 553 c 256,10,11
 169 533 169 533 133 493 c 256,12,13
 97 453 97 453 79 400 c 0,14,15
 61 346 61 346 61 280 c 0,16,17
 61 211 61 211 80 157 c 0,18,19
 98 103 98 103 135 64 c 256,20,21
 172 25 172 25 223 5 c 256,22,23
 274 -15 274 -15 339 -15 c 0,24,25
 361 -15 361 -15 385 -12 c 256,26,27
 409 -9 409 -9 433 -4 c 256,28,29
 457 1 457 1 483 9 c 0,30,31
 508 18 508 18 535 28 c 1,32,33
 535 59 535 59 535 120 c 1,34,35
 507 106 507 106 482 95 c 0,36,37
 456 84 456 84 432 77 c 256,38,39
 408 70 408 70 385 67 c 256,40,41
 362 64 362 64 340 64 c 0,42,43
 296 64 296 64 263 76 c 0,44,45
 229 88 229 88 205 113 c 256,46,47
 181 138 181 138 170 179 c 0,48,49
 159 221 159 221 161 278 c 0,50,51
 161 279 161 279 161 281 c 1,52,53
 261 281 261 281 560 281 c 1,54,55
 560 292 560 292 560 326 c 0,0,1
468 353 m 1,56,57
 392 353 392 353 165 352 c 1,58,59
 167 380 167 380 179 405 c 0,60,61
 190 429 190 429 212 452 c 0,62,63
 233 473 233 473 261 484 c 0,64,65
 288 496 288 496 321 496 c 0,66,67
 355 496 355 496 381 485 c 256,68,69
 407 474 407 474 425 453 c 256,70,71
 443 432 443 432 454 407 c 256,72,73
 465 382 465 382 468 353 c 1,56,57
279 819 m 1,74,75
 248 772 248 772 156 631 c 1,76,77
 173 631 173 631 225 631 c 1,78,79
 247 662 247 662 315 753 c 1,80,81
 338 723 338 723 405 631 c 1,82,83
 423 631 423 631 475 631 c 1,84,85
 444 678 444 678 352 819 c 1,86,87
 334 819 334 819 279 819 c 1,74,75
EndSplineSet
EndChar

